<svg width="46" height="46" viewBox="0 0 46 46" fill="none" xmlns="http://www.w3.org/2000/svg">
<g clip-path="url(#clip0_508_352)">
<path fill-rule="evenodd" clip-rule="evenodd" d="M33.3787 27.5656C32.8076 27.28 30.0073 25.9038 29.486 25.7122C28.9647 25.5224 28.5852 25.4285 28.2037 25.9997C27.8242 26.567 26.7337 27.8512 26.4021 28.2307C26.0686 28.6121 25.737 28.6581 25.1677 28.3744C24.5985 28.0869 22.7623 27.487 20.5869 25.5473C18.8945 24.037 17.7502 22.1721 17.4187 21.6009C17.0871 21.0317 17.3822 20.7231 17.6678 20.4394C17.9247 20.1845 18.2371 19.7743 18.5227 19.4427C18.8082 19.1092 18.9022 18.8716 19.0919 18.4902C19.2836 18.1107 19.1877 17.7791 19.044 17.4935C18.9022 17.2079 17.7637 14.4038 17.2883 13.2634C16.8264 12.1537 16.3568 12.3051 16.008 12.2859C15.6745 12.2706 15.295 12.2667 14.9155 12.2667C14.536 12.2667 13.9188 12.4086 13.3975 12.9797C12.8742 13.549 11.4042 14.9271 11.4042 17.7312C11.4042 20.5333 13.4435 23.2416 13.7291 23.623C14.0147 24.0025 17.7445 29.7563 23.4581 32.2231C24.8189 32.8096 25.8788 33.1603 26.7049 33.421C28.0696 33.8561 29.3116 33.7947 30.2929 33.6472C31.3854 33.4842 33.6624 32.2691 34.1377 30.9389C34.6112 29.6087 34.6112 28.4683 34.4693 28.2307C34.3275 27.993 33.948 27.8512 33.3768 27.5656H33.3787ZM22.9866 41.7547H22.9789C19.5853 41.7553 16.254 40.843 13.3342 39.1135L12.6442 38.7033L5.47208 40.5855L7.38683 33.5935L6.93642 32.8767C5.03918 29.8567 4.03515 26.3615 4.04033 22.795C4.04417 12.3492 12.5427 3.85066 22.9942 3.85066C28.0542 3.85066 32.8114 5.82483 36.3879 9.40516C38.152 11.1619 39.5502 13.2511 40.5016 15.5517C41.453 17.8524 41.9389 20.3188 41.9309 22.8084C41.9271 33.2542 33.4286 41.7547 22.9866 41.7547ZM39.1096 6.68541C36.9978 4.55968 34.4851 2.87419 31.7172 1.72661C28.9492 0.579034 25.9811 -0.00781281 22.9847 7.85403e-05C10.4228 7.85403e-05 0.1955 10.2255 0.191667 22.7931C0.185846 26.7927 1.23505 30.7231 3.23342 34.1877L0 46.0001L12.0827 42.8299C15.4251 44.651 19.1707 45.6052 22.977 45.6052H22.9866C35.5484 45.6052 45.7757 35.3798 45.7796 22.8103C45.7888 19.8151 45.2041 16.8478 44.0592 14.08C42.9143 11.3122 41.232 8.79886 39.1096 6.68541Z" fill="#9E92E8"/>
</g>
<defs>
<clipPath id="clip0_508_352">
<rect width="46" height="46" fill="white"/>
</clipPath>
</defs>
</svg>
