<svg width="46" height="46" viewBox="0 0 46 46" fill="none" xmlns="http://www.w3.org/2000/svg">
<path fill-rule="evenodd" clip-rule="evenodd" d="M40.0741 30.6281C39.1364 30.1497 34.5395 27.8444 33.6836 27.5234C32.8278 27.2055 32.2048 27.0482 31.5787 28.005C30.9557 28.9553 29.1653 31.1065 28.621 31.7423C28.0735 32.3812 27.5292 32.4583 26.5947 31.9831C25.6602 31.5015 22.6459 30.4965 19.0747 27.2472C16.2963 24.7172 14.4179 21.5931 13.8736 20.6363C13.3292 19.6827 13.8138 19.1658 14.2826 18.6906C14.7042 18.2636 15.2171 17.5765 15.6859 17.021C16.1547 16.4623 16.3089 16.0642 16.6204 15.4253C16.9351 14.7896 16.7777 14.2341 16.5418 13.7557C16.3089 13.2773 14.4399 8.57998 13.6596 6.66958C12.9013 4.81057 12.1304 5.06421 11.5578 5.03211C11.0103 5.00642 10.3873 5 9.7643 5C9.1413 5 8.12815 5.23759 7.27231 6.19439C6.41333 7.14799 4 9.45651 4 14.1538C4 18.8479 7.34783 23.3847 7.81665 24.0236C8.28547 24.6594 14.4085 34.298 23.788 38.4302C26.022 39.4127 27.762 40.0003 29.1181 40.437C31.3584 41.1658 33.3973 41.063 35.0083 40.8158C36.8018 40.5429 40.5398 38.5073 41.3201 36.279C42.0973 34.0508 42.0972 32.1404 41.8644 31.7423C41.6316 31.3441 41.0086 31.1065 40.0709 30.6281H40.0741Z" fill="#9E92E8"/>
</svg>
