<svg width="512" height="512" viewBox="0 0 512 512" fill="none" xmlns="http://www.w3.org/2000/svg">
<path d="M286.899 1.99881C284.899 2.29881 281.899 3.49882 280.199 4.59882C278.599 5.59882 264.399 17.9988 248.599 32.0988L220.099 57.6988L212.299 58.3988C170.399 62.0988 134.299 81.3988 107.599 114.299C81.5994 146.499 68.9994 176.999 68.9994 207.799C68.9994 225.899 71.9994 239.199 80.0994 256.899C82.2994 261.499 83.9994 265.599 83.9994 266.099C83.9994 266.499 77.3994 273.999 69.3994 282.599C47.7994 305.899 41.3994 314.199 38.9994 322.699C37.1994 328.699 38.3994 333.399 42.8994 337.899C47.4994 342.499 54.1994 345.199 67.9994 347.999C73.5994 349.099 78.4994 350.199 78.9994 350.499C79.3994 350.799 78.8994 354.699 77.8994 359.199C76.8994 363.799 75.9994 370.899 75.9994 374.999C75.9994 382.899 76.6994 384.799 83.1994 395.199C88.7994 404.099 90.4994 419.399 87.4994 432.999C84.8994 444.899 85.6994 450.999 90.7994 456.299C97.2994 463.199 108.599 465.899 131.299 465.999C145.999 465.999 169.999 464.599 181.499 462.999C184.799 462.599 187.699 462.399 187.899 462.599C188.399 462.999 183.799 476.099 179.999 485.099C177.399 490.999 176.899 493.499 177.399 496.299C178.299 500.999 181.799 505.999 185.999 508.399C189.399 510.499 190.799 510.499 277.999 510.799C326.699 510.999 368.799 510.799 371.699 510.499C377.399 509.799 382.099 507.099 385.399 502.699C386.899 500.599 387.499 498.399 387.499 494.099C387.499 488.399 387.299 487.999 380.299 478.899C362.699 455.699 354.599 436.099 353.299 413.299C352.099 391.499 354.899 382.299 373.899 343.599C381.499 328.099 389.499 311.299 391.599 306.299L395.499 296.999H425.399C444.799 296.999 456.599 296.599 459.099 295.899C464.299 294.299 469.899 289.499 472.099 284.599C473.899 280.699 473.999 275.799 473.999 185.699C473.999 81.9988 474.299 87.0988 468.199 80.5988C466.699 78.9988 463.699 76.8988 461.499 75.8988C457.799 74.1988 454.099 73.9988 411.399 73.9988H365.299L334.899 39.9988C303.899 5.29881 301.399 2.9988 293.499 1.7988C291.899 1.4988 288.899 1.59881 286.899 1.99881ZM296.199 14.9988C299.599 17.5988 353.499 77.9988 353.499 79.0988C353.499 79.5988 349.699 83.3988 345.199 87.4988L336.799 94.8988L331.699 89.6988C323.599 81.4988 313.999 79.6988 304.099 84.5988C297.799 87.7988 293.699 92.9988 291.999 99.9988C289.999 108.199 292.199 115.299 298.699 122.099L302.199 125.799L297.799 129.799C288.799 138.099 284.799 140.999 283.499 140.199C282.799 139.799 277.399 134.099 271.499 127.499C265.499 120.899 260.199 115.199 259.599 114.799C256.499 112.699 250.999 115.499 250.999 119.299C250.999 122.599 248.099 127.499 245.099 129.299C235.699 134.799 223.899 124.899 227.999 115.099C229.799 110.699 232.499 108.799 238.099 107.899C244.299 106.899 245.999 105.599 245.999 101.899C245.999 99.6988 243.499 96.2988 234.499 86.2988C227.799 78.8988 223.099 72.7988 223.199 71.7988C223.499 70.2988 282.699 16.3988 286.799 14.0988C289.499 12.4988 293.499 12.7988 296.199 14.9988ZM456.599 86.4988C462.999 89.0988 463.099 89.7988 462.799 137.199L462.499 179.499L450.299 179.799L438.099 180.099L438.699 175.199C440.999 155.799 418.599 142.299 402.299 153.199C395.099 157.999 390.899 168.099 392.399 176.499L393.099 180.099L380.799 179.799L368.499 179.499L367.999 160.199C367.599 144.499 367.199 140.699 365.999 139.999C363.499 138.399 361.099 138.899 357.199 141.499C351.999 144.999 346.099 144.899 341.899 141.199C339.299 138.899 338.599 137.399 338.199 133.199C337.799 128.299 337.999 127.799 341.299 124.499C344.199 121.599 345.499 120.999 349.199 120.999C352.199 120.999 354.699 121.799 357.199 123.499C361.499 126.399 364.199 126.699 366.399 124.399C367.699 123.099 367.999 119.899 367.999 104.599C367.999 94.5988 368.299 85.9988 368.699 85.6988C368.999 85.2988 388.199 84.9988 411.199 84.9988C445.699 84.9988 453.699 85.2988 456.599 86.4988ZM423.599 164.399C427.999 168.799 428.299 174.799 424.499 179.999C421.499 183.999 421.299 187.099 423.799 189.299C425.299 190.699 428.699 190.999 444.099 191.199L462.499 191.499L462.799 232.499C462.899 254.999 462.799 274.999 462.499 276.899C462.099 278.699 460.799 281.299 459.499 282.599L457.099 284.999H412.499H367.999V273.099V261.299H374.799C379.699 261.399 382.599 260.799 385.599 259.299C402.299 250.599 403.199 227.699 387.299 218.299C383.399 215.999 381.199 215.499 375.499 215.299L368.499 215.099V203.299V191.499L386.899 191.199C402.299 190.999 405.699 190.699 407.199 189.299C409.699 187.099 409.499 183.999 406.499 179.999C402.699 174.799 402.999 168.799 407.399 164.399C410.299 161.499 411.499 160.999 415.499 160.999C419.499 160.999 420.699 161.499 423.599 164.399ZM286.799 197.199C286.599 211.499 296.199 221.399 310.199 221.299C317.699 221.199 324.899 217.299 328.999 211.199C332.399 205.999 333.499 201.699 332.699 195.399L332.199 190.999H344.599H356.999V209.899C356.999 228.399 357.099 228.899 359.199 230.399C362.199 232.599 363.799 232.399 367.399 229.599C371.699 226.299 374.499 225.699 378.499 226.999C386.799 229.799 389.799 239.799 384.199 246.099C381.899 248.599 380.399 249.399 376.399 249.699C372.099 250.099 370.999 249.899 368.299 247.599C364.799 244.699 360.899 244.199 358.599 246.599C357.299 247.899 356.999 251.199 356.999 266.599V284.999H312.599H268.299L265.599 282.399L262.999 279.699V235.899C262.999 201.899 263.299 192.099 264.299 191.699C264.899 191.399 270.299 191.099 276.199 191.099L286.899 190.999L286.799 197.199Z" fill="#1B2260"/>
</svg>
