<svg width="1920" height="1024" viewBox="0 0 1920 1024" fill="none" xmlns="http://www.w3.org/2000/svg">
<path d="M1979.45 0H-59.457V823.208H1979.45V0Z" fill="url(#paint0_linear_173_350)"/>
<path d="M1979.45 823.208L-59.457 814.543V1023.53H1979.45V823.208Z" fill="url(#paint1_linear_173_350)"/>
<path opacity="0.5" d="M1979.45 874.436H198.723L1979.45 879.533V874.436Z" fill="url(#paint2_linear_173_350)"/>
<path opacity="0.5" d="M1979.45 947.071L54.9805 957.521L1979.45 950.13V947.071Z" fill="url(#paint3_linear_173_350)"/>
<path opacity="0.5" d="M272.887 956.247L377.89 874.436H378.91L273.651 956.247H272.887Z" fill="url(#paint4_linear_173_350)"/>
<path opacity="0.5" d="M-59.457 998.3L1422.06 1023.53L-59.457 1007.47V998.3Z" fill="url(#paint5_linear_173_350)"/>
<path opacity="0.2" d="M1979.45 923.625L809.883 913.686L795.866 931.781H745.913L299.647 935.349L272.887 956.248L1979.45 947.073V923.625Z" fill="url(#paint6_linear_173_350)"/>
<path opacity="0.2" d="M-59.457 994.22V964.911L1007.65 970.773L610.323 980.967L626.889 1002.89L1884.13 996.259L1912.67 1023.53L-59.457 994.22Z" fill="url(#paint7_linear_173_350)"/>
<path opacity="0.2" d="M1979.45 874.436L181.137 876.985L204.074 862.967L668.435 869.849L704.88 862.967L1979.45 856.596V874.436Z" fill="url(#paint8_linear_173_350)"/>
<path opacity="0.3" d="M1979.45 950.13L-59.457 956.247L413.314 957.521L440.075 964.912L1979.45 956.247V950.13Z" fill="url(#paint9_linear_173_350)"/>
<path opacity="0.3" d="M1979.45 879.533L378.91 874.436L975.8 887.179L1979.45 879.533Z" fill="url(#paint10_linear_173_350)"/>
<path opacity="0.3" d="M-59.457 998.298L490.792 1007.47L-59.457 976.38V998.298Z" fill="url(#paint11_linear_173_350)"/>
<path opacity="0.3" d="M-59.457 929.741L625.105 923.625L-59.457 918.782V929.741Z" fill="url(#paint12_linear_173_350)"/>
<path d="M-59.457 0.169922V83.7199L1979.45 105.301V0.169922H-59.457Z" fill="url(#paint13_radial_173_350)"/>
<path d="M1979.45 105.004L-59.457 97.358V79.0078L892.712 94.8093L1979.45 97.6128V105.004Z" fill="url(#paint14_linear_173_350)"/>
<path d="M1979.45 814.289L1151.91 807.153L-59.457 796.448V824.738L1979.45 832.384V814.289Z" fill="white"/>
<path d="M1979.45 824.992V832.383L197.7 825.756L98.0484 825.247L-59.457 824.737V806.387L92.6963 808.935L202.033 810.719L892.457 822.188L1979.45 824.992Z" fill="url(#paint15_linear_173_350)"/>
<path opacity="0.2" d="M-59.457 823.208C-59.457 823.208 -29.8929 228.102 19.5506 148.585C59.8189 83.8497 1521.71 114.943 1572.94 146.291C1668.52 204.91 1785.24 816.071 1785.24 816.071L1979.45 814.287V105.003L-59.457 97.3574V823.208Z" fill="url(#paint16_linear_173_350)"/>
<path opacity="0.2" d="M-59.457 708.266C-59.457 708.266 69.7586 796.448 991.854 796.448C1913.95 796.448 1979.45 766.884 1979.45 766.884V814.544L-59.457 796.703V708.266Z" fill="url(#paint17_linear_173_350)"/>
<path opacity="0.47" d="M1889.22 1138.47H1895.34C1896.87 1127.52 1895.34 1116.81 1895.34 1116.81C1896.36 1116.56 1897.38 1116.05 1896.87 1114.77C1896.36 1113.24 1893.56 1113.5 1893.56 1113.5L1884.64 1113.75L1879.03 1080.37C1875.21 1056.41 1871.89 1032.2 1869.6 1008.75L1868.84 1000.59H1864.5H1849.21H1798.75L1799.77 958.541H1802.57L1803.85 911.392L1810.22 909.098L1883.87 885.905L1891.52 875.201H1886.93V872.652C1891.52 870.868 1895.09 866.026 1895.09 859.909C1895.09 859.654 1895.09 859.399 1895.09 859.145C1895.09 858.89 1895.09 858.635 1895.09 858.38C1895.09 855.067 1893.81 852.263 1891.77 850.479C1889.73 847.931 1886.68 846.401 1883.36 846.401C1876.74 846.401 1871.38 852.263 1871.38 859.654C1871.38 865.516 1874.7 870.613 1879.54 872.397V874.946H1875.72L1843.86 880.808L1847.94 874.946H1842.84V872.397C1845.64 871.378 1847.94 869.084 1849.47 866.281C1850.49 864.752 1851 862.713 1851 860.419C1851 860.164 1851 860.164 1851 859.909C1851 859.654 1851 859.654 1851 859.399C1851 852.008 1845.64 846.147 1839.02 846.147C1832.39 846.147 1827.04 852.008 1827.04 859.399C1827.04 865.261 1830.35 870.359 1835.19 872.143V874.691H1831.63L1806.9 887.18L1793.65 889.473L1788.55 886.415L1787.53 851.244L1746.25 836.207H1745.23H1711.84V835.952L1710.82 836.207H1662.14H1638.69V835.188C1626.21 835.188 1611.68 835.442 1595.62 836.207H1399.38L1398.87 835.442C1398.87 835.442 1398.36 835.697 1397.34 836.207H1395.81H1378.22H1294.88L1294.37 835.188C1293.86 835.442 1293.35 835.697 1292.85 836.207H1129.22L1129.99 903.746V904.765L1131.01 1001.1V1002.12L1131.52 1054.62C1131.26 1054.62 1131.01 1054.62 1131.01 1054.62L1131.26 1056.66C1131.26 1056.66 1131.52 1056.66 1131.77 1056.66V1067.88V1068.9V1074.5V1079.86L1132.03 1080.37V1087.5V1088.52L1132.28 1105.09H1070.35L1069.84 1133.12H1181.21L1183 1148.92H1203.9L1159.04 1217.99C1157.77 1216.72 1155.47 1215.44 1152.42 1216.72C1151.91 1216.97 1151.65 1217.23 1151.14 1217.74C1148.85 1219.78 1149.61 1224.11 1149.61 1224.11L1150.12 1225.13L1151.91 1229.21L1148.34 1234.81C1148.34 1234.81 1148.08 1235.32 1147.83 1236.09C1147.57 1236.85 1147.57 1237.87 1147.83 1238.64C1148.08 1239.66 1148.34 1240.93 1149.36 1241.95C1152.16 1244.75 1155.47 1241.44 1155.47 1241.44L1156.24 1240.17L1185.8 1313.31L1180.2 1314.84C1179.18 1323.76 1183.51 1323.76 1183.51 1323.76H1189.37L1190.14 1323.51L1193.19 1331.15C1193.19 1331.15 1194.47 1333.19 1196 1333.44C1197.02 1333.95 1198.04 1333.95 1199.31 1333.44C1202.88 1331.92 1201.86 1327.33 1201.86 1327.33L1199.57 1321.21L1229.38 1314.84C1236.27 1323.25 1252.58 1339.82 1273.73 1340.07C1276.53 1340.58 1279.08 1340.33 1281.38 1339.31C1282.14 1339.05 1282.65 1338.8 1283.42 1338.29C1291.83 1333.19 1294.37 1318.92 1290.81 1302.35C1289.53 1295.73 1287.24 1288.84 1283.92 1282.22C1272.46 1258.26 1253.6 1244.75 1241.87 1251.89C1241.87 1251.89 1241.62 1251.89 1241.36 1252.14C1240.09 1252.91 1238.81 1254.18 1237.79 1255.46C1232.7 1261.32 1224.29 1275.08 1224.8 1302.86L1195.49 1310.51L1163.88 1228.7L1217.66 1148.67H1233.46H1256.4L1258.18 1132.87H1403.97L1423.59 1139.49L1433.53 1153.77L1352.48 1153.26L1348.15 1155.55L1335.92 1293.18L1375.68 1293.69L1429.71 1294.45L1453.41 1294.71L1545.16 1295.98L1548.22 1294.45L1562.75 1155.81L1560.96 1155.04L1449.33 1154.28L1449.08 1153L1448.31 1148.92L1447.04 1140H1450.35L1480.42 1133.38H1645.83H1646.85C1646.85 1133.38 1646.85 1133.38 1646.85 1133.12L1684.06 1131.34C1685.08 1135.67 1686.1 1137.96 1686.1 1137.96H1760.77C1765.87 1178.49 1773.77 1223.6 1785.5 1250.36C1785.5 1250.36 1791.36 1251.63 1800.79 1253.16C1803.34 1253.67 1806.39 1253.93 1809.45 1254.44C1809.45 1254.69 1822.45 1272.02 1838.51 1277.88C1838.51 1277.88 1861.19 1288.33 1884.38 1263.61C1884.38 1263.61 1887.95 1258.77 1890.5 1252.14C1892.54 1251.63 1894.83 1251.12 1896.87 1250.61C1896.87 1250.61 1901.46 1249.09 1909.61 1235.83C1910.12 1236.09 1899.67 1193.78 1889.22 1138.47ZM1781.67 1000.34L1783.71 967.207L1784.48 966.442C1784.22 966.187 1783.97 965.932 1783.97 965.677L1784.48 958.286H1786.26V993.203V1000.08H1781.67V1000.34Z" fill="url(#paint18_linear_173_350)"/>
<path d="M1474.05 575.482L1461.56 452.892L1670.81 450.599L1688.39 575.482H1474.05Z" fill="url(#paint19_linear_173_350)"/>
<path d="M1560.71 575.48L1544.14 596.634L1571.67 596.889L1575.23 575.48H1560.71Z" fill="url(#paint20_linear_173_350)"/>
<path d="M1525.54 596.89L1549.49 589.754H1576L1612.7 596.89H1525.54Z" fill="url(#paint21_linear_173_350)"/>
<path d="M1688.39 575.48L1686.6 576.245L1478.38 577.519L1474.05 575.48H1688.39Z" fill="url(#paint22_linear_173_350)"/>
<path opacity="0.8" d="M1555.61 451.874L1638.69 575.483H1654.75L1646.85 450.854L1555.61 451.874Z" fill="url(#paint23_linear_173_350)"/>
<path opacity="0.8" d="M1501.57 452.638L1623.4 575.482H1627.22L1547.7 452.638H1501.57Z" fill="url(#paint24_linear_173_350)"/>
<path d="M1562.75 530.372C1567.25 530.372 1570.9 526.036 1570.9 520.687C1570.9 515.338 1567.25 511.002 1562.75 511.002C1558.24 511.002 1554.59 515.338 1554.59 520.687C1554.59 526.036 1558.24 530.372 1562.75 530.372Z" fill="#FFFDFD"/>
<path d="M1562.75 539.801C1571.76 539.801 1579.06 531.243 1579.06 520.686C1579.06 510.129 1571.76 501.571 1562.75 501.571C1553.74 501.571 1546.44 510.129 1546.44 520.686C1546.44 531.243 1553.74 539.801 1562.75 539.801Z" fill="url(#paint25_radial_173_350)"/>
<path opacity="0.3" d="M1552.29 586.186L1574.21 581.853L1574.97 577.011H1559.43L1552.29 586.186Z" fill="url(#paint26_linear_173_350)"/>
<path opacity="0.8" d="M1540.06 452.383L1475.83 453.912L1671.31 454.422L1670.8 450.599L1540.06 452.383Z" fill="url(#paint27_linear_173_350)"/>
<path d="M1670.8 450.599L1673.86 452.128L1688.39 575.482L1686.61 576.246L1670.8 450.599Z" fill="url(#paint28_linear_173_350)"/>
<path d="M1687.38 699.855C1687.38 699.855 1675.91 645.824 1684.83 608.359L1773.78 610.398C1773.78 610.398 1777.6 610.653 1777.09 612.437C1776.58 613.966 1773.78 613.712 1773.78 613.712L1692.73 612.947C1692.73 612.947 1684.07 650.922 1698.08 701.384L1687.38 699.855Z" fill="url(#paint29_linear_173_350)"/>
<path d="M1682.79 610.143L1775.31 610.653C1775.31 610.653 1776.84 600.968 1775.31 591.283H1686.36C1686.36 591.283 1682.79 598.929 1682.79 610.143Z" fill="url(#paint30_linear_173_350)"/>
<path opacity="0.8" d="M1682.79 610.143L1695.28 610.398C1695.28 610.398 1696.3 597.91 1699.1 595.361C1701.91 592.812 1775.31 591.283 1775.31 591.283H1686.36C1686.36 591.283 1683.81 596.635 1682.79 610.143Z" fill="url(#paint31_linear_173_350)"/>
<path d="M1698.08 701.13H1701.4C1701.4 701.13 1686.36 660.097 1695.03 612.692H1692.48C1692.73 612.692 1683.05 647.864 1698.08 701.13Z" fill="url(#paint32_linear_173_350)"/>
<path d="M1839.02 466.91C1839.02 466.91 1861.7 457.735 1884.89 479.653C1884.89 479.653 1896.11 493.926 1894.07 504.63C1891.78 515.589 1851.76 502.336 1851.76 502.336L1839.02 466.91Z" fill="url(#paint33_linear_173_350)"/>
<path d="M1752.88 669.271C1752.88 669.271 1760.52 542.859 1785.76 491.122C1785.76 491.122 1848.45 478.633 1897.13 491.122C1897.13 491.122 1857.37 614.475 1849.22 714.127L1752.88 669.271Z" fill="url(#paint34_linear_173_350)"/>
<path d="M1797.48 810.465L1794.42 791.86L1760.52 816.072L1752.88 825.502H1768.94L1797.48 810.465Z" fill="url(#paint35_linear_173_350)"/>
<path d="M1765.62 825.502H1757.97V830.09H1765.62V825.502Z" fill="url(#paint36_linear_173_350)"/>
<path d="M1761.79 851.244C1768.41 851.244 1773.77 845.881 1773.77 839.266C1773.77 832.65 1768.41 827.287 1761.79 827.287C1755.18 827.287 1749.82 832.65 1749.82 839.266C1749.82 845.881 1755.18 851.244 1761.79 851.244Z" fill="url(#paint37_linear_173_350)"/>
<path d="M1758.99 847.676C1764.06 847.676 1768.17 843.569 1768.17 838.501C1768.17 833.434 1764.06 829.326 1758.99 829.326C1753.92 829.326 1749.82 833.434 1749.82 838.501C1749.82 843.569 1753.92 847.676 1758.99 847.676Z" fill="url(#paint38_linear_173_350)"/>
<path d="M1797.48 810.465L1801.05 792.37L1840.3 816.072L1847.94 825.502H1831.89L1797.48 810.465Z" fill="url(#paint39_linear_173_350)"/>
<path d="M1843.1 825.502H1835.45V830.09H1843.1V825.502Z" fill="url(#paint40_linear_173_350)"/>
<path d="M1839.02 851.244C1845.64 851.244 1851 845.881 1851 839.266C1851 832.65 1845.64 827.287 1839.02 827.287C1832.41 827.287 1827.04 832.65 1827.04 839.266C1827.04 845.881 1832.41 851.244 1839.02 851.244Z" fill="url(#paint41_linear_173_350)"/>
<path d="M1841.82 847.676C1846.89 847.676 1851 843.569 1851 838.501C1851 833.434 1846.89 829.326 1841.82 829.326C1836.76 829.326 1832.65 833.434 1832.65 838.501C1832.65 843.569 1836.76 847.676 1841.82 847.676Z" fill="url(#paint42_linear_173_350)"/>
<path d="M1786.01 801.801V698.581H1798.5L1801.05 801.801H1786.01Z" fill="url(#paint43_linear_173_350)"/>
<path d="M1793.66 812.504V790.841L1704.97 816.072L1697.32 825.502H1713.38L1793.66 812.504Z" fill="url(#paint44_linear_173_350)"/>
<path d="M1793.66 812.504V790.841L1884.13 816.072L1891.78 825.502H1875.72L1793.66 812.504Z" fill="url(#paint45_linear_173_350)"/>
<path d="M1710.06 825.502H1702.41V830.09H1710.06V825.502Z" fill="url(#paint46_linear_173_350)"/>
<path d="M1706.24 851.244C1712.85 851.244 1718.22 845.881 1718.22 839.266C1718.22 832.65 1712.85 827.287 1706.24 827.287C1699.62 827.287 1694.26 832.65 1694.26 839.266C1694.26 845.881 1699.62 851.244 1706.24 851.244Z" fill="url(#paint47_linear_173_350)"/>
<path d="M1709.04 849.714C1714.11 849.714 1718.22 845.607 1718.22 840.539C1718.22 835.472 1714.11 831.364 1709.04 831.364C1703.98 831.364 1699.87 835.472 1699.87 840.539C1699.87 845.607 1703.98 849.714 1709.04 849.714Z" fill="url(#paint48_linear_173_350)"/>
<path d="M1887.19 825.502H1879.54V830.09H1887.19V825.502Z" fill="url(#paint49_linear_173_350)"/>
<path d="M1883.37 851.244C1889.98 851.244 1895.34 845.881 1895.34 839.266C1895.34 832.65 1889.98 827.287 1883.37 827.287C1876.75 827.287 1871.39 832.65 1871.39 839.266C1871.39 845.881 1876.75 851.244 1883.37 851.244Z" fill="url(#paint50_linear_173_350)"/>
<path d="M1885.92 849.714C1890.98 849.714 1895.09 845.607 1895.09 840.539C1895.09 835.472 1890.98 831.364 1885.92 831.364C1880.85 831.364 1876.74 835.472 1876.74 840.539C1876.74 845.607 1880.85 849.714 1885.92 849.714Z" fill="url(#paint51_linear_173_350)"/>
<path opacity="0.5" d="M1810.48 795.429L1815.07 810.975L1877 823.718L1891.78 825.502H1875.72L1799.77 813.269L1801.05 792.37L1810.48 795.429Z" fill="url(#paint52_linear_173_350)"/>
<path opacity="0.5" d="M1781.93 793.39V810.975L1712.61 824.483L1697.32 825.502H1713.38L1787.54 813.269L1786.01 792.37L1781.93 793.39Z" fill="url(#paint53_linear_173_350)"/>
<path opacity="0.5" d="M1787.29 698.581L1787.54 789.822H1791.87L1789.58 698.581H1787.29Z" fill="url(#paint54_linear_173_350)"/>
<path opacity="0.5" d="M1704.97 816.072H1713.63L1709.3 824.738L1697.32 825.502L1704.97 816.072Z" fill="url(#paint55_linear_173_350)"/>
<path opacity="0.5" d="M1793.66 698.581L1797.48 791.861L1799.77 791.606L1794.68 698.581H1793.66Z" fill="url(#paint56_linear_173_350)"/>
<path d="M1778.88 829.326H1771.23V833.914H1778.88V829.326Z" fill="url(#paint57_linear_173_350)"/>
<path d="M1786.01 792.37L1769.95 830.345H1779.89L1800.79 792.37C1801.05 792.37 1794.17 790.586 1786.01 792.37Z" fill="url(#paint58_linear_173_350)"/>
<path d="M1766.13 833.913C1766.13 833.913 1775.56 832.129 1784.73 834.168L1783.46 854.557C1783.46 854.557 1772.75 856.341 1767.4 854.812C1765.36 847.166 1764.6 842.069 1766.13 833.913Z" fill="url(#paint59_linear_173_350)"/>
<path opacity="0.5" d="M1787.54 793.39H1797.48L1776.58 827.286H1771.23L1787.54 793.39Z" fill="url(#paint60_linear_173_350)"/>
<path opacity="0.5" d="M1766.13 833.912C1766.13 833.912 1778.88 834.422 1781.93 837.226L1783.21 854.556L1784.48 834.167C1784.74 834.167 1779.64 832.638 1766.13 833.912Z" fill="url(#paint61_linear_173_350)"/>
<path d="M1784.74 834.168C1781.17 832.639 1781.68 854.047 1783.46 854.557C1785.5 854.557 1789.32 835.952 1784.74 834.168Z" fill="url(#paint62_linear_173_350)"/>
<path d="M1782.7 751.337L1781.93 793.389H1804.11L1802.83 751.337H1782.7Z" fill="url(#paint63_linear_173_350)"/>
<path opacity="0.5" d="M1783.71 754.141V791.351H1791.36L1789.58 755.415L1783.71 754.141Z" fill="url(#paint64_linear_173_350)"/>
<path opacity="0.5" d="M1801.05 754.141L1797.48 755.16L1799.26 789.821L1801.05 790.841V754.141Z" fill="url(#paint65_linear_173_350)"/>
<path d="M1897.39 491.121C1897.39 491.121 1901.97 492.395 1910.13 504.374C1910.13 504.374 1877.76 621.866 1868.84 714.126H1849.47C1849.47 714.126 1862.47 569.874 1897.39 491.121Z" fill="url(#paint66_linear_173_350)"/>
<path d="M1654.76 668.761C1654.76 668.761 1622.13 683.288 1622.13 714.127H1864.76C1864.76 714.127 1870.11 683.543 1863.74 669.271C1863.49 669.271 1709.3 665.448 1654.76 668.761Z" fill="url(#paint67_linear_173_350)"/>
<path opacity="0.5" d="M1622.13 714.128C1622.13 714.128 1770.46 712.344 1779.89 710.56C1779.89 710.56 1789.32 687.877 1782.95 667.998L1863.49 669.527C1863.49 669.527 1871.9 691.445 1864.51 714.383H1622.13V714.128Z" fill="url(#paint68_linear_173_350)"/>
<path d="M1852.79 669.016L1752.88 669.271C1752.88 669.271 1753.9 667.486 1755.68 664.173C1764.86 646.333 1797.99 567.58 1809.71 487.553C1809.71 487.553 1846.41 443.207 1874.19 479.143C1875.98 481.691 1878.02 484.495 1879.8 487.808C1879.8 487.808 1822.71 553.563 1852.79 669.016Z" fill="url(#paint69_linear_173_350)"/>
<path opacity="0.5" d="M1872.15 682.015L1853.8 660.862C1853.8 660.862 1777.6 652.706 1753.13 667.488L1861.45 670.292C1861.45 670.292 1871.39 684.564 1864.76 714.128H1869.1L1872.15 682.015Z" fill="url(#paint70_linear_173_350)"/>
<path opacity="0.8" d="M1629.02 690.68C1629.02 690.68 1656.54 673.604 1697.57 673.094C1738.61 672.585 1787.03 681.76 1787.03 681.76C1787.03 681.76 1830.36 670.291 1863.49 669.017L1654.5 668.252C1654.76 668.762 1634.62 677.937 1629.02 690.68Z" fill="url(#paint71_linear_173_350)"/>
<path d="M1829.08 694.503L1822.46 696.032V701.129H1839.28L1829.08 694.503Z" fill="url(#paint72_linear_173_350)"/>
<path opacity="0.8" d="M1840.55 652.704C1812.51 664.938 1756.95 664.428 1755.68 664.428C1764.85 646.588 1797.99 567.835 1809.71 487.808C1809.71 487.808 1846.41 443.462 1874.19 479.397C1823.98 546.936 1840.55 652.704 1840.55 652.704Z" fill="url(#paint73_linear_173_350)"/>
<path d="M1827.29 701.13C1827.29 701.13 1815.31 645.824 1823.98 608.359L1893.3 610.398C1893.3 610.398 1897.12 610.653 1896.61 612.437C1896.11 613.966 1893.3 613.712 1893.3 613.712L1836.21 612.947C1836.21 612.947 1827.55 650.922 1841.56 701.384H1827.29V701.13Z" fill="url(#paint74_linear_173_350)"/>
<path d="M1822.46 610.143L1895.35 610.653C1895.35 610.653 1896.88 600.968 1895.35 591.283H1826.03C1825.77 591.283 1822.2 598.929 1822.46 610.143Z" fill="url(#paint75_linear_173_350)"/>
<path opacity="0.8" d="M1822.46 610.143L1839.28 610.398C1839.28 610.398 1840.3 597.91 1843.1 595.361C1845.9 592.812 1895.09 591.283 1895.09 591.283H1825.77C1825.77 591.283 1823.22 596.635 1822.46 610.143Z" fill="url(#paint76_linear_173_350)"/>
<path d="M1841.83 701.13H1845.14C1845.14 701.13 1830.1 660.097 1838.77 612.692H1836.22C1836.47 612.692 1826.79 647.864 1841.83 701.13Z" fill="url(#paint77_linear_173_350)"/>
<path opacity="0.8" d="M1821.18 628.239L1833.41 639.963C1833.41 639.963 1833.67 664.175 1836.22 675.134L1822.46 668.508C1822.46 668.762 1819.91 640.728 1821.18 628.239Z" fill="url(#paint78_linear_173_350)"/>
<path opacity="0.8" d="M1682.02 624.67L1689.92 630.787C1689.92 630.787 1688.9 652.195 1690.43 661.88L1681.51 654.744C1681.77 654.744 1681.77 628.238 1682.02 624.67Z" fill="url(#paint79_linear_173_350)"/>
<path opacity="0.5" d="M1786.01 720.245L1799.01 724.577L1798.75 714.128H1786.01V720.245Z" fill="url(#paint80_linear_173_350)"/>
<path opacity="0.8" d="M1801.05 488.827L1792.38 494.179C1792.38 494.179 1763.33 578.029 1756.19 630.786C1756.19 630.786 1765.11 538.016 1785.76 491.121L1801.05 488.827Z" fill="url(#paint81_linear_173_350)"/>
<path opacity="0.3" d="M1862.72 618.298L1878.78 643.275L1884.64 613.456H1863.49L1862.72 618.298Z" fill="url(#paint82_linear_173_350)"/>
<path d="M1129.48 859.653H1638.95L1624.68 619.827H1132.28L1129.48 859.653Z" fill="url(#paint83_linear_173_350)"/>
<path d="M1070.6 620.593L1069.84 595.616H1646.09L1662.4 859.654H1638.95L1624.17 619.828L1070.6 620.593Z" fill="url(#paint84_linear_173_350)"/>
<path d="M1662.4 859.654H1791.87L1773.77 600.713L1646.09 595.616L1662.4 859.654Z" fill="url(#paint85_linear_173_350)"/>
<g opacity="0.2">
<path opacity="0.2" d="M1202.11 801.034C1158.53 801.034 1130.75 799.76 1130.24 799.505V797.721C1131.77 797.721 1273.99 804.857 1420.02 786.507C1566.31 768.157 1634.87 766.628 1635.64 766.628V768.412C1634.87 768.412 1566.57 769.941 1420.28 788.291C1338.21 798.741 1257.67 801.034 1202.11 801.034Z" fill="#B6616D"/>
</g>
<g opacity="0.2">
<path opacity="0.2" d="M1638.95 860.674C1545.42 860.674 1337.2 842.578 1334.9 823.464C1334.39 819.896 1340 816.837 1352.23 814.034C1435.57 794.409 1634.88 783.195 1636.92 783.195V784.979C1634.88 784.979 1435.83 796.193 1352.74 815.818C1338.22 819.131 1336.94 822.189 1336.94 823.209C1338.73 839.52 1538.03 858.89 1638.95 858.89V860.674Z" fill="#B6616D"/>
</g>
<g opacity="0.2">
<path opacity="0.2" d="M1638.7 851.497C1622.9 849.968 1483.74 835.441 1479.92 823.717C1479.66 823.207 1479.66 822.188 1480.94 820.913C1493.94 809.19 1629.78 799.505 1635.64 798.995L1635.89 800.779C1634.37 800.779 1494.96 810.974 1482.47 822.188C1481.96 822.697 1481.96 822.697 1482.21 822.952C1484.76 830.853 1577.79 843.086 1639.46 849.458L1638.7 851.497Z" fill="#B6616D"/>
</g>
<g opacity="0.2">
<path opacity="0.2" d="M1399.12 860.418C1398.87 860.418 1377.46 847.42 1305.08 826.266C1232.95 805.113 1131.26 811.994 1130.24 811.994V810.21C1131.26 810.21 1233.21 803.328 1305.84 824.482C1378.22 845.891 1399.89 858.634 1400.14 858.889L1399.12 860.418Z" fill="#B6616D"/>
</g>
<g opacity="0.2">
<path opacity="0.2" d="M1294.88 860.417C1225.56 824.227 1131.26 835.441 1130.5 835.695L1130.24 833.911C1131.26 833.911 1225.82 822.443 1295.65 858.888L1294.88 860.417Z" fill="#B6616D"/>
</g>
<g opacity="0.2">
<path opacity="0.2" d="M1417.98 754.394C1327.76 754.394 1223.52 751.336 1134.06 740.632L1134.32 738.848C1342.03 763.824 1631.3 747.258 1634.1 747.003V748.787C1632.57 749.042 1537.77 754.394 1417.98 754.394Z" fill="#B6616D"/>
</g>
<g opacity="0.2">
<path opacity="0.2" d="M1452.14 744.455C1327.51 744.455 1144.01 729.418 1132.79 728.653L1133.05 726.869C1137.12 727.124 1542.36 760.256 1564.02 729.928C1564.78 728.653 1565.04 727.379 1564.28 725.85C1551.28 696.031 1136.11 653.978 1132.03 653.469L1132.28 651.685C1149.36 653.469 1552.81 694.502 1566.06 725.085C1567.08 727.124 1566.82 729.163 1565.55 730.947C1558.16 741.142 1511.77 744.455 1452.14 744.455Z" fill="#B6616D"/>
</g>
<g opacity="0.2">
<path opacity="0.2" d="M1301.51 726.361C1235.5 726.361 1137.12 713.618 1131.01 712.854L1131.26 711.07C1133.3 711.324 1342.8 738.34 1358.35 715.147C1359.37 713.618 1359.62 712.089 1358.86 710.56C1346.88 685.583 1133.3 665.449 1131.26 665.194L1131.52 663.41C1140.44 664.175 1348.41 683.799 1360.64 709.795C1361.66 711.834 1361.4 714.128 1360.13 716.167C1354.78 723.813 1331.59 726.361 1301.51 726.361Z" fill="#B6616D"/>
</g>
<g opacity="0.2">
<path opacity="0.2" d="M1512.54 661.115C1476.86 661.115 1434.04 660.096 1386.12 657.037C1243.15 647.607 1133.3 636.648 1132.28 636.393L1132.54 634.609C1133.56 634.609 1243.4 645.823 1386.38 655.253C1529.36 664.683 1626.72 655.253 1627.74 655.253L1627.99 657.037C1626.97 657.037 1583.39 661.115 1512.54 661.115Z" fill="#B6616D"/>
</g>
<g opacity="0.2">
<path opacity="0.2" d="M1562.74 637.668C1504.63 637.668 1411.61 634.865 1303.8 620.593L1304.06 618.809C1486.28 642.766 1625.44 634.61 1626.97 634.355V636.139C1626.46 636.394 1602.76 637.668 1562.74 637.668Z" fill="#B6616D"/>
</g>
<g opacity="0.2">
<path opacity="0.2" d="M1282.14 717.696C1277.56 717.696 1272.97 717.441 1268.64 716.931C1249.78 715.147 1216.39 703.933 1215.62 699.091C1215.37 698.326 1215.88 697.561 1216.64 697.307C1233.72 688.641 1269.66 693.993 1289.28 700.875C1294.12 702.659 1299.98 705.207 1301.26 708.011C1302.28 710.559 1301.77 712.344 1301 713.363C1298.46 716.676 1290.55 717.696 1282.14 717.696ZM1217.41 698.836C1219.19 701.894 1247.23 713.108 1268.64 715.147C1285.46 716.676 1296.67 715.657 1299.22 712.089C1299.98 711.069 1299.98 710.05 1299.22 708.775C1298.97 708.266 1297.44 705.972 1288.52 702.659C1269.4 695.777 1233.98 690.68 1217.41 698.836Z" fill="#B6616D"/>
</g>
<g opacity="0.2">
<path opacity="0.2" d="M1406.77 832.383C1392.24 832.383 1373.12 829.07 1371.85 826.012C1371.6 825.502 1371.85 824.737 1372.36 824.228C1384.08 815.307 1411.35 814.798 1425.88 817.092C1431.23 818.111 1434.55 819.13 1435.57 820.66C1436.84 822.444 1436.59 823.973 1436.08 824.737C1434.29 828.306 1426.65 830.599 1412.88 831.874C1411.1 832.383 1409.06 832.383 1406.77 832.383ZM1373.89 825.502C1376.69 827.541 1397.85 831.619 1412.88 830.344C1430.47 828.815 1433.78 825.502 1434.55 824.228C1434.8 823.718 1435.06 823.208 1434.29 821.934C1433.78 821.169 1431.23 819.895 1425.88 819.13C1411.1 816.582 1385.1 817.601 1373.89 825.502ZM1373.12 824.992L1373.63 825.757L1373.12 824.992Z" fill="#B6616D"/>
</g>
<g opacity="0.2">
<path opacity="0.2" d="M1421.81 669.015C1326.49 669.015 1216.13 663.408 1132.03 643.019L1132.54 641.235C1316.55 685.582 1624.68 659.331 1627.74 659.076L1627.99 660.86C1626.21 661.115 1534.46 669.015 1421.81 669.015Z" fill="#B6616D"/>
</g>
<path opacity="0.2" d="M1129.48 859.654L1138.4 850.733L1638.69 855.576L1638.95 859.654H1129.48Z" fill="url(#paint86_linear_173_350)"/>
<path opacity="0.2" d="M1129.48 859.653L1138.4 850.733V620.592L1132.28 619.827L1129.48 859.653Z" fill="url(#paint87_linear_173_350)"/>
<path opacity="0.47" d="M1132.03 647.862L1601.74 667.487L1632.07 859.653H1638.95L1624.68 619.827H1132.28L1132.03 647.862Z" fill="url(#paint88_linear_173_350)"/>
<g opacity="0.2">
<path opacity="0.2" d="M1086.66 620.593L1085.9 618.809C1086.15 618.554 1122.6 601.988 1228.11 597.4V599.184C1123.11 604.027 1086.92 620.593 1086.66 620.593Z" fill="#B6616D"/>
</g>
<g opacity="0.2">
<path opacity="0.2" d="M1198.04 620.591L1197.02 619.062C1235.76 596.889 1308.14 596.124 1308.9 596.124V597.908C1308.39 597.908 1236.27 598.673 1198.04 620.591Z" fill="#B6616D"/>
</g>
<g opacity="0.2">
<path opacity="0.2" d="M1309.16 620.593L1308.9 618.809C1310.94 618.554 1511.26 597.146 1589.76 597.655V599.439C1511.52 598.93 1311.2 620.593 1309.16 620.593Z" fill="#B6616D"/>
</g>
<path opacity="0.2" d="M1131.01 749.043L1219.45 746.75L1131.26 739.868L1131.01 749.043Z" fill="url(#paint89_linear_173_350)"/>
<path opacity="0.2" d="M1635.63 797.468L1568.09 806.133L1635.63 804.859V797.468Z" fill="url(#paint90_linear_173_350)"/>
<path opacity="0.2" d="M1378.48 684.052C1378.48 684.052 1520.69 707.754 1534.97 712.596C1534.97 712.596 1499.29 695.011 1378.48 684.052Z" fill="url(#paint91_linear_173_350)"/>
<path opacity="0.2" d="M1378.48 859.654C1378.48 859.654 1349.17 843.087 1330.05 837.226C1330.05 837.226 1384.09 852.008 1396.06 859.654H1378.48Z" fill="url(#paint92_linear_173_350)"/>
<g opacity="0.2">
<path opacity="0.2" d="M1658.06 798.232L1657.81 797.723C1638.44 748.534 1623.4 621.102 1623.15 619.828L1624.93 619.573C1625.19 620.848 1639.97 747.005 1659.08 796.193C1667.24 795.684 1747.78 786.763 1778.61 683.799L1780.4 684.308C1747.78 793.645 1659.59 798.232 1658.57 798.232H1658.06Z" fill="#B6616D"/>
</g>
<g opacity="0.2">
<path opacity="0.2" d="M1704.96 765.098C1701.39 765.098 1697.82 764.334 1694.51 763.059C1662.91 749.297 1645.83 601.986 1645.32 595.869L1647.1 595.614C1647.36 597.143 1664.69 748.277 1695.27 761.53C1703.43 765.098 1713.11 763.824 1723.05 758.217C1749.05 743.435 1772.24 703.166 1777.08 664.682L1778.87 664.937C1774.03 703.931 1750.32 744.709 1723.82 760.001C1717.45 763.314 1711.07 765.098 1704.96 765.098Z" fill="#B6616D"/>
</g>
<g opacity="0.2">
<path opacity="0.2" d="M1717.19 669.779C1715.4 669.779 1713.87 669.525 1712.09 669.015C1679.72 660.35 1671.57 599.692 1671.31 596.889L1673.1 596.634C1673.1 597.144 1681.25 658.82 1712.6 667.231C1717.7 668.505 1722.54 667.741 1726.87 664.682C1746.75 651.429 1754.14 600.202 1754.14 599.692L1755.93 599.947C1755.67 601.986 1748.54 652.449 1727.89 666.211C1724.32 668.76 1720.76 669.779 1717.19 669.779Z" fill="#B6616D"/>
</g>
<g opacity="0.2">
<path opacity="0.2" d="M1720 610.141C1703.18 610.141 1685.34 597.908 1685.08 597.653L1686.1 596.124C1686.36 596.379 1722.8 621.355 1739.37 598.928L1740.9 599.947C1735.29 607.593 1727.64 610.141 1720 610.141Z" fill="#B6616D"/>
</g>
<g opacity="0.2">
<path opacity="0.2" d="M1712.1 859.909L1710.31 859.399C1710.57 858.379 1735.03 753.631 1780.91 711.833L1782.18 713.107C1736.56 754.65 1712.35 858.889 1712.1 859.909Z" fill="#B6616D"/>
</g>
<g opacity="0.2">
<path opacity="0.2" d="M1745.48 859.653C1745.48 858.888 1742.17 791.35 1782.94 742.926L1784.47 744.2C1743.95 792.114 1747.26 859.143 1747.26 859.653H1745.48Z" fill="#B6616D"/>
</g>
<path opacity="0.5" d="M1791.87 859.653L1657.81 596.889L1773.77 600.712L1791.87 859.653Z" fill="url(#paint93_linear_173_350)"/>
<path d="M1277.05 504.119L1338.72 589.498C1338.72 589.498 1343.57 593.321 1346.12 591.027C1350.45 587.204 1347.39 582.107 1347.39 582.107L1284.69 499.276C1284.69 499.276 1281.38 496.473 1278.58 498.766C1276.28 500.805 1277.05 504.119 1277.05 504.119Z" fill="url(#paint94_linear_173_350)"/>
<path d="M1277.3 505.394L1338.97 590.263C1338.97 590.263 1342.29 593.321 1345.09 591.537C1347.89 589.753 1345.35 585.166 1345.35 585.166L1281.89 501.061C1281.89 501.061 1279.59 499.022 1277.55 500.551C1275.77 502.08 1277.3 505.394 1277.3 505.394Z" fill="url(#paint95_linear_173_350)"/>
<path d="M1357.83 435.562L1312.47 426.132C1312.47 426.132 1308.14 426.132 1309.16 434.033L1355.03 444.737L1357.83 435.562Z" fill="url(#paint96_linear_173_350)"/>
<path d="M1312.47 426.132H1318.33L1360.38 434.033L1356.56 435.562L1312.47 426.132Z" fill="url(#paint97_linear_173_350)"/>
<path d="M1371.09 489.846C1371.09 489.846 1352.99 479.907 1354.01 443.716L1355.03 438.109C1355.03 438.109 1378.22 406.761 1410.84 411.858L1371.09 489.846Z" fill="url(#paint98_linear_173_350)"/>
<path d="M1420.02 444.736C1418.74 450.598 1416.45 456.714 1413.14 462.576C1401.67 483.985 1382.81 495.963 1371.08 489.592C1367.01 487.553 1364.46 483.475 1363.18 478.378C1361.91 473.28 1361.91 466.909 1363.18 460.028C1363.18 460.028 1363.18 460.027 1363.18 459.773C1363.44 459.008 1363.44 458.243 1363.69 457.224C1364.97 451.362 1367.26 445.5 1370.57 439.384C1373.38 434.031 1376.69 429.444 1380.26 425.366C1384.34 420.524 1388.92 416.701 1393.51 414.152C1400.39 410.074 1407.53 409.055 1412.88 412.113C1421.04 417.21 1423.33 429.954 1420.02 444.736Z" fill="url(#paint99_linear_173_350)"/>
<path d="M1391.47 439.893C1393 449.578 1386.38 459.008 1376.69 460.537C1371.85 461.302 1367.26 460.028 1363.44 457.479C1364.71 451.617 1367.01 445.755 1370.32 439.639C1373.12 434.286 1376.44 429.699 1380 425.621C1385.87 428.17 1390.45 433.267 1391.47 439.893Z" fill="white"/>
<path opacity="0.8" d="M1364.46 462.576L1369.81 487.043C1369.81 487.043 1377.2 491.376 1389.18 485.259L1373.13 463.341C1373.38 463.086 1365.99 463.596 1364.46 462.576Z" fill="url(#paint100_linear_173_350)"/>
<path opacity="0.8" d="M1375.17 462.831C1375.17 462.831 1379.25 462.321 1383.58 460.537L1399.89 478.123L1391.73 484.749L1375.17 462.831Z" fill="url(#paint101_linear_173_350)"/>
<path opacity="0.4" d="M1420.02 444.737C1420.02 444.737 1413.14 424.348 1391.73 429.445C1371.09 434.287 1363.95 457.735 1363.19 460.028C1363.44 459.264 1363.44 458.499 1363.7 457.48C1364.97 451.618 1367.27 445.756 1370.58 439.639C1373.38 434.287 1376.7 429.7 1380.26 425.622C1384.34 420.78 1388.93 416.957 1393.52 414.408C1400.4 410.33 1407.53 409.311 1412.89 412.369C1421.04 417.211 1423.34 429.955 1420.02 444.737Z" fill="url(#paint102_linear_173_350)"/>
<path d="M1322.92 418.231L1279.08 513.804C1279.08 513.804 1278.06 519.921 1281.38 520.941C1286.98 522.98 1289.79 517.627 1289.79 517.627L1331.07 422.309C1331.07 422.309 1331.84 418.231 1328.52 416.956C1325.72 415.937 1322.92 418.231 1322.92 418.231Z" fill="url(#paint103_linear_173_350)"/>
<path d="M1322.16 419.25L1278.83 514.824C1278.83 514.824 1277.81 519.156 1280.87 520.685C1283.93 522.215 1286.48 517.882 1286.48 517.882L1328.27 421.034C1328.27 421.034 1329.04 417.976 1326.49 417.211C1324.2 416.192 1322.16 419.25 1322.16 419.25Z" fill="url(#paint104_linear_173_350)"/>
<path d="M1310.18 595.615L1311.96 581.598H1362.68L1365.23 595.615H1310.18Z" fill="url(#paint105_linear_173_350)"/>
<path d="M1362.67 581.598H1385.61L1387.39 595.615H1365.22L1362.67 581.598Z" fill="url(#paint106_linear_173_350)"/>
<path opacity="0.47" d="M1315.24 1097.18C1315.24 1085.21 1314.73 1067.37 1313.46 1054.11C1313.2 1049.53 1312.69 1045.45 1312.18 1042.39C1311.67 1039.08 1311.16 1036.78 1310.65 1036.02H1314.22L1311.67 961.343H1303.26H1286.18L1279.3 1010.28H1170.22L1163.34 961.343H1156.2H1134.54L1120.01 1009.26L520.321 1013.59L524.144 1013.33L510.636 961.343H497.129H484.64V1013.84L342.172 1014.86H347.779L330.958 961.343H321.018H302.668V1036.02H305.471H309.294C307.765 1038.06 309.04 1056.92 311.078 1074.5C311.333 1077.31 311.588 1080.11 312.098 1082.66C313.372 1093.87 314.901 1103.05 315.411 1104.83C315.411 1105.09 317.45 1105.34 321.018 1105.6C320.254 1106.1 319.744 1107.38 318.979 1109.16C318.979 1109.42 318.724 1109.67 318.724 1109.93C315.921 1121.14 316.94 1149.94 320.763 1150.71C323.312 1151.22 325.861 1151.73 328.664 1152.24L322.547 1158.1C322.292 1158.35 322.038 1158.35 322.038 1158.61C321.273 1160.39 321.783 1165.23 323.312 1172.37C326.115 1188.17 333.252 1208.05 341.917 1226.66C351.092 1247.3 362.816 1266.41 374.794 1274.57C377.853 1276.86 380.911 1278.14 383.46 1278.39C384.734 1278.39 386.263 1278.39 387.537 1278.39C402.574 1279.41 447.685 1281.96 498.658 1281.2C501.716 1295.47 510.636 1311.01 526.438 1316.62C559.315 1318.41 593.977 1315.86 621.247 1312.8C628.893 1312.03 636.794 1311.27 644.185 1310.25C645.459 1327.07 661.515 1350.77 685.472 1349.5C685.472 1349.5 747.149 1365.56 797.103 1337.01C800.161 1335.48 801.69 1334.46 801.69 1334.46C800.671 1334.97 799.651 1335.74 798.632 1336.25C801.435 1334.72 804.239 1332.93 806.787 1330.89C807.042 1330.64 807.552 1330.13 808.826 1328.86V1329.11L814.688 1322.74C832.019 1304.39 873.307 1257.24 898.028 1206.52C898.028 1206.52 895.734 1199.64 889.618 1189.7C886.559 1184.35 882.737 1179 879.168 1175.68C1029.54 1176.96 1151.11 1175.94 1154.93 1174.92C1154.93 1174.92 1293.58 1176.19 1309.12 1166.51C1309.63 1166 1310.14 1163.7 1310.65 1160.14C1311.42 1154.53 1311.67 1147.14 1311.42 1140C1311.42 1126.75 1310.91 1112.99 1309.38 1111.46C1311.16 1111.2 1312.44 1110.95 1312.69 1110.69C1313.46 1109.93 1313.71 1105.34 1313.71 1098.71C1313.71 1098.97 1313.71 1099.22 1313.71 1099.22C1313.71 1099.22 1315.24 1097.69 1315.24 1097.18Z" fill="url(#paint107_linear_173_350)"/>
<path opacity="0.47" d="M1621.08 1023.27L1620.57 1021.49C1620.06 1006.2 1619.29 991.162 1618.02 977.399C1618.02 976.635 1617.76 975.615 1617.76 974.85V961.343H1526.52L1339.96 964.146V974.85H1343.53C1342.77 975.87 1341.75 978.928 1340.98 983.261V983.516C1340.22 987.339 1339.45 992.181 1338.94 997.788C1334.61 1034.74 1332.32 1108.65 1340.22 1175.68C1340.22 1175.68 1492.63 1198.62 1618.02 1152.74C1618.02 1152.74 1622.35 1089.03 1620.82 1027.35L1621.08 1023.27Z" fill="url(#paint108_linear_173_350)"/>
<path d="M323.047 808.17L335.025 817.345L396.447 812.757L401.545 802.308L323.047 808.17Z" fill="url(#paint109_linear_173_350)"/>
<path d="M383.703 710.557C383.703 710.557 570.518 698.834 652.074 723.81C708.908 741.141 793.268 791.859 802.953 797.211L598.298 802.053L383.703 710.557Z" fill="url(#paint110_linear_173_350)"/>
<path d="M1310.65 802.054C1295.1 794.153 1156.45 795.173 1156.45 795.173V843.852L1310.9 846.91C1313.7 844.361 1313.7 803.583 1310.65 802.054Z" fill="url(#paint111_linear_173_350)"/>
<path d="M1156.45 840.793C1156.45 840.793 1311.66 845.381 1314.21 847.674C1317.02 849.713 1314.21 904.509 1310.65 907.822C1308.61 909.861 1156.45 907.822 1156.45 907.822V840.793Z" fill="url(#paint112_linear_173_350)"/>
<path d="M498.906 925.151L497.887 968.733H511.14L524.647 926.171L498.906 925.151Z" fill="url(#paint113_linear_173_350)"/>
<path d="M497.887 968.733H485.398V925.151L504.768 926.171L497.887 968.733Z" fill="url(#paint114_linear_173_350)"/>
<path d="M1156.45 968.733H1163.59L1170.47 928.974H1303L1303.25 968.733H1311.66L1314.21 907.82H1156.45V968.733Z" fill="url(#paint115_linear_173_350)"/>
<path d="M1303.25 968.734H1286.18L1279.55 928.976H1303L1303.25 968.734Z" fill="url(#paint116_linear_173_350)"/>
<path d="M321.523 968.733H331.463L348.284 925.151H335.031L321.523 968.733Z" fill="url(#paint117_linear_173_350)"/>
<path d="M309.795 907.822C306.737 904.763 314.128 855.32 315.912 851.752C317.441 847.929 1149.57 837.225 1156.45 840.793C1163.33 844.616 1159.25 904.508 1156.45 907.822C1153.65 911.135 309.795 907.822 309.795 907.822Z" fill="url(#paint118_linear_173_350)"/>
<path d="M323.052 808.171C319.483 800.27 351.341 717.185 383.709 710.813C416.077 704.187 598.304 802.054 598.304 802.054C598.304 802.054 326.874 816.072 323.052 808.171Z" fill="url(#paint119_linear_173_350)"/>
<path d="M323.047 808.169C323.047 808.169 440.539 804.601 587.85 787.525L802.954 797.465L328.909 809.953C328.909 809.698 324.576 809.444 323.047 808.169Z" fill="url(#paint120_linear_173_350)"/>
<path d="M526.18 803.838C526.18 803.838 432.39 734.26 396.454 737.064C357.46 740.122 348.285 808.935 348.285 808.935L350.579 807.916C350.579 807.916 359.754 745.729 390.338 740.887C425.254 735.535 486.931 804.857 486.931 804.857L526.18 803.838Z" fill="url(#paint121_linear_173_350)"/>
<path d="M321.522 850.987C316.17 848.693 316.934 815.051 321.522 814.287C464.5 791.349 1147.28 792.878 1156.45 794.917C1165.63 796.956 1161.55 838.244 1156.45 840.538C1151.36 843.086 321.522 850.987 321.522 850.987Z" fill="url(#paint122_linear_173_350)"/>
<path d="M319.227 846.91C647.745 846.4 874.573 849.713 1156.45 840.793L321.52 850.987C321.52 850.987 319.736 849.713 319.227 846.91Z" fill="url(#paint123_linear_173_350)"/>
<path opacity="0.8" d="M370.711 804.347C370.711 804.347 371.476 748.787 396.707 740.631C396.707 740.631 365.104 735.789 350.832 806.131L370.711 804.347Z" fill="url(#paint124_linear_173_350)"/>
<path opacity="0.8" d="M323.048 808.171C323.048 808.171 355.161 731.202 385.999 718.969C413.779 708.01 478.515 742.416 478.515 742.416C478.515 742.416 408.172 708.519 384.98 710.558C361.532 712.342 322.793 779.881 323.048 808.171Z" fill="url(#paint125_linear_173_350)"/>
<path opacity="0.47" d="M424.483 751.081C424.483 751.081 468.32 768.667 491.512 779.881C491.512 779.881 441.559 747.513 411.23 738.848C411.23 738.848 457.106 751.846 500.433 777.332C500.433 777.332 532.29 791.349 539.682 794.153C547.327 796.956 799.387 795.427 799.387 795.427C799.387 795.427 545.288 798.741 484.121 802.054C484.376 802.054 456.086 771.47 424.483 751.081Z" fill="url(#paint126_linear_173_350)"/>
<path opacity="0.47" d="M332.484 812.757C332.484 812.757 446.918 803.327 484.383 802.053L472.404 789.564C472.404 789.564 469.601 797.465 450.741 801.288C431.881 805.111 332.484 812.757 332.484 812.757Z" fill="url(#paint127_linear_173_350)"/>
<path opacity="0.8" d="M321.523 814.286C321.523 814.286 414.803 814.541 676.038 817.345C937.273 820.148 1156.46 794.917 1156.46 794.917C1156.46 794.917 612.322 792.623 321.523 814.286Z" fill="url(#paint128_linear_173_350)"/>
<path opacity="0.8" d="M315.918 851.752C315.918 851.752 343.188 873.925 543.511 879.532C752.753 885.394 1142.69 847.164 1142.69 847.164C1142.69 847.164 324.838 852.007 315.918 851.752Z" fill="url(#paint129_linear_173_350)"/>
<path opacity="0.3" d="M663.292 727.633C663.292 727.633 732.615 760.001 740.516 772.744C740.516 772.744 611.81 777.332 572.306 772.744C572.306 772.744 491.26 740.122 426.27 720.497C426.27 720.497 538.664 767.392 583.52 798.23L799.644 794.917C799.644 795.172 724.969 751.335 663.292 727.633Z" fill="url(#paint130_linear_173_350)"/>
<path opacity="0.3" d="M312.604 869.592C312.604 869.592 312.604 893.804 315.918 896.608C319.231 899.411 1108.8 919.036 1159 892.785C1159 892.785 1162.32 857.869 1160.28 850.732C1160.28 850.732 1170.22 888.452 1182.96 892.53C1182.96 892.53 1292.04 894.569 1303.26 887.178C1314.47 879.787 1315.24 856.594 1315.24 856.594C1315.24 856.594 1314.73 901.195 1310.65 907.312H309.801C309.801 907.822 310.056 885.139 312.604 869.592Z" fill="url(#paint131_linear_173_350)"/>
<path opacity="0.3" d="M1310.65 802.053C1310.65 802.053 1309.37 819.383 1300.96 831.362C1300.96 831.362 1226.03 843.34 1177.61 826.774C1177.61 826.774 1170.22 808.169 1160.28 799.759C1160.28 799.759 1164.61 824.735 1156.45 840.792L1310.9 846.908C1310.9 846.908 1315.74 813.267 1310.65 802.053Z" fill="url(#paint132_linear_173_350)"/>
<path d="M303.172 968.733V907.82H1156.45V968.733H1134.79L1120.26 929.738L342.676 925.151L321.522 968.733H303.172Z" fill="url(#paint133_linear_173_350)"/>
<path opacity="0.65" d="M305.977 907.82L309.29 921.073L697.956 922.093L705.347 909.349L305.977 907.82Z" fill="url(#paint134_linear_173_350)"/>
<path d="M468.574 849.203C468.574 849.203 693.873 844.87 799.641 840.028C905.155 835.186 1052.72 843.596 1052.72 843.596C1052.72 843.596 587.85 855.83 468.574 849.203Z" fill="url(#paint135_linear_173_350)"/>
<path d="M335.031 907.822C335.031 907.822 572.819 898.901 599.579 898.901C626.595 898.901 944.919 908.841 944.919 908.841L335.031 907.822Z" fill="url(#paint136_linear_173_350)"/>
<path opacity="0.3" d="M1156.45 840.793C1156.45 840.793 1164.35 860.672 1156.45 907.822C1156.45 907.822 1165.63 898.137 1167.92 872.906C1170.22 847.419 1156.45 840.793 1156.45 840.793Z" fill="url(#paint137_linear_173_350)"/>
<path opacity="0.3" d="M1160.27 831.107C1160.27 831.107 1163.08 809.698 1160.27 799.759C1160.27 799.759 1169.7 815.051 1160.27 831.107Z" fill="url(#paint138_linear_173_350)"/>
<path d="M650.807 760.51L499.928 724.064H489.988L618.694 797.975L755.046 794.916L650.807 760.51Z" fill="url(#paint139_linear_173_350)"/>
<path d="M799.652 754.903C799.652 754.903 796.084 775.801 786.144 793.897L655.909 794.406H635.52L654.635 754.648L528.223 678.698C528.223 678.698 621.757 677.424 679.866 688.893C681.905 690.167 752.502 715.654 799.652 754.903Z" fill="url(#paint140_linear_173_350)"/>
<path d="M499.931 724.064C495.598 710.811 504.263 686.089 527.711 678.953C527.711 678.953 610.541 704.949 664.062 754.902C664.062 754.902 646.987 785.741 635.008 794.661C635.263 794.661 504.773 739.356 499.931 724.064Z" fill="url(#paint141_linear_173_350)"/>
<path opacity="0.5" d="M664.318 754.902C664.318 754.902 721.152 767.646 799.65 754.902C799.65 754.902 789.965 786.505 786.143 793.896L635.518 794.661C635.264 794.661 652.594 778.095 664.318 754.902Z" fill="url(#paint142_linear_173_350)"/>
<path opacity="0.8" d="M527.961 678.952C527.961 678.952 548.35 704.693 576.64 731.454C604.93 758.215 664.313 754.901 664.313 754.901C664.313 754.901 612.321 708.261 527.961 678.952Z" fill="url(#paint143_linear_173_350)"/>
<path opacity="0.3" d="M799.653 754.902C799.653 754.902 796.085 775.801 786.145 793.896L655.91 794.406C740.015 794.661 760.659 770.194 760.659 770.194C708.412 765.606 664.321 754.902 664.321 754.902C664.321 754.902 730.33 756.177 729.056 736.807C727.782 717.692 681.142 690.167 679.612 689.402C681.906 690.167 752.503 715.653 799.653 754.902Z" fill="url(#paint144_linear_173_350)"/>
<path opacity="0.5" d="M635.262 794.661C635.262 794.661 629.91 763.313 664.317 754.902C664.317 754.902 645.712 787.525 635.262 794.661Z" fill="url(#paint145_linear_173_350)"/>
<path opacity="0.3" d="M615.379 718.966C615.379 718.966 577.914 694.245 558.29 686.599C558.29 686.599 616.908 681.756 673.743 688.128C673.743 688.128 596.264 675.894 527.961 678.953C527.961 678.953 571.797 696.793 615.379 718.966Z" fill="url(#paint146_linear_173_350)"/>
<path d="M695.914 794.918C695.914 794.918 698.973 777.842 700.247 759.492C700.247 759.492 662.527 713.871 648 691.188L740.006 754.904L750.2 796.957L695.914 794.918Z" fill="url(#paint147_linear_173_350)"/>
<path d="M899.807 769.43C899.807 769.43 895.219 781.664 879.673 795.426L750.202 797.21L781.295 766.117L686.996 652.448C686.996 652.448 757.083 637.666 808.311 667.74C810.095 669.014 868.204 716.674 899.807 769.43Z" fill="url(#paint148_linear_173_350)"/>
<path d="M645.711 685.58C645.966 671.817 662.278 651.174 686.999 652.448C686.999 652.448 756.577 704.44 790.474 769.43C790.474 769.43 764.223 792.877 749.95 797.21C749.95 797.21 645.457 701.636 645.711 685.58Z" fill="url(#paint149_linear_173_350)"/>
<path d="M675.531 725.084L671.453 686.344L711.467 696.794L701.017 663.407C701.017 663.407 733.895 671.817 759.636 682.267V658.055C759.636 658.055 777.476 664.681 810.354 682.267V669.269L816.215 674.366L817.999 691.442C817.999 691.442 787.161 674.111 766.517 665.446L768.046 696.539C768.046 696.539 748.932 685.07 716.564 676.405L721.661 708.772C721.661 708.772 699.233 699.852 679.354 696.794L685.471 735.278L675.531 725.084Z" fill="url(#paint150_linear_173_350)"/>
<path d="M729.308 778.095L722.172 752.863L765.244 758.215C765.244 758.215 762.95 736.552 759.637 721.77C759.637 721.77 781.3 727.632 810.354 739.61L806.786 714.634C806.786 714.634 830.998 719.221 858.524 734.513V716.163L865.66 724.064L869.228 749.55C869.228 749.55 864.131 741.394 818 725.083L822.588 754.647C822.588 754.647 797.357 740.885 768.047 731.965L776.203 772.997C776.203 772.997 752.755 764.077 732.366 761.274L739.503 788.034L729.308 778.095Z" fill="url(#paint151_linear_173_350)"/>
<path opacity="0.3" d="M790.48 769.175C790.48 769.175 821.319 755.158 899.562 769.175C899.562 769.175 889.112 789.055 879.427 795.171L749.957 796.955C749.957 797.21 771.875 787.016 790.48 769.175Z" fill="#BB4B48"/>
<path opacity="0.8" d="M686.996 652.448C686.996 652.448 697.7 683.287 715.541 718.203C733.381 752.864 790.471 769.43 790.471 769.43C790.471 769.43 757.083 708.008 686.996 652.448Z" fill="url(#paint152_linear_173_350)"/>
<path opacity="0.3" d="M899.811 769.43C899.811 769.43 891.4 783.192 879.676 795.426L761.93 796.955C864.13 788.544 877.128 779.369 877.128 779.369C830.233 764.078 790.474 769.43 790.474 769.43C790.474 769.43 833.801 747.766 839.153 728.906C844.251 710.556 809.334 669.014 808.315 667.739C810.099 669.014 868.208 716.673 899.811 769.43Z" fill="url(#paint153_linear_173_350)"/>
<path opacity="0.5" d="M749.957 797.211C749.957 797.211 755.309 765.862 790.48 769.43C790.48 769.176 762.19 793.897 749.957 797.211Z" fill="url(#paint154_linear_173_350)"/>
<path opacity="0.3" d="M756.319 718.968C756.319 718.968 729.049 683.287 712.992 669.524C712.992 669.524 751.476 639.705 802.959 664.682C802.959 664.682 761.671 641.999 686.996 652.449C686.996 652.449 722.677 683.797 756.319 718.968Z" fill="url(#paint155_linear_173_350)"/>
<path d="M1339.96 797.213C1339.96 797.213 1492.37 778.353 1617.76 815.818L1523.2 820.915C1523.2 820.915 1474.02 792.116 1339.96 797.213Z" fill="url(#paint156_linear_173_350)"/>
<path d="M1343.78 961.09C1337.41 954.209 1329.76 870.359 1340.21 796.959C1340.21 796.959 1445.47 789.058 1523.46 815.564C1523.46 815.564 1531.36 883.357 1523.46 960.836C1523.2 961.09 1348.88 966.697 1343.78 961.09Z" fill="url(#paint157_linear_173_350)"/>
<path d="M1523.2 815.817C1523.2 815.817 1591 810.465 1617.76 815.817C1617.76 815.817 1624.89 902.98 1617.76 961.089H1523.2C1523.2 961.089 1527.03 870.613 1523.2 815.817Z" fill="url(#paint158_linear_173_350)"/>
<path d="M1339.96 961.09V970.01L1526.77 972.304L1523.2 961.09H1339.96Z" fill="url(#paint159_linear_173_350)"/>
<path d="M1618.01 961.09V972.304H1523.2V961.09H1618.01Z" fill="url(#paint160_linear_173_350)"/>
<path opacity="0.3" d="M1523.2 815.818C1523.2 815.818 1534.93 902.472 1557.35 925.664C1557.35 925.664 1593.04 941.721 1606.29 940.956C1606.29 940.956 1618.27 863.223 1617.76 816.073C1617.76 816.073 1622.85 920.312 1617.76 961.345H1523.2C1523.2 961.09 1530.34 883.867 1523.2 815.818Z" fill="url(#paint161_linear_173_350)"/>
<path d="M1338.94 942.485C1338.94 942.485 1350.15 925.154 1365.44 910.372L1406.99 942.485L1444.96 910.372L1487.52 942.485L1524.99 910.372L1562.2 942.485L1586.15 910.372L1612.15 939.426L1620.31 910.372L1621.07 921.841L1612.41 951.15L1586.66 925.919L1562.96 954.718L1524.99 921.586L1491.35 954.718L1444.96 920.821L1408.01 954.718L1367.23 922.86C1367.23 922.86 1348.37 940.191 1341.23 954.718L1338.94 942.485Z" fill="url(#paint162_linear_173_350)"/>
<path d="M1335.12 877.495C1335.12 877.495 1350.15 856.596 1365.19 841.56L1406.73 873.672L1444.71 841.56L1487.27 873.672L1524.74 841.56L1561.95 873.672L1585.9 841.56L1611.9 870.614L1618.78 841.56L1620.05 856.087L1612.15 882.338L1586.41 857.106L1562.71 885.906L1524.74 852.774L1491.09 885.906L1444.71 852.009L1407.75 885.906L1366.98 854.048C1366.98 854.048 1342.76 874.182 1335.63 888.709L1335.12 877.495Z" fill="url(#paint163_linear_173_350)"/>
<path opacity="0.8" d="M1523.2 815.818C1523.2 815.818 1486.76 845.128 1473.51 893.042C1460.25 940.956 1479.88 961.345 1479.88 961.345H1523.2C1523.2 961.09 1527.03 866.026 1523.2 815.818Z" fill="url(#paint164_linear_173_350)"/>
<path opacity="0.65" d="M1344.55 963.639L1346.33 968.481L1427.89 970.265V963.384L1344.55 963.639Z" fill="url(#paint165_linear_173_350)"/>
<path d="M1634.32 0.169922L1636.44 232.733H1638.57V0.169922H1634.32Z" fill="url(#paint166_linear_173_350)"/>
<path d="M1666.22 178.914C1666.22 178.914 1655.77 153.428 1638.95 153.428C1622.38 153.428 1611.68 178.914 1611.68 178.914H1666.22Z" fill="url(#paint167_linear_173_350)"/>
<path d="M1737.07 259.706C1737.07 259.706 1699.1 167.955 1639.2 167.955C1579.31 167.955 1541.34 259.706 1541.34 259.706H1737.07Z" fill="url(#paint168_linear_173_350)"/>
<path d="M1638.95 274.743C1693 274.743 1736.82 268.011 1736.82 259.706C1736.82 251.401 1693 244.669 1638.95 244.669C1584.9 244.669 1541.08 251.401 1541.08 259.706C1541.08 268.011 1584.9 274.743 1638.95 274.743Z" fill="url(#paint169_linear_173_350)"/>
<path d="M1733.5 259.705C1733.5 267.351 1691.2 273.722 1638.95 273.722C1586.7 273.722 1544.39 267.606 1544.39 259.705C1544.39 253.079 1577.02 247.217 1620.09 245.942C1626.21 245.687 1632.58 245.688 1638.95 245.688C1647.1 245.688 1654.75 245.942 1662.4 246.197C1703.43 247.726 1733.5 253.333 1733.5 259.705Z" fill="url(#paint170_linear_173_350)"/>
<path d="M1661.38 246.197C1659.09 255.117 1650.93 261.744 1641.25 261.744C1631.56 261.744 1623.41 255.117 1621.11 246.197C1626.98 245.942 1633.09 245.942 1639.21 245.942C1646.85 245.942 1654.25 245.942 1661.38 246.197Z" fill="white"/>
<path opacity="0.8" d="M1541.08 259.706C1541.08 259.706 1541.08 245.688 1603.01 240.846C1603.01 240.846 1612.19 189.618 1634.36 168.21C1634.36 168.21 1582.37 178.404 1541.08 259.706Z" fill="url(#paint171_linear_173_350)"/>
<path opacity="0.8" d="M1606.84 240.846H1624.93C1624.93 240.846 1626.72 204.401 1639.2 167.955L1634.36 168.21C1634.36 168.21 1611.93 194.716 1606.84 240.846Z" fill="url(#paint172_linear_173_350)"/>
<path opacity="0.8" d="M1669.02 177.385C1669.02 177.385 1711.59 201.597 1728.92 253.844L1713.37 248.492C1713.37 248.492 1715.15 220.711 1669.02 177.385Z" fill="url(#paint173_linear_173_350)"/>
<defs>
<linearGradient id="paint0_linear_173_350" x1="959.996" y1="823.083" x2="959.996" y2="0" gradientUnits="userSpaceOnUse">
<stop stop-color="#D9D4F7"/>
<stop offset="1" stop-color="#FFE3D8"/>
</linearGradient>
<linearGradient id="paint1_linear_173_350" x1="959.996" y1="1023.41" x2="959.996" y2="814.417" gradientUnits="userSpaceOnUse">
<stop stop-color="#C94C31"/>
<stop offset="0.1068" stop-color="#D0583B"/>
<stop offset="0.4933" stop-color="#E7805C"/>
<stop offset="0.8002" stop-color="#F69970"/>
<stop offset="0.9872" stop-color="#FBA277"/>
</linearGradient>
<linearGradient id="paint2_linear_173_350" x1="198.625" y1="876.956" x2="1979.45" y2="876.956" gradientUnits="userSpaceOnUse">
<stop stop-color="#C26848"/>
<stop offset="1" stop-color="#C45472"/>
</linearGradient>
<linearGradient id="paint3_linear_173_350" x1="55.087" y1="952.296" x2="1979.45" y2="952.296" gradientUnits="userSpaceOnUse">
<stop stop-color="#C26848"/>
<stop offset="1" stop-color="#C45472"/>
</linearGradient>
<linearGradient id="paint4_linear_173_350" x1="272.794" y1="915.388" x2="378.91" y2="915.388" gradientUnits="userSpaceOnUse">
<stop stop-color="#C29CBD"/>
<stop offset="1" stop-color="#F6BDAE"/>
</linearGradient>
<linearGradient id="paint5_linear_173_350" x1="-59.457" y1="1010.81" x2="1422.1" y2="1010.81" gradientUnits="userSpaceOnUse">
<stop stop-color="#C29CBD"/>
<stop offset="1" stop-color="#F6BDAE"/>
</linearGradient>
<linearGradient id="paint6_linear_173_350" x1="272.794" y1="935.013" x2="1979.45" y2="935.013" gradientUnits="userSpaceOnUse">
<stop stop-color="#FFDDCE"/>
<stop offset="1" stop-color="#AE8386"/>
</linearGradient>
<linearGradient id="paint7_linear_173_350" x1="-59.457" y1="994.199" x2="1912.62" y2="994.199" gradientUnits="userSpaceOnUse">
<stop stop-color="#FFDDCE"/>
<stop offset="1" stop-color="#AE8386"/>
</linearGradient>
<linearGradient id="paint8_linear_173_350" x1="181.042" y1="866.756" x2="1979.45" y2="866.756" gradientUnits="userSpaceOnUse">
<stop stop-color="#FFDDCE"/>
<stop offset="1" stop-color="#AE8386"/>
</linearGradient>
<linearGradient id="paint9_linear_173_350" x1="-59.457" y1="957.563" x2="1979.45" y2="957.563" gradientUnits="userSpaceOnUse">
<stop/>
<stop offset="1" stop-color="#6B6D86"/>
</linearGradient>
<linearGradient id="paint10_linear_173_350" x1="378.91" y1="880.8" x2="1979.45" y2="880.8" gradientUnits="userSpaceOnUse">
<stop/>
<stop offset="1" stop-color="#6B6D86"/>
</linearGradient>
<linearGradient id="paint11_linear_173_350" x1="-59.457" y1="991.976" x2="490.813" y2="991.976" gradientUnits="userSpaceOnUse">
<stop stop-color="#6B6D86"/>
<stop offset="1"/>
</linearGradient>
<linearGradient id="paint12_linear_173_350" x1="-59.457" y1="924.292" x2="625.053" y2="924.292" gradientUnits="userSpaceOnUse">
<stop stop-color="#6B6D86"/>
<stop offset="1"/>
</linearGradient>
<radialGradient id="paint13_radial_173_350" cx="0" cy="0" r="1" gradientUnits="userSpaceOnUse" gradientTransform="translate(959.996 52.7943) scale(721.518 872.804)">
<stop stop-color="#BDCAE8"/>
<stop offset="1" stop-color="#C4B7E3"/>
</radialGradient>
<linearGradient id="paint14_linear_173_350" x1="-59.457" y1="91.9635" x2="1979.45" y2="91.9635" gradientUnits="userSpaceOnUse">
<stop offset="0.00793651" stop-color="#FFECE3"/>
<stop offset="0.2231" stop-color="#E0DCE3"/>
<stop offset="0.5723" stop-color="#B3C4E2"/>
<stop offset="0.8429" stop-color="#97B5E2"/>
<stop offset="1" stop-color="#8DB0E2"/>
</linearGradient>
<linearGradient id="paint15_linear_173_350" x1="-59.457" y1="819.359" x2="1979.45" y2="819.359" gradientUnits="userSpaceOnUse">
<stop offset="0.00793651" stop-color="#FFECE3"/>
<stop offset="0.2231" stop-color="#E0DCE3"/>
<stop offset="0.5723" stop-color="#B3C4E2"/>
<stop offset="0.8429" stop-color="#97B5E2"/>
<stop offset="1" stop-color="#8DB0E2"/>
</linearGradient>
<linearGradient id="paint16_linear_173_350" x1="959.996" y1="823.083" x2="959.996" y2="97.2725" gradientUnits="userSpaceOnUse">
<stop stop-color="#FFDDCE"/>
<stop offset="1" stop-color="#D84057"/>
</linearGradient>
<linearGradient id="paint17_linear_173_350" x1="959.996" y1="814.405" x2="959.996" y2="708.367" gradientUnits="userSpaceOnUse">
<stop stop-color="#E58190"/>
<stop offset="1" stop-color="#FFF2EC"/>
</linearGradient>
<linearGradient id="paint18_linear_173_350" x1="1490" y1="1340.94" x2="1490" y2="835.515" gradientUnits="userSpaceOnUse">
<stop stop-color="#FFFEFE"/>
<stop offset="0.3832" stop-color="#FEFCFC"/>
<stop offset="0.5212" stop-color="#FCF5F7"/>
<stop offset="0.6196" stop-color="#F7E9ED"/>
<stop offset="0.6992" stop-color="#F1D9DE"/>
<stop offset="0.7674" stop-color="#E9C3CC"/>
<stop offset="0.8277" stop-color="#DEA7B5"/>
<stop offset="0.8823" stop-color="#D2879A"/>
<stop offset="0.9325" stop-color="#C4617A"/>
<stop offset="0.9772" stop-color="#B43857"/>
<stop offset="1" stop-color="#AB2043"/>
</linearGradient>
<linearGradient id="paint19_linear_173_350" x1="1461.69" y1="513.036" x2="1688.49" y2="513.036" gradientUnits="userSpaceOnUse">
<stop stop-color="#BFC2BB"/>
<stop offset="1" stop-color="#6D8597"/>
</linearGradient>
<linearGradient id="paint20_linear_173_350" x1="1559.79" y1="596.944" x2="1559.79" y2="575.388" gradientUnits="userSpaceOnUse">
<stop stop-color="#748B97"/>
<stop offset="1" stop-color="#3D6381"/>
</linearGradient>
<linearGradient id="paint21_linear_173_350" x1="1569.11" y1="596.945" x2="1569.11" y2="589.723" gradientUnits="userSpaceOnUse">
<stop stop-color="#A6BDC9"/>
<stop offset="1" stop-color="#596F91"/>
</linearGradient>
<linearGradient id="paint22_linear_173_350" x1="1474" y1="576.457" x2="1688.49" y2="576.457" gradientUnits="userSpaceOnUse">
<stop stop-color="#A6BDC9"/>
<stop offset="1" stop-color="#596F91"/>
</linearGradient>
<linearGradient id="paint23_linear_173_350" x1="1605.11" y1="575.39" x2="1605.11" y2="450.95" gradientUnits="userSpaceOnUse">
<stop/>
<stop offset="1" stop-color="#557775"/>
</linearGradient>
<linearGradient id="paint24_linear_173_350" x1="1564.39" y1="575.389" x2="1564.39" y2="452.568" gradientUnits="userSpaceOnUse">
<stop/>
<stop offset="1" stop-color="#557775"/>
</linearGradient>
<radialGradient id="paint25_radial_173_350" cx="0" cy="0" r="1" gradientUnits="userSpaceOnUse" gradientTransform="translate(1562.86 520.64) rotate(-90) scale(19.1917 16.3347)">
<stop stop-color="#FFF9A9"/>
<stop offset="0.0878345" stop-color="#F3EDA1"/>
<stop offset="0.247" stop-color="#D3CE8C"/>
<stop offset="0.4594" stop-color="#9F9B69"/>
<stop offset="0.7171" stop-color="#57553A"/>
<stop offset="1"/>
</radialGradient>
<linearGradient id="paint26_linear_173_350" x1="1552.31" y1="581.551" x2="1575.07" y2="581.551" gradientUnits="userSpaceOnUse">
<stop stop-color="white"/>
<stop offset="1" stop-color="#04092E"/>
</linearGradient>
<linearGradient id="paint27_linear_173_350" x1="1475.93" y1="452.51" x2="1671.41" y2="452.51" gradientUnits="userSpaceOnUse">
<stop/>
<stop offset="1" stop-color="#557775"/>
</linearGradient>
<linearGradient id="paint28_linear_173_350" x1="1670.89" y1="513.422" x2="1688.49" y2="513.422" gradientUnits="userSpaceOnUse">
<stop stop-color="#6F8697"/>
<stop offset="1" stop-color="#455E84"/>
</linearGradient>
<linearGradient id="paint29_linear_173_350" x1="1729.17" y1="701.113" x2="1729.17" y2="608.239" gradientUnits="userSpaceOnUse">
<stop stop-color="#8196A5"/>
<stop offset="1" stop-color="#BFCCC9"/>
</linearGradient>
<linearGradient id="paint30_linear_173_350" x1="1682.91" y1="600.885" x2="1776.08" y2="600.885" gradientUnits="userSpaceOnUse">
<stop stop-color="#FFD6B8"/>
<stop offset="1" stop-color="#FFA497"/>
</linearGradient>
<linearGradient id="paint31_linear_173_350" x1="1729.13" y1="610.372" x2="1729.13" y2="591.239" gradientUnits="userSpaceOnUse">
<stop/>
<stop offset="1" stop-color="#FFA775"/>
</linearGradient>
<linearGradient id="paint32_linear_173_350" x1="1695.52" y1="701.113" x2="1695.52" y2="612.672" gradientUnits="userSpaceOnUse">
<stop stop-color="#596F91"/>
<stop offset="1" stop-color="#A6BDC9"/>
</linearGradient>
<linearGradient id="paint33_linear_173_350" x1="1866.58" y1="509.06" x2="1866.58" y2="464.978" gradientUnits="userSpaceOnUse">
<stop stop-color="#E57E8B"/>
<stop offset="1" stop-color="#FF9F95"/>
</linearGradient>
<linearGradient id="paint34_linear_173_350" x1="1825.16" y1="714.11" x2="1825.16" y2="485.673" gradientUnits="userSpaceOnUse">
<stop stop-color="#F39AA0"/>
<stop offset="1" stop-color="#FFCAA1"/>
</linearGradient>
<linearGradient id="paint35_linear_173_350" x1="1752.99" y1="808.733" x2="1797.55" y2="808.733" gradientUnits="userSpaceOnUse">
<stop stop-color="#DDE5DB"/>
<stop offset="1" stop-color="#8196A5"/>
</linearGradient>
<linearGradient id="paint36_linear_173_350" x1="1757.98" y1="827.967" x2="1765.52" y2="827.967" gradientUnits="userSpaceOnUse">
<stop stop-color="#748B97"/>
<stop offset="1" stop-color="#3D6381"/>
</linearGradient>
<linearGradient id="paint37_linear_173_350" x1="1749.85" y1="839.207" x2="1773.65" y2="839.207" gradientUnits="userSpaceOnUse">
<stop stop-color="#A6BDC9"/>
<stop offset="1" stop-color="#596F91"/>
</linearGradient>
<linearGradient id="paint38_linear_173_350" x1="1749.85" y1="838.516" x2="1768.12" y2="838.516" gradientUnits="userSpaceOnUse">
<stop stop-color="#748B97"/>
<stop offset="1" stop-color="#3D6381"/>
</linearGradient>
<linearGradient id="paint39_linear_173_350" x1="1847.89" y1="809.018" x2="1797.55" y2="809.018" gradientUnits="userSpaceOnUse">
<stop stop-color="#DDE5DB"/>
<stop offset="1" stop-color="#8196A5"/>
</linearGradient>
<linearGradient id="paint40_linear_173_350" x1="1842.89" y1="827.967" x2="1835.35" y2="827.967" gradientUnits="userSpaceOnUse">
<stop stop-color="#748B97"/>
<stop offset="1" stop-color="#3D6381"/>
</linearGradient>
<linearGradient id="paint41_linear_173_350" x1="1851.02" y1="839.207" x2="1827.22" y2="839.207" gradientUnits="userSpaceOnUse">
<stop stop-color="#A6BDC9"/>
<stop offset="1" stop-color="#596F91"/>
</linearGradient>
<linearGradient id="paint42_linear_173_350" x1="1851.02" y1="838.516" x2="1832.75" y2="838.516" gradientUnits="userSpaceOnUse">
<stop stop-color="#748B97"/>
<stop offset="1" stop-color="#3D6381"/>
</linearGradient>
<linearGradient id="paint43_linear_173_350" x1="1793.61" y1="801.734" x2="1793.61" y2="698.654" gradientUnits="userSpaceOnUse">
<stop stop-color="#8196A5"/>
<stop offset="1" stop-color="#DDE5DB"/>
</linearGradient>
<linearGradient id="paint44_linear_173_350" x1="1697.44" y1="808.176" x2="1793.61" y2="808.176" gradientUnits="userSpaceOnUse">
<stop stop-color="#DDE5DB"/>
<stop offset="1" stop-color="#8196A5"/>
</linearGradient>
<linearGradient id="paint45_linear_173_350" x1="1891.67" y1="808.176" x2="1793.61" y2="808.176" gradientUnits="userSpaceOnUse">
<stop stop-color="#DDE5DB"/>
<stop offset="1" stop-color="#8196A5"/>
</linearGradient>
<linearGradient id="paint46_linear_173_350" x1="1702.43" y1="827.967" x2="1709.96" y2="827.967" gradientUnits="userSpaceOnUse">
<stop stop-color="#748B97"/>
<stop offset="1" stop-color="#3D6381"/>
</linearGradient>
<linearGradient id="paint47_linear_173_350" x1="1694.3" y1="839.207" x2="1718.09" y2="839.207" gradientUnits="userSpaceOnUse">
<stop stop-color="#A6BDC9"/>
<stop offset="1" stop-color="#596F91"/>
</linearGradient>
<linearGradient id="paint48_linear_173_350" x1="1699.83" y1="840.471" x2="1718.1" y2="840.471" gradientUnits="userSpaceOnUse">
<stop stop-color="#748B97"/>
<stop offset="1" stop-color="#3D6381"/>
</linearGradient>
<linearGradient id="paint49_linear_173_350" x1="1879.48" y1="827.967" x2="1887.02" y2="827.967" gradientUnits="userSpaceOnUse">
<stop stop-color="#748B97"/>
<stop offset="1" stop-color="#3D6381"/>
</linearGradient>
<linearGradient id="paint50_linear_173_350" x1="1871.35" y1="839.207" x2="1895.15" y2="839.207" gradientUnits="userSpaceOnUse">
<stop stop-color="#A6BDC9"/>
<stop offset="1" stop-color="#596F91"/>
</linearGradient>
<linearGradient id="paint51_linear_173_350" x1="1876.88" y1="840.471" x2="1895.15" y2="840.471" gradientUnits="userSpaceOnUse">
<stop stop-color="#748B97"/>
<stop offset="1" stop-color="#3D6381"/>
</linearGradient>
<linearGradient id="paint52_linear_173_350" x1="1845.76" y1="825.611" x2="1845.76" y2="792.424" gradientUnits="userSpaceOnUse">
<stop stop-color="#8397A5"/>
<stop offset="0.9921" stop-color="#387497"/>
</linearGradient>
<linearGradient id="paint53_linear_173_350" x1="1742.53" y1="825.611" x2="1742.53" y2="792.466" gradientUnits="userSpaceOnUse">
<stop stop-color="#8397A5"/>
<stop offset="0.9921" stop-color="#387497"/>
</linearGradient>
<linearGradient id="paint54_linear_173_350" x1="1789.62" y1="789.703" x2="1789.62" y2="698.654" gradientUnits="userSpaceOnUse">
<stop/>
<stop offset="1" stop-color="#986646"/>
</linearGradient>
<linearGradient id="paint55_linear_173_350" x1="1705.53" y1="825.611" x2="1705.53" y2="816.186" gradientUnits="userSpaceOnUse">
<stop/>
<stop offset="1" stop-color="#986646"/>
</linearGradient>
<linearGradient id="paint56_linear_173_350" x1="1796.73" y1="791.856" x2="1796.73" y2="698.654" gradientUnits="userSpaceOnUse">
<stop/>
<stop offset="1" stop-color="#986646"/>
</linearGradient>
<linearGradient id="paint57_linear_173_350" x1="1771.16" y1="831.738" x2="1778.7" y2="831.738" gradientUnits="userSpaceOnUse">
<stop stop-color="#748B97"/>
<stop offset="1" stop-color="#3D6381"/>
</linearGradient>
<linearGradient id="paint58_linear_173_350" x1="1785.5" y1="830.323" x2="1785.5" y2="791.64" gradientUnits="userSpaceOnUse">
<stop stop-color="#DDE5DB"/>
<stop offset="1" stop-color="#8196A5"/>
</linearGradient>
<linearGradient id="paint59_linear_173_350" x1="1775.07" y1="855.216" x2="1775.07" y2="833.107" gradientUnits="userSpaceOnUse">
<stop stop-color="#A6BDC9"/>
<stop offset="1" stop-color="#596F91"/>
</linearGradient>
<linearGradient id="paint60_linear_173_350" x1="1784.36" y1="827.308" x2="1784.36" y2="793.411" gradientUnits="userSpaceOnUse">
<stop/>
<stop offset="1" stop-color="#986646"/>
</linearGradient>
<linearGradient id="paint61_linear_173_350" x1="1775.51" y1="854.355" x2="1775.51" y2="833.376" gradientUnits="userSpaceOnUse">
<stop stop-color="#8397A5"/>
<stop offset="0.9921" stop-color="#387497"/>
</linearGradient>
<linearGradient id="paint62_linear_173_350" x1="1786.89" y1="844.192" x2="1782.06" y2="844.192" gradientUnits="userSpaceOnUse">
<stop stop-color="#748B97"/>
<stop offset="1" stop-color="#3D6381"/>
</linearGradient>
<linearGradient id="paint63_linear_173_350" x1="1781.99" y1="772.409" x2="1804.05" y2="772.409" gradientUnits="userSpaceOnUse">
<stop stop-color="#BFCCC9"/>
<stop offset="1" stop-color="#8196A5"/>
</linearGradient>
<linearGradient id="paint64_linear_173_350" x1="1787.48" y1="791.408" x2="1787.48" y2="754.085" gradientUnits="userSpaceOnUse">
<stop/>
<stop offset="1" stop-color="#986646"/>
</linearGradient>
<linearGradient id="paint65_linear_173_350" x1="1799.35" y1="790.74" x2="1799.35" y2="754.085" gradientUnits="userSpaceOnUse">
<stop/>
<stop offset="1" stop-color="#986646"/>
</linearGradient>
<linearGradient id="paint66_linear_173_350" x1="1879.78" y1="714.11" x2="1879.78" y2="491.205" gradientUnits="userSpaceOnUse">
<stop stop-color="#E57E8B"/>
<stop offset="1" stop-color="#FF9F95"/>
</linearGradient>
<linearGradient id="paint67_linear_173_350" x1="1622.08" y1="690.774" x2="1866.74" y2="690.774" gradientUnits="userSpaceOnUse">
<stop stop-color="#FFD6B8"/>
<stop offset="1" stop-color="#FFA497"/>
</linearGradient>
<linearGradient id="paint68_linear_173_350" x1="1744.89" y1="714.111" x2="1744.89" y2="667.881" gradientUnits="userSpaceOnUse">
<stop stop-color="#DD8897"/>
<stop offset="1" stop-color="#FEC2A4"/>
</linearGradient>
<linearGradient id="paint69_linear_173_350" x1="1816.43" y1="669.345" x2="1816.43" y2="465.215" gradientUnits="userSpaceOnUse">
<stop stop-color="#FFA497"/>
<stop offset="1" stop-color="#FFD6B8"/>
</linearGradient>
<linearGradient id="paint70_linear_173_350" x1="1812.54" y1="714.111" x2="1812.54" y2="658.68" gradientUnits="userSpaceOnUse">
<stop stop-color="#FEC2A4"/>
<stop offset="1" stop-color="#DD8897"/>
</linearGradient>
<linearGradient id="paint71_linear_173_350" x1="1629.04" y1="679.718" x2="1863.61" y2="679.718" gradientUnits="userSpaceOnUse">
<stop stop-color="#3E3E05"/>
<stop offset="1" stop-color="#B39D75"/>
</linearGradient>
<linearGradient id="paint72_linear_173_350" x1="1822.34" y1="697.797" x2="1839.31" y2="697.797" gradientUnits="userSpaceOnUse">
<stop stop-color="#748B97"/>
<stop offset="1" stop-color="#3D6381"/>
</linearGradient>
<linearGradient id="paint73_linear_173_350" x1="1814.98" y1="664.38" x2="1814.98" y2="465.215" gradientUnits="userSpaceOnUse">
<stop/>
<stop offset="1" stop-color="#FFA775"/>
</linearGradient>
<linearGradient id="paint74_linear_173_350" x1="1858.83" y1="701.113" x2="1858.83" y2="608.239" gradientUnits="userSpaceOnUse">
<stop stop-color="#8196A5"/>
<stop offset="1" stop-color="#BFCCC9"/>
</linearGradient>
<linearGradient id="paint75_linear_173_350" x1="1822.34" y1="600.885" x2="1895.88" y2="600.885" gradientUnits="userSpaceOnUse">
<stop stop-color="#FFD6B8"/>
<stop offset="1" stop-color="#FFA497"/>
</linearGradient>
<linearGradient id="paint76_linear_173_350" x1="1858.75" y1="610.372" x2="1858.75" y2="591.239" gradientUnits="userSpaceOnUse">
<stop/>
<stop offset="1" stop-color="#FFA775"/>
</linearGradient>
<linearGradient id="paint77_linear_173_350" x1="1839.31" y1="701.113" x2="1839.31" y2="612.672" gradientUnits="userSpaceOnUse">
<stop stop-color="#596F91"/>
<stop offset="1" stop-color="#A6BDC9"/>
</linearGradient>
<linearGradient id="paint78_linear_173_350" x1="1828.47" y1="675.187" x2="1828.47" y2="628.302" gradientUnits="userSpaceOnUse">
<stop/>
<stop offset="1" stop-color="#557775"/>
</linearGradient>
<linearGradient id="paint79_linear_173_350" x1="1686.1" y1="661.759" x2="1686.1" y2="624.662" gradientUnits="userSpaceOnUse">
<stop/>
<stop offset="1" stop-color="#557775"/>
</linearGradient>
<linearGradient id="paint80_linear_173_350" x1="1792.58" y1="724.644" x2="1792.58" y2="714.111" gradientUnits="userSpaceOnUse">
<stop stop-color="#8397A5"/>
<stop offset="0.9921" stop-color="#387497"/>
</linearGradient>
<linearGradient id="paint81_linear_173_350" x1="1778.72" y1="630.861" x2="1778.72" y2="488.796" gradientUnits="userSpaceOnUse">
<stop/>
<stop offset="1" stop-color="#FFA775"/>
</linearGradient>
<linearGradient id="paint82_linear_173_350" x1="1873.61" y1="643.211" x2="1873.61" y2="613.336" gradientUnits="userSpaceOnUse">
<stop stop-color="white"/>
<stop offset="1" stop-color="#70092E"/>
</linearGradient>
<linearGradient id="paint83_linear_173_350" x1="1384.21" y1="859.684" x2="1384.21" y2="619.793" gradientUnits="userSpaceOnUse">
<stop stop-color="#FFE3D0"/>
<stop offset="1" stop-color="#FFB69A"/>
</linearGradient>
<linearGradient id="paint84_linear_173_350" x1="1366.16" y1="859.685" x2="1366.16" y2="595.664" gradientUnits="userSpaceOnUse">
<stop stop-color="#9F2F3F"/>
<stop offset="1" stop-color="#E05A2C"/>
</linearGradient>
<linearGradient id="paint85_linear_173_350" x1="1718.97" y1="859.685" x2="1718.97" y2="595.664" gradientUnits="userSpaceOnUse">
<stop stop-color="#631F3B"/>
<stop offset="1" stop-color="#7C3B33"/>
</linearGradient>
<linearGradient id="paint86_linear_173_350" x1="1129.5" y1="855.211" x2="1638.91" y2="855.211" gradientUnits="userSpaceOnUse">
<stop stop-color="#D9ACBA"/>
<stop offset="1" stop-color="#D84057"/>
</linearGradient>
<linearGradient id="paint87_linear_173_350" x1="1133.91" y1="859.684" x2="1133.91" y2="619.799" gradientUnits="userSpaceOnUse">
<stop stop-color="#D84057"/>
<stop offset="1" stop-color="#D9ACBA"/>
</linearGradient>
<linearGradient id="paint88_linear_173_350" x1="1385.44" y1="859.684" x2="1385.44" y2="619.793" gradientUnits="userSpaceOnUse">
<stop stop-color="#D9ACBA"/>
<stop offset="1" stop-color="#A94057"/>
</linearGradient>
<linearGradient id="paint89_linear_173_350" x1="1130.9" y1="744.489" x2="1219.45" y2="744.489" gradientUnits="userSpaceOnUse">
<stop stop-color="#A94057"/>
<stop offset="1" stop-color="#D9ACBA"/>
</linearGradient>
<linearGradient id="paint90_linear_173_350" x1="1568.2" y1="801.761" x2="1635.52" y2="801.761" gradientUnits="userSpaceOnUse">
<stop stop-color="#D9ACBA"/>
<stop offset="1" stop-color="#A94057"/>
</linearGradient>
<linearGradient id="paint91_linear_173_350" x1="1378.48" y1="698.416" x2="1534.86" y2="698.416" gradientUnits="userSpaceOnUse">
<stop stop-color="#A94057"/>
<stop offset="1" stop-color="#D9ACBA"/>
</linearGradient>
<linearGradient id="paint92_linear_173_350" x1="1329.99" y1="848.441" x2="1396.11" y2="848.441" gradientUnits="userSpaceOnUse">
<stop stop-color="#A94057"/>
<stop offset="1" stop-color="#D9ACBA"/>
</linearGradient>
<linearGradient id="paint93_linear_173_350" x1="1724.79" y1="859.683" x2="1724.79" y2="596.967" gradientUnits="userSpaceOnUse">
<stop/>
<stop offset="1" stop-color="#404D46"/>
</linearGradient>
<linearGradient id="paint94_linear_173_350" x1="1357.97" y1="570.575" x2="1266.78" y2="518.847" gradientUnits="userSpaceOnUse">
<stop stop-color="#9F2F3F"/>
<stop offset="1" stop-color="#E05A2C"/>
</linearGradient>
<linearGradient id="paint95_linear_173_350" x1="1356.72" y1="571.685" x2="1266.24" y2="520.359" gradientUnits="userSpaceOnUse">
<stop stop-color="#FF774A"/>
<stop offset="1" stop-color="#FF9836"/>
</linearGradient>
<linearGradient id="paint96_linear_173_350" x1="1333.41" y1="444.622" x2="1333.41" y2="426.009" gradientUnits="userSpaceOnUse">
<stop stop-color="#FF774A"/>
<stop offset="1" stop-color="#FF9836"/>
</linearGradient>
<linearGradient id="paint97_linear_173_350" x1="1336.42" y1="435.535" x2="1336.42" y2="426.009" gradientUnits="userSpaceOnUse">
<stop stop-color="#9F2F3F"/>
<stop offset="1" stop-color="#E05A2C"/>
</linearGradient>
<linearGradient id="paint98_linear_173_350" x1="1354.19" y1="455.645" x2="1416.14" y2="445.378" gradientUnits="userSpaceOnUse">
<stop stop-color="#631F3B"/>
<stop offset="1" stop-color="#7C3B33"/>
</linearGradient>
<linearGradient id="paint99_linear_173_350" x1="1359.29" y1="456.619" x2="1424.21" y2="445.86" gradientUnits="userSpaceOnUse">
<stop stop-color="#F6D8BF"/>
<stop offset="1" stop-color="#F1BFBD"/>
</linearGradient>
<linearGradient id="paint100_linear_173_350" x1="1379.3" y1="488.241" x2="1374.76" y2="460.812" gradientUnits="userSpaceOnUse">
<stop/>
<stop offset="1" stop-color="#B39D75"/>
</linearGradient>
<linearGradient id="paint101_linear_173_350" x1="1389.82" y1="485.181" x2="1385.67" y2="460.16" gradientUnits="userSpaceOnUse">
<stop/>
<stop offset="1" stop-color="#B39D75"/>
</linearGradient>
<linearGradient id="paint102_linear_173_350" x1="1359.67" y1="439.477" x2="1421.46" y2="429.236" gradientUnits="userSpaceOnUse">
<stop stop-color="#FFABB3"/>
<stop offset="1" stop-color="#CA8190"/>
</linearGradient>
<linearGradient id="paint103_linear_173_350" x1="1305.15" y1="521.612" x2="1305.15" y2="416.775" gradientUnits="userSpaceOnUse">
<stop stop-color="#9F2F3F"/>
<stop offset="1" stop-color="#E05A2C"/>
</linearGradient>
<linearGradient id="paint104_linear_173_350" x1="1303.57" y1="521.075" x2="1303.57" y2="417.053" gradientUnits="userSpaceOnUse">
<stop stop-color="#FF774A"/>
<stop offset="1" stop-color="#FF9836"/>
</linearGradient>
<linearGradient id="paint105_linear_173_350" x1="1337.65" y1="595.663" x2="1337.65" y2="581.55" gradientUnits="userSpaceOnUse">
<stop stop-color="#FF774A"/>
<stop offset="1" stop-color="#FF9836"/>
</linearGradient>
<linearGradient id="paint106_linear_173_350" x1="1375.01" y1="595.663" x2="1375.01" y2="581.55" gradientUnits="userSpaceOnUse">
<stop stop-color="#9F2F3F"/>
<stop offset="1" stop-color="#E05A2C"/>
</linearGradient>
<linearGradient id="paint107_linear_173_350" x1="809.289" y1="1353.16" x2="809.289" y2="961.191" gradientUnits="userSpaceOnUse">
<stop stop-color="#FFFEFE"/>
<stop offset="0.3832" stop-color="#FEFCFC"/>
<stop offset="0.5212" stop-color="#FCF5F7"/>
<stop offset="0.6196" stop-color="#F7E9ED"/>
<stop offset="0.6992" stop-color="#F1D9DE"/>
<stop offset="0.7674" stop-color="#E9C3CC"/>
<stop offset="0.8277" stop-color="#DEA7B5"/>
<stop offset="0.8823" stop-color="#D2879A"/>
<stop offset="0.9325" stop-color="#C4617A"/>
<stop offset="0.9772" stop-color="#B43857"/>
<stop offset="1" stop-color="#AB2043"/>
</linearGradient>
<linearGradient id="paint108_linear_173_350" x1="1478" y1="1181.48" x2="1478" y2="961.191" gradientUnits="userSpaceOnUse">
<stop stop-color="#FFFEFE"/>
<stop offset="0.3832" stop-color="#FEFCFC"/>
<stop offset="0.5212" stop-color="#FCF5F7"/>
<stop offset="0.6196" stop-color="#F7E9ED"/>
<stop offset="0.6992" stop-color="#F1D9DE"/>
<stop offset="0.7674" stop-color="#E9C3CC"/>
<stop offset="0.8277" stop-color="#DEA7B5"/>
<stop offset="0.8823" stop-color="#D2879A"/>
<stop offset="0.9325" stop-color="#C4617A"/>
<stop offset="0.9772" stop-color="#B43857"/>
<stop offset="1" stop-color="#AB2043"/>
</linearGradient>
<linearGradient id="paint109_linear_173_350" x1="322.991" y1="809.937" x2="401.508" y2="809.937" gradientUnits="userSpaceOnUse">
<stop stop-color="#FFB395"/>
<stop offset="1" stop-color="#FF7E8B"/>
</linearGradient>
<linearGradient id="paint110_linear_173_350" x1="383.667" y1="754.949" x2="802.93" y2="754.949" gradientUnits="userSpaceOnUse">
<stop stop-color="#FFB395"/>
<stop offset="1" stop-color="#FF7E8B"/>
</linearGradient>
<linearGradient id="paint111_linear_173_350" x1="1156.53" y1="821.006" x2="1312.95" y2="821.006" gradientUnits="userSpaceOnUse">
<stop stop-color="#FF9F95"/>
<stop offset="1" stop-color="#E57E8B"/>
</linearGradient>
<linearGradient id="paint112_linear_173_350" x1="1156.53" y1="874.696" x2="1315.36" y2="874.696" gradientUnits="userSpaceOnUse">
<stop stop-color="#FF9F95"/>
<stop offset="1" stop-color="#F9868B"/>
</linearGradient>
<linearGradient id="paint113_linear_173_350" x1="511.186" y1="968.771" x2="511.186" y2="925.072" gradientUnits="userSpaceOnUse">
<stop stop-color="#631F3B"/>
<stop offset="1" stop-color="#7C3B33"/>
</linearGradient>
<linearGradient id="paint114_linear_173_350" x1="495.078" y1="968.771" x2="495.078" y2="925.072" gradientUnits="userSpaceOnUse">
<stop stop-color="#9F2F3F"/>
<stop offset="1" stop-color="#E05A2C"/>
</linearGradient>
<linearGradient id="paint115_linear_173_350" x1="1235.4" y1="968.771" x2="1235.4" y2="907.776" gradientUnits="userSpaceOnUse">
<stop stop-color="#631F3B"/>
<stop offset="1" stop-color="#7C3B33"/>
</linearGradient>
<linearGradient id="paint116_linear_173_350" x1="1291.39" y1="968.773" x2="1291.39" y2="928.862" gradientUnits="userSpaceOnUse">
<stop stop-color="#9F2F3F"/>
<stop offset="1" stop-color="#E05A2C"/>
</linearGradient>
<linearGradient id="paint117_linear_173_350" x1="334.927" y1="968.771" x2="334.927" y2="925.072" gradientUnits="userSpaceOnUse">
<stop stop-color="#631F3B"/>
<stop offset="1" stop-color="#7C3B33"/>
</linearGradient>
<linearGradient id="paint118_linear_173_350" x1="309.192" y1="874.63" x2="1160.35" y2="874.63" gradientUnits="userSpaceOnUse">
<stop stop-color="#FFCAA1"/>
<stop offset="1" stop-color="#FFB1A0"/>
</linearGradient>
<linearGradient id="paint119_linear_173_350" x1="322.704" y1="760.429" x2="598.35" y2="760.429" gradientUnits="userSpaceOnUse">
<stop stop-color="#FFCAA1"/>
<stop offset="1" stop-color="#FFB1A0"/>
</linearGradient>
<linearGradient id="paint120_linear_173_350" x1="322.991" y1="798.462" x2="802.931" y2="798.462" gradientUnits="userSpaceOnUse">
<stop stop-color="#FFBA95"/>
<stop offset="1" stop-color="#E57E8B"/>
</linearGradient>
<linearGradient id="paint121_linear_173_350" x1="348.281" y1="772.837" x2="526.174" y2="772.837" gradientUnits="userSpaceOnUse">
<stop stop-color="#FFB395"/>
<stop offset="1" stop-color="#FF7E8B"/>
</linearGradient>
<linearGradient id="paint122_linear_173_350" x1="317.89" y1="822.523" x2="1162" y2="822.523" gradientUnits="userSpaceOnUse">
<stop stop-color="#FFCAA1"/>
<stop offset="1" stop-color="#FFB1A0"/>
</linearGradient>
<linearGradient id="paint123_linear_173_350" x1="319.283" y1="845.903" x2="1156.53" y2="845.903" gradientUnits="userSpaceOnUse">
<stop stop-color="#FFB695"/>
<stop offset="1" stop-color="#E57E8B"/>
</linearGradient>
<linearGradient id="paint124_linear_173_350" x1="373.752" y1="806.067" x2="373.752" y2="740.622" gradientUnits="userSpaceOnUse">
<stop/>
<stop offset="1" stop-color="#FFA775"/>
</linearGradient>
<linearGradient id="paint125_linear_173_350" x1="322.991" y1="759.16" x2="478.439" y2="759.16" gradientUnits="userSpaceOnUse">
<stop stop-color="#FFA775"/>
<stop offset="1"/>
</linearGradient>
<linearGradient id="paint126_linear_173_350" x1="605.374" y1="802.001" x2="605.374" y2="738.731" gradientUnits="userSpaceOnUse">
<stop stop-color="#C05657"/>
<stop offset="1" stop-color="white"/>
</linearGradient>
<linearGradient id="paint127_linear_173_350" x1="408.396" y1="812.831" x2="408.396" y2="789.475" gradientUnits="userSpaceOnUse">
<stop stop-color="#C05657"/>
<stop offset="1" stop-color="white"/>
</linearGradient>
<linearGradient id="paint128_linear_173_350" x1="321.575" y1="806.316" x2="1156.54" y2="806.316" gradientUnits="userSpaceOnUse">
<stop stop-color="#FFA775"/>
<stop offset="1"/>
</linearGradient>
<linearGradient id="paint129_linear_173_350" x1="315.966" y1="863.52" x2="1142.75" y2="863.52" gradientUnits="userSpaceOnUse">
<stop stop-color="#FFA775"/>
<stop offset="1"/>
</linearGradient>
<linearGradient id="paint130_linear_173_350" x1="612.894" y1="798.463" x2="612.894" y2="720.608" gradientUnits="userSpaceOnUse">
<stop stop-color="#C05657"/>
<stop offset="1" stop-color="white"/>
</linearGradient>
<linearGradient id="paint131_linear_173_350" x1="812.636" y1="907.777" x2="812.636" y2="851.049" gradientUnits="userSpaceOnUse">
<stop stop-color="#C05657"/>
<stop offset="1" stop-color="white"/>
</linearGradient>
<linearGradient id="paint132_linear_173_350" x1="1234.77" y1="846.997" x2="1234.77" y2="799.747" gradientUnits="userSpaceOnUse">
<stop stop-color="#C05657"/>
<stop offset="1" stop-color="white"/>
</linearGradient>
<linearGradient id="paint133_linear_173_350" x1="729.87" y1="968.771" x2="729.87" y2="907.776" gradientUnits="userSpaceOnUse">
<stop stop-color="#9F2F3F"/>
<stop offset="1" stop-color="#E05A2C"/>
</linearGradient>
<linearGradient id="paint134_linear_173_350" x1="306.064" y1="914.876" x2="705.45" y2="914.876" gradientUnits="userSpaceOnUse">
<stop stop-color="#D98C8B"/>
<stop offset="1" stop-color="#4D1D1D"/>
</linearGradient>
<linearGradient id="paint135_linear_173_350" x1="468.533" y1="844.843" x2="1052.66" y2="844.843" gradientUnits="userSpaceOnUse">
<stop stop-color="#FFB395"/>
<stop offset="1" stop-color="#FF7E8B"/>
</linearGradient>
<linearGradient id="paint136_linear_173_350" x1="334.927" y1="903.727" x2="944.856" y2="903.727" gradientUnits="userSpaceOnUse">
<stop stop-color="#FFB395"/>
<stop offset="1" stop-color="#FF7E8B"/>
</linearGradient>
<linearGradient id="paint137_linear_173_350" x1="1162.38" y1="907.778" x2="1162.38" y2="840.758" gradientUnits="userSpaceOnUse">
<stop stop-color="#C05657"/>
<stop offset="1" stop-color="white"/>
</linearGradient>
<linearGradient id="paint138_linear_173_350" x1="1162.42" y1="831.203" x2="1162.42" y2="799.747" gradientUnits="userSpaceOnUse">
<stop stop-color="#C05657"/>
<stop offset="1" stop-color="white"/>
</linearGradient>
<linearGradient id="paint139_linear_173_350" x1="622.609" y1="797.938" x2="622.609" y2="724.06" gradientUnits="userSpaceOnUse">
<stop stop-color="#C05657"/>
<stop offset="1" stop-color="white"/>
</linearGradient>
<linearGradient id="paint140_linear_173_350" x1="663.698" y1="794.684" x2="663.698" y2="678.998" gradientUnits="userSpaceOnUse">
<stop stop-color="#8376FF"/>
<stop offset="1" stop-color="#9FCAFF"/>
</linearGradient>
<linearGradient id="paint141_linear_173_350" x1="581.581" y1="794.694" x2="581.581" y2="679.036" gradientUnits="userSpaceOnUse">
<stop stop-color="#C4B4FF"/>
<stop offset="1" stop-color="#9CD5FF"/>
</linearGradient>
<linearGradient id="paint142_linear_173_350" x1="635.311" y1="774.821" x2="799.536" y2="774.821" gradientUnits="userSpaceOnUse">
<stop stop-color="#CCEDFF"/>
<stop offset="1" stop-color="#9D68C2"/>
</linearGradient>
<linearGradient id="paint143_linear_173_350" x1="596.045" y1="755.091" x2="596.045" y2="679.035" gradientUnits="userSpaceOnUse">
<stop/>
<stop offset="1" stop-color="#FFA775"/>
</linearGradient>
<linearGradient id="paint144_linear_173_350" x1="727.671" y1="794.596" x2="727.671" y2="689.369" gradientUnits="userSpaceOnUse">
<stop stop-color="#9D68C2"/>
<stop offset="1" stop-color="#CCEDFF"/>
</linearGradient>
<linearGradient id="paint145_linear_173_350" x1="649.626" y1="794.694" x2="649.626" y2="754.952" gradientUnits="userSpaceOnUse">
<stop/>
<stop offset="1" stop-color="#FFA775"/>
</linearGradient>
<linearGradient id="paint146_linear_173_350" x1="600.75" y1="718.924" x2="600.75" y2="678.558" gradientUnits="userSpaceOnUse">
<stop stop-color="#9D68C2"/>
<stop offset="1" stop-color="#CCEDFF"/>
</linearGradient>
<linearGradient id="paint147_linear_173_350" x1="698.961" y1="797.129" x2="698.961" y2="691.294" gradientUnits="userSpaceOnUse">
<stop stop-color="#9D868D"/>
<stop offset="1" stop-color="white"/>
</linearGradient>
<linearGradient id="paint148_linear_173_350" x1="761.624" y1="801.186" x2="809.301" y2="665.642" gradientUnits="userSpaceOnUse">
<stop stop-color="#E3E4F9"/>
<stop offset="1" stop-color="#B3B0D4"/>
</linearGradient>
<linearGradient id="paint149_linear_173_350" x1="699.376" y1="779.3" x2="737.753" y2="670.196" gradientUnits="userSpaceOnUse">
<stop stop-color="#E2DBF2"/>
<stop offset="1" stop-color="#FFEDE5"/>
</linearGradient>
<linearGradient id="paint150_linear_173_350" x1="744.695" y1="735.164" x2="744.695" y2="658.141" gradientUnits="userSpaceOnUse">
<stop stop-color="#6B3343"/>
<stop offset="1" stop-color="#AAA8BE"/>
</linearGradient>
<linearGradient id="paint151_linear_173_350" x1="795.765" y1="787.668" x2="795.765" y2="715.025" gradientUnits="userSpaceOnUse">
<stop stop-color="#6B3343"/>
<stop offset="1" stop-color="#AAA8BE"/>
</linearGradient>
<linearGradient id="paint152_linear_173_350" x1="726.162" y1="746.742" x2="751.398" y2="674.997" gradientUnits="userSpaceOnUse">
<stop/>
<stop offset="1" stop-color="#FFA775"/>
</linearGradient>
<linearGradient id="paint153_linear_173_350" x1="818.866" y1="817.026" x2="864.46" y2="687.402" gradientUnits="userSpaceOnUse">
<stop stop-color="#A48B9D"/>
<stop offset="1" stop-color="white"/>
</linearGradient>
<linearGradient id="paint154_linear_173_350" x1="763.574" y1="801.879" x2="776.761" y2="764.388" gradientUnits="userSpaceOnUse">
<stop/>
<stop offset="1" stop-color="#FFA775"/>
</linearGradient>
<linearGradient id="paint155_linear_173_350" x1="727.387" y1="708.834" x2="749.801" y2="645.113" gradientUnits="userSpaceOnUse">
<stop stop-color="#A48B9D"/>
<stop offset="1" stop-color="white"/>
</linearGradient>
<linearGradient id="paint156_linear_173_350" x1="1466.62" y1="841.624" x2="1491.35" y2="771.307" gradientUnits="userSpaceOnUse">
<stop stop-color="#FFF7F3"/>
<stop offset="1" stop-color="#ECE7F6"/>
</linearGradient>
<linearGradient id="paint157_linear_173_350" x1="1430.84" y1="963.686" x2="1430.84" y2="796.027" gradientUnits="userSpaceOnUse">
<stop stop-color="#E2DBF2"/>
<stop offset="1" stop-color="#E5E5EC"/>
</linearGradient>
<linearGradient id="paint158_linear_173_350" x1="1542.59" y1="968.006" x2="1598.52" y2="809" gradientUnits="userSpaceOnUse">
<stop stop-color="#A39FCB"/>
<stop offset="1" stop-color="#C5C7D6"/>
</linearGradient>
<linearGradient id="paint159_linear_173_350" x1="1340.08" y1="966.752" x2="1526.74" y2="966.752" gradientUnits="userSpaceOnUse">
<stop stop-color="#FF774A"/>
<stop offset="1" stop-color="#FF9836"/>
</linearGradient>
<linearGradient id="paint160_linear_173_350" x1="1523.22" y1="966.752" x2="1617.89" y2="966.752" gradientUnits="userSpaceOnUse">
<stop stop-color="#E05A2C"/>
<stop offset="1" stop-color="#E55F67"/>
</linearGradient>
<linearGradient id="paint161_linear_173_350" x1="1542.59" y1="968.007" x2="1598.52" y2="809.002" gradientUnits="userSpaceOnUse">
<stop stop-color="#A48B9D"/>
<stop offset="1" stop-color="white"/>
</linearGradient>
<linearGradient id="paint162_linear_173_350" x1="1338.91" y1="932.265" x2="1621.05" y2="932.265" gradientUnits="userSpaceOnUse">
<stop stop-color="#B7B5C8"/>
<stop offset="1" stop-color="#7C4A58"/>
</linearGradient>
<linearGradient id="paint163_linear_173_350" x1="1335.17" y1="865.186" x2="1620.19" y2="865.186" gradientUnits="userSpaceOnUse">
<stop stop-color="#B7B5C8"/>
<stop offset="1" stop-color="#7C4A58"/>
</linearGradient>
<linearGradient id="paint164_linear_173_350" x1="1485.49" y1="963.18" x2="1535.77" y2="820.23" gradientUnits="userSpaceOnUse">
<stop/>
<stop offset="1" stop-color="#FFA775"/>
</linearGradient>
<linearGradient id="paint165_linear_173_350" x1="1344.66" y1="966.794" x2="1427.84" y2="966.794" gradientUnits="userSpaceOnUse">
<stop stop-color="#D98C8B"/>
<stop offset="1" stop-color="#4D1D1D"/>
</linearGradient>
<linearGradient id="paint166_linear_173_350" x1="1636.42" y1="232.751" x2="1636.42" y2="0.17336" gradientUnits="userSpaceOnUse">
<stop stop-color="#631F3B"/>
<stop offset="1" stop-color="#7C3B33"/>
</linearGradient>
<linearGradient id="paint167_linear_173_350" x1="1639" y1="179.041" x2="1639" y2="153.62" gradientUnits="userSpaceOnUse">
<stop stop-color="#6F8697"/>
<stop offset="1" stop-color="#455E84"/>
</linearGradient>
<linearGradient id="paint168_linear_173_350" x1="1639" y1="259.788" x2="1639" y2="168.083" gradientUnits="userSpaceOnUse">
<stop stop-color="#CED0CA"/>
<stop offset="1" stop-color="#6D8597"/>
</linearGradient>
<linearGradient id="paint169_linear_173_350" x1="1541.05" y1="259.788" x2="1736.96" y2="259.788" gradientUnits="userSpaceOnUse">
<stop stop-color="#BFC2BB"/>
<stop offset="1" stop-color="#6D8597"/>
</linearGradient>
<linearGradient id="paint170_linear_173_350" x1="1639" y1="273.733" x2="1639" y2="245.851" gradientUnits="userSpaceOnUse">
<stop stop-color="#F6D6D5"/>
<stop offset="1" stop-color="#FFEFD8"/>
</linearGradient>
<linearGradient id="paint171_linear_173_350" x1="1587.66" y1="259.788" x2="1587.66" y2="168.284" gradientUnits="userSpaceOnUse">
<stop/>
<stop offset="1" stop-color="#557775"/>
</linearGradient>
<linearGradient id="paint172_linear_173_350" x1="1622.86" y1="240.874" x2="1622.86" y2="168.083" gradientUnits="userSpaceOnUse">
<stop/>
<stop offset="1" stop-color="#557775"/>
</linearGradient>
<linearGradient id="paint173_linear_173_350" x1="1698.94" y1="253.816" x2="1698.94" y2="177.448" gradientUnits="userSpaceOnUse">
<stop/>
<stop offset="1" stop-color="#557775"/>
</linearGradient>
</defs>
</svg>
