<svg width="43" height="34" viewBox="0 0 43 34" fill="none" xmlns="http://www.w3.org/2000/svg">
<path d="M38.75 34H4.75C3.62283 34 2.54183 33.5522 1.7448 32.7552C0.947766 31.9582 0.5 30.8772 0.5 29.75V4.06513C0.547669 2.97031 1.01639 1.93621 1.80832 1.17874C2.60024 0.421266 3.65414 -0.00103538 4.75 1.90638e-06H38.75C39.8772 1.90638e-06 40.9582 0.447768 41.7552 1.2448C42.5522 2.04183 43 3.12283 43 4.25V29.75C43 30.8772 42.5522 31.9582 41.7552 32.7552C40.9582 33.5522 39.8772 34 38.75 34ZM4.75 8.2195V29.75H38.75V8.2195L21.75 19.55L4.75 8.2195ZM6.45 4.25L21.75 14.45L37.05 4.25H6.45Z" fill="#9E92E8"/>
</svg>
