<svg width="28" height="27" viewBox="0 0 28 27" fill="none" xmlns="http://www.w3.org/2000/svg">
<rect x="1" y="1" width="25.4665" height="24.9872" rx="7" stroke="#DDDAF2" stroke-width="2"/>
<path d="M13.7249 6.54272C9.82712 6.54272 6.66016 9.65443 6.66016 13.4842C6.66016 17.314 9.82712 20.4417 13.7412 20.4417C17.6552 20.4417 20.8222 17.33 20.8222 13.4842C20.8059 9.65443 17.639 6.54272 13.7249 6.54272ZM13.7249 18.048C11.1751 18.048 9.08004 16.0055 9.08004 13.4842C9.09628 10.9789 11.1751 8.93634 13.7249 8.93634C16.2747 8.93634 18.3698 10.9789 18.3698 13.5002C18.3698 16.0055 16.291 18.048 13.7249 18.048Z" fill="#DDDAF2"/>
<path d="M21.099 4.51587C20.628 4.51587 20.1733 4.70736 19.8322 5.02651C19.4911 5.34566 19.3125 5.80842 19.3125 6.27119C19.3125 6.73395 19.5074 7.18076 19.8322 7.51587C20.157 7.83502 20.628 8.02651 21.099 8.02651C21.57 8.02651 22.0247 7.83502 22.3658 7.51587C22.7068 7.19672 22.8855 6.73395 22.8855 6.27119C22.8855 5.80842 22.6906 5.36161 22.3658 5.02651C22.041 4.6914 21.57 4.51587 21.099 4.51587Z" fill="#DDDAF2"/>
</svg>
