<svg width="28" height="27" viewBox="0 0 28 27" fill="none" xmlns="http://www.w3.org/2000/svg">
<rect x="1" y="1" width="25.4665" height="24.9872" rx="7" stroke="#1B2260" stroke-width="2"/>
<path d="M13.7249 6.54297C9.82712 6.54297 6.66016 9.65467 6.66016 13.4845C6.66016 17.3142 9.82712 20.4419 13.7412 20.4419C17.6552 20.4419 20.8222 17.3302 20.8222 13.4845C20.8059 9.65467 17.639 6.54297 13.7249 6.54297ZM13.7249 18.0483C11.1751 18.0483 9.08004 16.0057 9.08004 13.4845C9.09628 10.9791 11.1751 8.93659 13.7249 8.93659C16.2747 8.93659 18.3698 10.9791 18.3698 13.5004C18.3698 16.0057 16.291 18.0483 13.7249 18.0483Z" fill="#2B2A2D"/>
<path d="M21.099 4.51562C20.628 4.51562 20.1733 4.70711 19.8322 5.02626C19.4911 5.34541 19.3125 5.80818 19.3125 6.27094C19.3125 6.73371 19.5074 7.18052 19.8322 7.51563C20.157 7.83477 20.628 8.02626 21.099 8.02626C21.57 8.02626 22.0247 7.83477 22.3658 7.51563C22.7068 7.19648 22.8855 6.73371 22.8855 6.27094C22.8855 5.80818 22.6906 5.36137 22.3658 5.02626C22.041 4.69116 21.57 4.51562 21.099 4.51562Z" fill="#2B2A2D"/>
</svg>
