<svg width="827" height="269" viewBox="0 0 827 269" fill="none" xmlns="http://www.w3.org/2000/svg">
<path d="M255.339 17.1381H324.293V111H309.939V30.6475H269.692V111H255.339V17.1381ZM390.206 54.4296V69.909C385.233 65.0307 379.652 62.5915 373.46 62.5915C368.206 62.5915 363.844 64.327 360.373 67.7982C356.995 71.1755 355.307 75.7256 355.307 81.4483C355.307 87.3586 357.089 92.0963 360.654 95.6613C364.031 98.851 368.206 100.446 373.178 100.446C380.027 100.446 385.703 97.9128 390.206 92.8468V108.186C385.233 111.281 379.229 112.829 372.193 112.829C362.718 112.829 355.213 109.921 349.678 104.105C344.049 98.2881 341.234 90.8767 341.234 81.8704C341.234 72.5828 344.236 64.9368 350.241 58.9327C356.057 53.1162 363.984 50.2079 374.023 50.2079C379.745 50.2079 385.14 51.6151 390.206 54.4296ZM403.423 51.7558H417.213V85.3885L457.741 46.4084V111H443.951V76.523L403.423 115.503V51.7558ZM467.278 111L493.452 78.9153L472.344 51.7558H488.667L501.755 69.0647L514.983 51.7558H531.869L510.057 78.9153L535.387 111H518.782L501.755 88.9066L484.164 111H467.278ZM550.88 59.0734C556.978 53.1631 564.53 50.2079 573.536 50.2079C582.543 50.2079 590.048 53.1631 596.052 59.0734C602.15 64.8899 605.199 72.3482 605.199 81.4483C605.199 90.4545 602.15 97.9597 596.052 103.964C590.048 109.874 582.543 112.829 573.536 112.829C564.53 112.829 556.978 109.874 550.88 103.964C544.876 97.9597 541.874 90.4545 541.874 81.4483C541.874 72.3482 544.876 64.8899 550.88 59.0734ZM560.731 95.3798C563.92 98.7571 568.189 100.446 573.536 100.446C578.884 100.446 583.152 98.7571 586.342 95.3798C589.532 91.9087 591.127 87.3117 591.127 81.589C591.127 75.3034 589.391 70.5657 585.92 67.376C582.543 64.1863 578.415 62.5915 573.536 62.5915C568.658 62.5915 564.483 64.1863 561.012 67.376C557.635 70.5657 555.946 75.3034 555.946 81.589C555.946 87.3117 557.541 91.9087 560.731 95.3798ZM668.281 51.7558V111H654.49V64.4209H637.041V87.9215C637.041 95.2391 635.164 100.915 631.412 104.949C626.627 110.296 620.154 112.313 611.992 111V98.335C616.026 99.2731 619.263 98.3819 621.702 95.6613C623.109 93.9726 623.813 91.3927 623.813 87.9215V51.7558H668.281ZM691.602 59.0734C697.7 53.1631 705.253 50.2079 714.259 50.2079C723.265 50.2079 730.77 53.1631 736.774 59.0734C742.872 64.8899 745.921 72.3482 745.921 81.4483C745.921 90.4545 742.872 97.9597 736.774 103.964C730.77 109.874 723.265 112.829 714.259 112.829C705.253 112.829 697.7 109.874 691.602 103.964C685.598 97.9597 682.596 90.4545 682.596 81.4483C682.596 72.3482 685.598 64.8899 691.602 59.0734ZM701.453 95.3798C704.643 98.7571 708.911 100.446 714.259 100.446C719.606 100.446 723.875 98.7571 727.064 95.3798C730.254 91.9087 731.849 87.3117 731.849 81.589C731.849 75.3034 730.113 70.5657 726.642 67.376C723.265 64.1863 719.137 62.5915 714.259 62.5915C709.38 62.5915 705.206 64.1863 701.734 67.376C698.357 70.5657 696.668 75.3034 696.668 81.589C696.668 87.3117 698.263 91.9087 701.453 95.3798ZM760.313 111V51.7558H796.62V64.4209H774.104V111H760.313ZM303.747 236V197.442C295.21 198.099 288.831 198.427 284.609 198.427C274.195 198.427 266.549 196.504 261.671 192.657C255.573 187.873 252.524 180.274 252.524 169.86V142.138H266.878V167.75C266.878 174.786 268.567 179.617 271.944 182.244C274.477 184.214 279.449 185.199 286.86 185.199C292.208 185.199 297.837 184.871 303.747 184.214V142.138H318.101V236H303.747ZM333.784 268.225L355.596 226.712L330.266 176.756H346.871L363.758 211.374L380.926 176.756H396.405L349.263 268.225H333.784ZM399.279 236L413.633 171.408L438.118 216.58L462.604 171.408L476.958 236H462.886L456.975 206.308L438.118 240.503L419.262 206.308L413.351 236H399.279ZM531.006 183.651V176.756H544.797V236H531.006V229.808C526.409 235.156 520.499 237.829 513.275 237.829C504.55 237.829 497.561 234.733 492.308 228.542C487.148 222.35 484.568 214.939 484.568 206.308C484.568 196.926 487.335 189.421 492.87 183.792C498.499 178.069 505.348 175.208 513.416 175.208C520.827 175.208 526.691 178.022 531.006 183.651ZM515.105 187.591C510.226 187.591 506.239 189.421 503.143 193.08C500.141 196.738 498.64 201.242 498.64 206.589C498.64 211.843 500.141 216.299 503.143 219.958C506.239 223.616 510.226 225.446 515.105 225.446C519.795 225.446 523.736 223.804 526.925 220.521C530.209 217.237 531.851 212.64 531.851 206.73C531.851 200.632 530.209 195.941 526.925 192.657C523.736 189.28 519.795 187.591 515.105 187.591ZM562.285 176.756H576.076V197.864L595.777 176.756H614.071L588.178 202.649L615.478 236H598.029L578.327 211.655L576.076 213.907V236H562.285V176.756ZM629.074 184.073C635.172 178.163 642.724 175.208 651.731 175.208C660.737 175.208 668.242 178.163 674.246 184.073C680.344 189.89 683.393 197.348 683.393 206.448C683.393 215.455 680.344 222.96 674.246 228.964C668.242 234.874 660.737 237.829 651.731 237.829C642.724 237.829 635.172 234.874 629.074 228.964C623.07 222.96 620.068 215.455 620.068 206.448C620.068 197.348 623.07 189.89 629.074 184.073ZM638.925 220.38C642.115 223.757 646.383 225.446 651.731 225.446C657.078 225.446 661.347 223.757 664.536 220.38C667.726 216.909 669.321 212.312 669.321 206.589C669.321 200.303 667.585 195.566 664.114 192.376C660.737 189.186 656.609 187.591 651.731 187.591C646.852 187.591 642.678 189.186 639.206 192.376C635.829 195.566 634.14 200.303 634.14 206.589C634.14 212.312 635.735 216.909 638.925 220.38ZM697.785 176.756H721.005C726.915 176.756 731.418 177.929 734.514 180.274C738.173 183.182 740.002 186.982 740.002 191.672C740.002 197.02 737.657 200.866 732.966 203.212C735.968 203.775 738.642 205.088 740.987 207.152C744.083 209.966 745.631 213.766 745.631 218.55C745.631 224.273 743.473 228.776 739.158 232.06C735.593 234.687 731.043 236 725.508 236H697.785V176.756ZM711.576 199.834H718.612C721.052 199.834 722.881 199.412 724.101 198.568C725.883 197.442 726.774 195.847 726.774 193.783C726.774 191.813 725.977 190.265 724.382 189.139C723.256 188.389 721.239 188.014 718.331 188.014H711.576V199.834ZM711.576 224.742H721.849C724.945 224.742 727.337 224.179 729.026 223.054C730.902 221.834 731.84 220.098 731.84 217.847C731.84 215.408 730.949 213.672 729.167 212.64C727.572 211.608 725.273 211.092 722.271 211.092H711.576V224.742ZM803.381 183.651V176.756H817.172V236H803.381V229.808C798.784 235.156 792.874 237.829 785.65 237.829C776.925 237.829 769.936 234.733 764.682 228.542C759.523 222.35 756.943 214.939 756.943 206.308C756.943 196.926 759.71 189.421 765.245 183.792C770.874 178.069 777.723 175.208 785.791 175.208C793.202 175.208 799.066 178.022 803.381 183.651ZM787.479 187.591C782.601 187.591 778.614 189.421 775.518 193.08C772.516 196.738 771.015 201.242 771.015 206.589C771.015 211.843 772.516 216.299 775.518 219.958C778.614 223.616 782.601 225.446 787.479 225.446C792.17 225.446 796.11 223.804 799.3 220.521C802.584 217.237 804.225 212.64 804.225 206.73C804.225 200.632 802.584 195.941 799.3 192.657C796.11 189.28 792.17 187.591 787.479 187.591Z" fill="#1B2260"/>
<path d="M122.717 17.8548C121.861 17.9831 120.578 18.4964 119.851 18.9669C119.166 19.3947 113.093 24.6986 106.334 30.7296L94.144 41.6796L90.8077 41.979C72.8856 43.5616 57.4444 51.8169 46.0239 65.8894C34.9028 79.6624 29.5134 92.7083 29.5134 105.883C29.5134 113.625 30.7966 119.313 34.2612 126.884C35.2022 128.852 35.9294 130.606 35.9294 130.819C35.9294 130.991 33.1063 134.199 29.6845 137.877C20.4454 147.843 17.7079 151.393 16.6813 155.029C15.9114 157.596 16.4247 159.606 18.3495 161.531C20.3171 163.498 23.1829 164.653 29.0856 165.851C31.4809 166.321 33.5768 166.792 33.7907 166.92C33.9618 167.049 33.7479 168.717 33.3202 170.642C32.8925 172.609 32.5075 175.646 32.5075 177.4C32.5075 180.779 32.8069 181.592 35.5872 186.04C37.9825 189.847 38.7097 196.391 37.4265 202.208C36.3143 207.298 36.6565 209.908 38.838 212.175C41.6182 215.126 46.4516 216.281 56.1612 216.324C62.4489 216.324 72.7145 215.725 77.6335 215.04C79.045 214.869 80.2854 214.784 80.371 214.869C80.5848 215.04 78.6173 220.644 76.9919 224.493C75.8798 227.017 75.6659 228.086 75.8798 229.284C76.2647 231.294 77.7618 233.433 79.5583 234.46C81.0126 235.358 81.6114 235.358 118.91 235.486C139.741 235.572 157.748 235.486 158.989 235.358C161.427 235.058 163.437 233.903 164.849 232.021C165.49 231.123 165.747 230.182 165.747 228.343C165.747 225.905 165.661 225.734 162.667 221.841C155.139 211.918 151.674 203.534 151.118 193.782C150.605 184.457 151.803 180.522 159.93 163.969C163.18 157.339 166.602 150.153 167.5 148.014L169.169 144.036H181.958C190.256 144.036 195.303 143.865 196.373 143.566C198.597 142.882 200.992 140.828 201.933 138.733C202.703 137.064 202.746 134.968 202.746 96.4296C202.746 52.0736 202.874 54.255 200.265 51.4747C199.623 50.7904 198.34 49.8921 197.399 49.4644C195.816 48.7372 194.234 48.6517 175.97 48.6517H156.251L143.248 34.1087C129.988 19.2663 128.919 18.2825 125.54 17.7693C124.855 17.6409 123.572 17.6837 122.717 17.8548ZM126.695 23.4154C128.149 24.5275 151.204 50.3626 151.204 50.8331C151.204 51.047 149.578 52.6724 147.654 54.4261L144.061 57.5913L141.879 55.3671C138.415 51.8597 134.308 51.0898 130.074 53.1857C127.379 54.5544 125.625 56.7786 124.898 59.7728C124.043 63.2802 124.984 66.3171 127.764 69.2257L129.261 70.8083L127.379 72.5193C123.529 76.0695 121.818 77.3099 121.262 76.9677C120.963 76.7966 118.653 74.3585 116.13 71.5355C113.563 68.7124 111.296 66.2743 111.04 66.1032C109.714 65.205 107.361 66.4027 107.361 68.0281C107.361 69.4396 106.121 71.5355 104.837 72.3054C100.817 74.6579 95.7694 70.4234 97.5231 66.2316C98.2931 64.3495 99.4479 63.5368 101.843 63.1519C104.495 62.7241 105.222 62.1681 105.222 60.5855C105.222 59.6445 104.153 58.1902 100.303 53.9128C97.4376 50.7476 95.4272 48.1384 95.47 47.7107C95.5983 47.0691 120.92 24.0142 122.674 23.0304C123.829 22.346 125.54 22.4743 126.695 23.4154ZM195.303 53.9984C198.041 55.1105 198.083 55.4099 197.955 75.6845L197.827 93.7777L192.608 93.906L187.39 94.0343L187.647 91.9384C188.631 83.6404 179.049 77.866 172.077 82.5283C168.998 84.5814 167.201 88.9015 167.843 92.4945L168.142 94.0343L162.881 93.906L157.62 93.7777L157.406 85.5224C157.235 78.807 157.064 77.1816 156.55 76.8822C155.481 76.1978 154.455 76.4117 152.786 77.5238C150.562 79.0208 148.039 78.9781 146.242 77.3954C145.13 76.4117 144.831 75.7701 144.659 73.9736C144.488 71.8777 144.574 71.6638 145.985 70.2523C147.226 69.0118 147.782 68.7552 149.365 68.7552C150.648 68.7552 151.717 69.0974 152.786 69.8245C154.626 71.065 155.781 71.1933 156.722 70.2095C157.278 69.6534 157.406 68.2847 157.406 61.7404C157.406 57.463 157.534 53.7845 157.705 53.6562C157.834 53.4851 166.046 53.3568 175.884 53.3568C190.641 53.3568 194.063 53.4851 195.303 53.9984ZM181.188 87.3189C183.07 89.2009 183.198 91.7673 181.573 93.9915C180.29 95.7025 180.204 97.0284 181.274 97.9695C181.915 98.5683 183.369 98.6966 189.957 98.7822L197.827 98.9105L197.955 116.448C197.998 126.072 197.955 134.626 197.827 135.439C197.656 136.209 197.1 137.321 196.544 137.877L195.517 138.904H176.44H157.406V133.814V128.766H160.315C162.41 128.809 163.651 128.552 164.934 127.911C172.077 124.19 172.462 114.394 165.661 110.374C163.993 109.39 163.052 109.176 160.614 109.091L157.62 109.005V103.958V98.9105L165.49 98.7822C172.077 98.6966 173.532 98.5683 174.173 97.9695C175.242 97.0284 175.157 95.7025 173.874 93.9915C172.248 91.7673 172.377 89.2009 174.259 87.3189C175.499 86.0784 176.012 85.8646 177.723 85.8646C179.434 85.8646 179.948 86.0784 181.188 87.3189ZM122.674 101.349C122.588 107.465 126.695 111.7 132.683 111.657C135.891 111.614 138.971 109.946 140.724 107.337C142.179 105.113 142.649 103.273 142.307 100.579L142.093 98.6966H147.397H152.701V106.781C152.701 114.694 152.744 114.908 153.642 115.549C154.925 116.49 155.609 116.405 157.149 115.207C158.989 113.796 160.186 113.539 161.897 114.095C165.447 115.293 166.731 119.57 164.335 122.265C163.351 123.334 162.71 123.676 160.999 123.805C159.16 123.976 158.689 123.89 157.534 122.906C156.037 121.666 154.369 121.452 153.385 122.479C152.829 123.035 152.701 124.446 152.701 131.033V138.904H133.709H114.761L113.606 137.792L112.494 136.637V117.902C112.494 103.359 112.622 99.1671 113.05 98.996C113.307 98.8677 115.616 98.7394 118.14 98.7394L122.717 98.6966L122.674 101.349Z" fill="#1B2260"/>
</svg>
