<svg width="946" height="111" viewBox="0 0 946 111" fill="none" xmlns="http://www.w3.org/2000/svg">
<path d="M102.539 27.0723H148.053V89.0273H138.579V35.9893H112.013V89.0273H102.539V27.0723ZM191.56 51.6871V61.9046C188.278 58.6845 184.593 57.0745 180.506 57.0745C177.039 57.0745 174.159 58.2201 171.868 60.5113C169.639 62.7406 168.524 65.7439 168.524 69.5213C168.524 73.4225 169.701 76.5496 172.054 78.9028C174.283 81.0082 177.039 82.0609 180.321 82.0609C184.841 82.0609 188.588 80.3889 191.56 77.045V87.1696C188.278 89.2131 184.315 90.2349 179.67 90.2349C173.416 90.2349 168.462 88.3152 164.809 84.4759C161.093 80.6366 159.236 75.7446 159.236 69.7999C159.236 63.6694 161.217 58.6226 165.18 54.6595C169.02 50.8202 174.252 48.9005 180.878 48.9005C184.655 48.9005 188.216 49.8294 191.56 51.6871ZM200.284 49.9223H209.387V72.1221L236.138 46.3926V89.0273H227.035V66.2702L200.284 91.9997V49.9223ZM242.432 89.0273L259.709 67.8493L245.776 49.9223H256.551L265.19 61.3473L273.921 49.9223H285.067L270.67 67.8493L287.389 89.0273H276.429L265.19 74.4442L253.579 89.0273H242.432ZM297.616 54.7524C301.641 50.8511 306.626 48.9005 312.57 48.9005C318.515 48.9005 323.469 50.8511 327.432 54.7524C331.457 58.5916 333.47 63.5146 333.47 69.5213C333.47 75.466 331.457 80.4199 327.432 84.383C323.469 88.2843 318.515 90.2349 312.57 90.2349C306.626 90.2349 301.641 88.2843 297.616 84.383C293.652 80.4199 291.671 75.466 291.671 69.5213C291.671 63.5146 293.652 58.5916 297.616 54.7524ZM304.118 78.717C306.223 80.9462 309.041 82.0609 312.57 82.0609C316.1 82.0609 318.917 80.9462 321.023 78.717C323.128 76.4258 324.181 73.3915 324.181 69.6141C324.181 65.4652 323.035 62.3381 320.744 60.2326C318.515 58.1272 315.79 57.0745 312.57 57.0745C309.35 57.0745 306.595 58.1272 304.303 60.2326C302.074 62.3381 300.959 65.4652 300.959 69.6141C300.959 73.3915 302.012 76.4258 304.118 78.717ZM375.108 49.9223V89.0273H366.005V58.282H354.487V73.794C354.487 78.6241 353.249 82.3705 350.772 85.0332C347.614 88.5629 343.341 89.8943 337.954 89.0273V80.6676C340.616 81.2868 342.753 80.6986 344.363 78.9028C345.292 77.7881 345.756 76.0852 345.756 73.794V49.9223H375.108ZM390.502 54.7524C394.527 50.8511 399.512 48.9005 405.456 48.9005C411.401 48.9005 416.355 50.8511 420.318 54.7524C424.343 58.5916 426.356 63.5146 426.356 69.5213C426.356 75.466 424.343 80.4199 420.318 84.383C416.355 88.2843 411.401 90.2349 405.456 90.2349C399.512 90.2349 394.527 88.2843 390.502 84.383C386.539 80.4199 384.557 75.466 384.557 69.5213C384.557 63.5146 386.539 58.5916 390.502 54.7524ZM397.004 78.717C399.109 80.9462 401.927 82.0609 405.456 82.0609C408.986 82.0609 411.804 80.9462 413.909 78.717C416.014 76.4258 417.067 73.3915 417.067 69.6141C417.067 65.4652 415.922 62.3381 413.63 60.2326C411.401 58.1272 408.676 57.0745 405.456 57.0745C402.236 57.0745 399.481 58.1272 397.19 60.2326C394.96 62.3381 393.846 65.4652 393.846 69.6141C393.846 73.3915 394.898 76.4258 397.004 78.717ZM435.856 89.0273V49.9223H459.82V58.282H444.958V89.0273H435.856ZM521.638 89.0273V63.5765C516.003 64.01 511.792 64.2267 509.006 64.2267C502.132 64.2267 497.085 62.9573 493.865 60.4184C489.84 57.2603 487.828 52.2444 487.828 45.3708V27.0723H497.302V43.9776C497.302 48.6219 498.417 51.811 500.646 53.5448C502.318 54.8452 505.6 55.4954 510.492 55.4954C514.021 55.4954 517.737 55.2787 521.638 54.8452V27.0723H531.113V89.0273H521.638ZM541.464 110.298L555.862 82.8969L539.142 49.9223H550.103L561.249 72.7723L572.581 49.9223H582.799L551.682 110.298H541.464ZM584.695 89.0273L594.17 46.3926L610.332 76.2091L626.494 46.3926L635.969 89.0273H626.68L622.779 69.4284L610.332 91.9997L597.885 69.4284L593.984 89.0273H584.695ZM671.644 54.4737V49.9223H680.747V89.0273H671.644V84.9404C668.61 88.47 664.709 90.2349 659.941 90.2349C654.182 90.2349 649.568 88.1914 646.1 84.1044C642.695 80.0174 640.992 75.1254 640.992 69.4284C640.992 63.236 642.819 58.282 646.472 54.5666C650.187 50.7892 654.708 48.9005 660.033 48.9005C664.925 48.9005 668.796 50.7582 671.644 54.4737ZM661.148 57.0745C657.928 57.0745 655.296 58.282 653.253 60.6971C651.271 63.1121 650.28 66.0845 650.28 69.6141C650.28 73.0819 651.271 76.0233 653.253 78.4383C655.296 80.8534 657.928 82.0609 661.148 82.0609C664.244 82.0609 666.845 80.9772 668.95 78.8099C671.118 76.6425 672.202 73.6082 672.202 69.707C672.202 65.682 671.118 62.5858 668.95 60.4184C666.845 58.1891 664.244 57.0745 661.148 57.0745ZM692.29 49.9223H701.393V63.8552L714.397 49.9223H726.472L709.381 67.0133L727.401 89.0273H715.883L702.879 72.958L701.393 74.4442V89.0273H692.29V49.9223ZM736.376 54.7524C740.401 50.8511 745.386 48.9005 751.33 48.9005C757.275 48.9005 762.229 50.8511 766.192 54.7524C770.217 58.5916 772.23 63.5146 772.23 69.5213C772.23 75.466 770.217 80.4199 766.192 84.383C762.229 88.2843 757.275 90.2349 751.33 90.2349C745.386 90.2349 740.401 88.2843 736.376 84.383C732.413 80.4199 730.431 75.466 730.431 69.5213C730.431 63.5146 732.413 58.5916 736.376 54.7524ZM742.878 78.717C744.983 80.9462 747.801 82.0609 751.33 82.0609C754.86 82.0609 757.678 80.9462 759.783 78.717C761.888 76.4258 762.941 73.3915 762.941 69.6141C762.941 65.4652 761.796 62.3381 759.504 60.2326C757.275 58.1272 754.55 57.0745 751.33 57.0745C748.11 57.0745 745.355 58.1272 743.063 60.2326C740.834 62.3381 739.72 65.4652 739.72 69.6141C739.72 73.3915 740.772 76.4258 742.878 78.717ZM781.73 49.9223H797.056C800.957 49.9223 803.929 50.6963 805.973 52.2444C808.388 54.1641 809.595 56.672 809.595 59.7682C809.595 63.2979 808.047 65.8368 804.951 67.3849C806.933 67.7564 808.697 68.6234 810.246 69.9857C812.289 71.8434 813.311 74.3513 813.311 77.5095C813.311 81.2868 811.887 84.2592 809.038 86.4265C806.685 88.1604 803.682 89.0273 800.028 89.0273H781.73V49.9223ZM790.832 65.1556H795.477C797.087 65.1556 798.294 64.8769 799.099 64.3196C800.276 63.5765 800.864 62.5238 800.864 61.1615C800.864 59.8611 800.338 58.8393 799.285 58.0963C798.542 57.6009 797.211 57.3532 795.291 57.3532H790.832V65.1556ZM790.832 81.5965H797.613C799.657 81.5965 801.236 81.2249 802.35 80.4818C803.589 79.6768 804.208 78.5312 804.208 77.045C804.208 75.435 803.62 74.2894 802.443 73.6082C801.39 72.9271 799.873 72.5865 797.892 72.5865H790.832V81.5965ZM851.43 54.4737V49.9223H860.533V89.0273H851.43V84.9404C848.395 88.47 844.494 90.2349 839.726 90.2349C833.967 90.2349 829.354 88.1914 825.886 84.1044C822.48 80.0174 820.777 75.1254 820.777 69.4284C820.777 63.236 822.604 58.282 826.258 54.5666C829.973 50.7892 834.493 48.9005 839.819 48.9005C844.711 48.9005 848.581 50.7582 851.43 54.4737ZM840.934 57.0745C837.714 57.0745 835.082 58.282 833.038 60.6971C831.057 63.1121 830.066 66.0845 830.066 69.6141C830.066 73.0819 831.057 76.0233 833.038 78.4383C835.082 80.8534 837.714 82.0609 840.934 82.0609C844.03 82.0609 846.631 80.9772 848.736 78.8099C850.903 76.6425 851.987 73.6082 851.987 69.707C851.987 65.682 850.903 62.5858 848.736 60.4184C846.631 58.1891 844.03 57.0745 840.934 57.0745Z" fill="#1B2260"/>
<path d="M49.8712 0.347429C49.5235 0.399577 49.002 0.608172 48.7065 0.799383C48.4284 0.973211 45.9601 3.12868 43.2136 5.57966L38.2595 10.0297L36.9036 10.1513C29.6202 10.7945 23.345 14.1494 18.7038 19.8683C14.1843 25.4656 11.994 30.7673 11.994 36.1213C11.994 39.2675 12.5155 41.5795 13.9235 44.6562C14.306 45.4558 14.6015 46.1685 14.6015 46.2554C14.6015 46.325 13.4542 47.6287 12.0636 49.1236C8.30888 53.1738 7.19638 54.6166 6.77919 56.0941C6.4663 57.1371 6.6749 57.9541 7.45712 58.7363C8.25673 59.5359 9.42138 60.0052 11.8202 60.492C12.7936 60.6832 13.6454 60.8744 13.7323 60.9265C13.8019 60.9787 13.7149 61.6566 13.5411 62.4388C13.3673 63.2384 13.2108 64.4726 13.2108 65.1853C13.2108 66.5586 13.3325 66.8888 14.4624 68.6967C15.4358 70.2437 15.7313 72.9033 15.2099 75.2674C14.7579 77.3359 14.897 78.3963 15.7835 79.3175C16.9134 80.517 18.8776 80.9863 22.8235 81.0037C25.3788 81.0037 29.5507 80.7603 31.5497 80.4822C32.1233 80.4127 32.6274 80.3779 32.6622 80.4127C32.7491 80.4822 31.9495 82.7593 31.289 84.3238C30.837 85.3494 30.7501 85.784 30.837 86.2707C30.9935 87.0877 31.6019 87.9568 32.3319 88.374C32.9229 88.739 33.1663 88.739 48.3241 88.7912C56.7895 88.8259 64.1077 88.7912 64.6118 88.739C65.6026 88.6174 66.4196 88.148 66.9933 87.3832C67.254 87.0181 67.3583 86.6357 67.3583 85.8883C67.3583 84.8974 67.3235 84.8279 66.1067 83.2461C63.0474 79.2133 61.6394 75.8062 61.4134 71.8429C61.2048 68.0535 61.6915 66.4543 64.9942 59.7271C66.3153 57.0328 67.706 54.1125 68.071 53.2433L68.7489 51.6267H73.9464C77.3186 51.6267 79.3698 51.5572 79.8044 51.4355C80.7083 51.1574 81.6817 50.323 82.0642 49.4713C82.377 48.7933 82.3944 47.9416 82.3944 32.2797C82.3944 14.2537 82.4466 15.1402 81.3862 14.0103C81.1255 13.7322 80.604 13.3672 80.2216 13.1933C79.5784 12.8978 78.9353 12.8631 71.5128 12.8631H63.4993L58.2149 6.9529C52.8263 0.921061 52.3917 0.521255 51.0185 0.312661C50.7403 0.260512 50.2188 0.277897 49.8712 0.347429ZM51.4878 2.60719C52.0788 3.05915 61.4481 13.5584 61.4481 13.7496C61.4481 13.8365 60.7876 14.497 60.0054 15.2097L58.5452 16.4961L57.6587 15.5922C56.2507 14.1668 54.5819 13.8539 52.861 14.7056C51.7659 15.2619 51.0532 16.1658 50.7577 17.3826C50.4101 18.808 50.7925 20.0422 51.9224 21.2242L52.5308 21.8673L51.7659 22.5627C50.2015 24.0054 49.5061 24.5095 49.2802 24.3705C49.1585 24.3009 48.2198 23.3101 47.1942 22.1629C46.1513 21.0156 45.23 20.0248 45.1257 19.9552C44.5868 19.5902 43.6308 20.0769 43.6308 20.7375C43.6308 21.3111 43.1267 22.1629 42.6052 22.4757C40.9712 23.4318 38.92 21.7109 39.6327 20.0074C39.9456 19.2425 40.4149 18.9123 41.3884 18.7558C42.4661 18.582 42.7616 18.356 42.7616 17.7129C42.7616 17.3304 42.327 16.7394 40.7626 15.0011C39.5979 13.7148 38.781 12.6545 38.7983 12.4806C38.8505 12.2199 49.1411 2.85055 49.8538 2.45075C50.3231 2.17262 51.0185 2.22477 51.4878 2.60719ZM79.3698 15.0359C80.4823 15.4879 80.4997 15.6095 80.4476 23.849L80.3954 31.2019L78.2747 31.2541L76.154 31.3062L76.2583 30.4545C76.6581 27.0822 72.7644 24.7355 69.931 26.6302C68.6794 27.4646 67.9493 29.2203 68.2101 30.6804L68.3317 31.3062L66.1936 31.2541L64.0556 31.2019L63.9687 27.847C63.8991 25.1179 63.8296 24.4574 63.621 24.3357C63.1864 24.0576 62.7692 24.1445 62.0913 24.5965C61.1874 25.2049 60.1618 25.1875 59.4317 24.5443C58.9798 24.1445 58.8581 23.8838 58.7886 23.1537C58.719 22.3019 58.7538 22.215 59.3274 21.6414C59.8315 21.1373 60.0575 21.033 60.7007 21.033C61.2222 21.033 61.6567 21.172 62.0913 21.4675C62.8388 21.9716 63.3081 22.0238 63.6905 21.624C63.9165 21.398 63.9687 20.8418 63.9687 18.1822C63.9687 16.4439 64.0208 14.949 64.0903 14.8968C64.1425 14.8273 67.48 14.7752 71.478 14.7752C77.4751 14.7752 78.8657 14.8273 79.3698 15.0359ZM73.6335 28.5771C74.3983 29.342 74.4505 30.3849 73.7899 31.2888C73.2685 31.9841 73.2337 32.523 73.6683 32.9054C73.929 33.1488 74.52 33.2009 77.197 33.2357L80.3954 33.2879L80.4476 40.4148C80.4649 44.3259 80.4476 47.8025 80.3954 48.1328C80.3259 48.4457 80.0999 48.8976 79.8739 49.1236L79.4567 49.5408H71.704H63.9687V47.4722V45.4211H65.1507C66.0024 45.4384 66.5065 45.3341 67.028 45.0734C69.931 43.5611 70.0874 39.5804 67.3235 37.9464C66.6456 37.5466 66.2632 37.4597 65.2724 37.425L64.0556 37.3902V35.339V33.2879L67.254 33.2357C69.931 33.2009 70.522 33.1488 70.7827 32.9054C71.2173 32.523 71.1825 31.9841 70.661 31.2888C70.0005 30.3849 70.0526 29.342 70.8175 28.5771C71.3216 28.073 71.5302 27.9861 72.2255 27.9861C72.9208 27.9861 73.1294 28.073 73.6335 28.5771ZM49.8538 34.2787C49.819 36.7644 51.4878 38.4853 53.9214 38.4679C55.2251 38.4506 56.4767 37.7726 57.1894 36.7123C57.7804 35.8084 57.9716 35.0609 57.8325 33.9658L57.7456 33.2009H59.9011H62.0565V36.4863C62.0565 39.7021 62.0739 39.789 62.439 40.0498C62.9604 40.4322 63.2386 40.3974 63.8644 39.9107C64.6118 39.3371 65.0985 39.2328 65.7938 39.4588C67.2366 39.9455 67.7581 41.6838 66.7847 42.7789C66.3849 43.2134 66.1241 43.3525 65.4288 43.4047C64.6813 43.4742 64.4901 43.4394 64.0208 43.0396C63.4124 42.5355 62.7345 42.4486 62.3347 42.8658C62.1087 43.0918 62.0565 43.6654 62.0565 46.3424V49.5408H54.3386H46.638L46.1686 49.0888L45.7167 48.6195V41.0058C45.7167 35.0957 45.7688 33.3922 45.9427 33.3226C46.047 33.2705 46.9856 33.2183 48.0112 33.2183L49.8712 33.2009L49.8538 34.2787Z" fill="#1B2260"/>
</svg>
