<svg width="11" height="12" viewBox="0 0 11 12" fill="none" xmlns="http://www.w3.org/2000/svg">
<path fill-rule="evenodd" clip-rule="evenodd" d="M5.45944 10.0928C7.8285 10.0928 9.749 8.17225 9.749 5.80319C9.749 3.43413 7.8285 1.51363 5.45944 1.51363C3.09038 1.51363 1.16988 3.43413 1.16988 5.80319C1.16988 8.17225 3.09038 10.0928 5.45944 10.0928ZM5.45944 11.2626C8.47461 11.2626 10.9189 8.81836 10.9189 5.80319C10.9189 2.78803 8.47461 0.34375 5.45944 0.34375C2.44428 0.34375 0 2.78803 0 5.80319C0 8.81836 2.44428 11.2626 5.45944 11.2626Z" fill="#059B98"/>
<path fill-rule="evenodd" clip-rule="evenodd" d="M8.28498 4.1622C8.52115 4.38263 8.53391 4.75277 8.31349 4.98894L5.48266 8.02196C5.37204 8.14049 5.21718 8.20779 5.05504 8.20779C4.89291 8.20779 4.73804 8.14049 4.62742 8.02196L3.21201 6.50545C2.99158 6.26928 3.00434 5.89914 3.24051 5.67871C3.47668 5.45829 3.84683 5.47105 4.06725 5.70722L5.05504 6.76557L7.45824 4.19071C7.67866 3.95454 8.04881 3.94178 8.28498 4.1622Z" fill="#059B98"/>
</svg>
