<svg width="11" height="11" viewBox="0 0 11 11" fill="none" xmlns="http://www.w3.org/2000/svg">
<path fill-rule="evenodd" clip-rule="evenodd" d="M5.45944 9.749C7.8285 9.749 9.749 7.8285 9.749 5.45944C9.749 3.09038 7.8285 1.16988 5.45944 1.16988C3.09038 1.16988 1.16988 3.09038 1.16988 5.45944C1.16988 7.8285 3.09038 9.749 5.45944 9.749ZM5.45944 10.9189C8.47461 10.9189 10.9189 8.47461 10.9189 5.45944C10.9189 2.44428 8.47461 0 5.45944 0C2.44428 0 0 2.44428 0 5.45944C0 8.47461 2.44428 10.9189 5.45944 10.9189Z" fill="#8747BA"/>
<path fill-rule="evenodd" clip-rule="evenodd" d="M8.28498 3.81845C8.52115 4.03888 8.53391 4.40902 8.31349 4.64519L5.48266 7.67821C5.37204 7.79674 5.21718 7.86404 5.05504 7.86404C4.89291 7.86404 4.73804 7.79674 4.62742 7.67821L3.21201 6.1617C2.99158 5.92553 3.00434 5.55539 3.24051 5.33496C3.47668 5.11454 3.84683 5.1273 4.06725 5.36347L5.05504 6.42182L7.45824 3.84696C7.67866 3.61079 8.04881 3.59803 8.28498 3.81845Z" fill="#8747BA"/>
</svg>
