<svg width="32" height="32" viewBox="0 0 32 32" fill="none" xmlns="http://www.w3.org/2000/svg">
<path d="M25.3337 29.7333L24.5337 29.0666C21.867 26.5333 20.0003 24.9333 20.0003 22.9333C20.0003 21.3333 21.3337 19.9999 22.9337 19.9999C23.867 19.9999 24.8003 20.3999 25.3337 21.0666C25.867 20.3999 26.8003 19.9999 27.7337 19.9999C29.3337 19.9999 30.667 21.1999 30.667 22.9333C30.667 24.9333 28.8003 26.5333 26.1337 29.0666L25.3337 29.7333V29.7333ZM27.3337 14.6666H25.3337V9.33325C25.3337 8.62601 25.0527 7.94773 24.5526 7.44763C24.0525 6.94754 23.3742 6.66659 22.667 6.66659H17.3337V4.66659C17.3337 3.78253 16.9825 2.93468 16.3573 2.30956C15.7322 1.68444 14.8844 1.33325 14.0003 1.33325C13.1163 1.33325 12.2684 1.68444 11.6433 2.30956C11.0182 2.93468 10.667 3.78253 10.667 4.66659V6.66659H5.33366C3.86699 6.66659 2.66699 7.86659 2.66699 9.33325V14.3999H4.66699C6.66699 14.3999 8.26699 15.9999 8.26699 17.9999C8.26699 19.9999 6.66699 21.5999 4.66699 21.5999H2.66699V26.6666C2.66699 27.3738 2.94794 28.0521 3.44804 28.5522C3.94814 29.0523 4.62641 29.3333 5.33366 29.3333H10.4003V27.3333C10.4003 25.3333 12.0003 23.7333 14.0003 23.7333C15.2537 23.7333 16.3603 24.3599 17.0003 25.3333H17.4537C17.387 24.8933 17.3337 24.4533 17.3337 23.9999C17.3337 19.5866 20.9203 15.9999 25.3337 15.9999C27.387 15.9999 29.2537 16.7733 30.667 18.0399V17.9999C30.667 17.1159 30.3158 16.268 29.6907 15.6429C29.0656 15.0178 28.2177 14.6666 27.3337 14.6666V14.6666Z" fill="#1B2260"/>
</svg>
