<svg width="211" height="167" viewBox="0 0 211 167" fill="none" xmlns="http://www.w3.org/2000/svg">
<path d="M13.4573 137H0.449532L7.62141 123.559H0.449532V120.195H13.4573L6.30891 133.637H13.4573V137ZM27.6014 137H26.828L25.5858 135.277C25.2811 135.551 24.9569 135.809 24.6131 136.051C24.2772 136.285 23.9217 136.492 23.5467 136.672C23.1717 136.844 22.785 136.98 22.3866 137.082C21.9959 137.184 21.5975 137.234 21.1912 137.234C20.3084 137.234 19.4764 137.086 18.6952 136.789C17.9217 136.492 17.242 136.062 16.6561 135.5C16.078 134.93 15.6209 134.234 15.285 133.414C14.9491 132.594 14.7811 131.66 14.7811 130.613C14.7811 129.637 14.9491 128.742 15.285 127.93C15.6209 127.109 16.078 126.406 16.6561 125.82C17.242 125.234 17.9217 124.781 18.6952 124.461C19.4764 124.133 20.3084 123.969 21.1912 123.969C21.5975 123.969 21.9998 124.02 22.3983 124.121C22.7967 124.223 23.1834 124.363 23.5584 124.543C23.9334 124.723 24.2889 124.934 24.6248 125.176C24.9686 125.418 25.2889 125.68 25.5858 125.961L26.828 124.473H27.6014V137ZM24.3787 130.613C24.3787 130.176 24.2928 129.754 24.1209 129.348C23.9569 128.934 23.7303 128.57 23.4412 128.258C23.1522 127.938 22.8123 127.684 22.4217 127.496C22.0389 127.301 21.6287 127.203 21.1912 127.203C20.7537 127.203 20.3397 127.277 19.9491 127.426C19.5662 127.574 19.2303 127.793 18.9412 128.082C18.66 128.371 18.4373 128.73 18.2733 129.16C18.1092 129.582 18.0272 130.066 18.0272 130.613C18.0272 131.16 18.1092 131.648 18.2733 132.078C18.4373 132.5 18.66 132.855 18.9412 133.145C19.2303 133.434 19.5662 133.652 19.9491 133.801C20.3397 133.949 20.7537 134.023 21.1912 134.023C21.6287 134.023 22.0389 133.93 22.4217 133.742C22.8123 133.547 23.1522 133.293 23.4412 132.98C23.7303 132.66 23.9569 132.297 24.1209 131.891C24.2928 131.477 24.3787 131.051 24.3787 130.613ZM34.3041 121.039C34.3041 121.336 34.2455 121.613 34.1283 121.871C34.0189 122.129 33.8666 122.355 33.6712 122.551C33.4759 122.738 33.2455 122.891 32.9798 123.008C32.722 123.117 32.4447 123.172 32.1478 123.172C31.8509 123.172 31.5697 123.117 31.3041 123.008C31.0462 122.891 30.8197 122.738 30.6244 122.551C30.4369 122.355 30.2845 122.129 30.1673 121.871C30.058 121.613 30.0033 121.336 30.0033 121.039C30.0033 120.75 30.058 120.477 30.1673 120.219C30.2845 119.953 30.4369 119.727 30.6244 119.539C30.8197 119.344 31.0462 119.191 31.3041 119.082C31.5697 118.965 31.8509 118.906 32.1478 118.906C32.4447 118.906 32.722 118.965 32.9798 119.082C33.2455 119.191 33.4759 119.344 33.6712 119.539C33.8666 119.727 34.0189 119.953 34.1283 120.219C34.2455 120.477 34.3041 120.75 34.3041 121.039ZM33.7533 137H30.5306V124.449H33.7533V137ZM42.9755 137C42.202 137 41.4755 136.855 40.7958 136.566C40.1161 136.27 39.5184 135.867 39.0028 135.359C38.495 134.844 38.0927 134.246 37.7958 133.566C37.5067 132.887 37.3622 132.16 37.3622 131.387V127.66H35.8036V124.473H37.3622V119.457H40.5497V124.473H45.4012V127.66H40.5497V131.387C40.5497 131.723 40.6122 132.039 40.7372 132.336C40.8622 132.625 41.0341 132.879 41.2528 133.098C41.4716 133.316 41.7294 133.492 42.0262 133.625C42.3231 133.75 42.6395 133.812 42.9755 133.812H45.4012V137H42.9755ZM54.5766 137H47.2641V133.812H54.5766C54.7953 133.812 54.9828 133.734 55.1391 133.578C55.2953 133.422 55.3734 133.234 55.3734 133.016C55.3734 132.789 55.2953 132.641 55.1391 132.57C54.9828 132.5 54.7953 132.465 54.5766 132.465H51.2484C50.6937 132.465 50.1742 132.359 49.6898 132.148C49.2055 131.938 48.7836 131.652 48.4242 131.293C48.0648 130.926 47.7797 130.5 47.5687 130.016C47.3656 129.531 47.2641 129.012 47.2641 128.457C47.2641 127.902 47.3656 127.383 47.5687 126.898C47.7797 126.414 48.0648 125.992 48.4242 125.633C48.7836 125.273 49.2055 124.992 49.6898 124.789C50.1742 124.578 50.6937 124.473 51.2484 124.473H57.7289V127.66H51.2484C51.0297 127.66 50.8422 127.738 50.6859 127.895C50.5297 128.051 50.4516 128.238 50.4516 128.457C50.4516 128.684 50.5297 128.879 50.6859 129.043C50.8422 129.199 51.0297 129.277 51.2484 129.277H54.5766C55.1234 129.277 55.6391 129.371 56.1234 129.559C56.6078 129.738 57.0297 129.992 57.3891 130.32C57.7484 130.648 58.0336 131.043 58.2445 131.504C58.4555 131.965 58.5609 132.469 58.5609 133.016C58.5609 133.57 58.4555 134.09 58.2445 134.574C58.0336 135.051 57.7484 135.473 57.3891 135.84C57.0297 136.199 56.6078 136.484 56.1234 136.695C55.6391 136.898 55.1234 137 54.5766 137ZM65.7441 133.93C65.8691 133.969 65.9941 133.996 66.1191 134.012C66.2441 134.02 66.3691 134.023 66.4941 134.023C66.8066 134.023 67.1073 133.98 67.3964 133.895C67.6855 133.809 67.955 133.688 68.205 133.531C68.4628 133.367 68.6894 133.172 68.8847 132.945C69.0878 132.711 69.2519 132.453 69.3769 132.172L71.7206 134.527C71.4238 134.949 71.08 135.328 70.6894 135.664C70.3066 136 69.8886 136.285 69.4355 136.52C68.9902 136.754 68.5175 136.93 68.0175 137.047C67.5253 137.172 67.0175 137.234 66.4941 137.234C65.6113 137.234 64.7792 137.07 63.998 136.742C63.2245 136.414 62.5448 135.957 61.9589 135.371C61.3808 134.785 60.9238 134.09 60.5878 133.285C60.2519 132.473 60.0839 131.582 60.0839 130.613C60.0839 129.621 60.2519 128.715 60.5878 127.895C60.9238 127.074 61.3808 126.375 61.9589 125.797C62.5448 125.219 63.2245 124.77 63.998 124.449C64.7792 124.129 65.6113 123.969 66.4941 123.969C67.0175 123.969 67.5292 124.031 68.0292 124.156C68.5292 124.281 69.0019 124.461 69.4472 124.695C69.9003 124.93 70.3222 125.219 70.7128 125.562C71.1034 125.898 71.4472 126.277 71.7441 126.699L65.7441 133.93ZM67.3847 127.332C67.2363 127.277 67.0878 127.242 66.9394 127.227C66.7988 127.211 66.6503 127.203 66.4941 127.203C66.0566 127.203 65.6425 127.285 65.2519 127.449C64.8691 127.605 64.5331 127.832 64.2441 128.129C63.9628 128.426 63.7402 128.785 63.5761 129.207C63.412 129.621 63.33 130.09 63.33 130.613C63.33 130.73 63.3339 130.863 63.3417 131.012C63.3573 131.16 63.3769 131.312 63.4003 131.469C63.4316 131.617 63.4667 131.762 63.5058 131.902C63.5448 132.043 63.5956 132.168 63.6581 132.277L67.3847 127.332ZM77.2397 137L72.4584 124.449H76.103L78.8452 132.277L81.5756 124.449H85.2319L80.4506 137H77.2397ZM89.79 125.48H87.3642L86.8838 120.195H90.2705L89.79 125.48ZM100.043 137H92.7309V133.812H100.043C100.262 133.812 100.45 133.734 100.606 133.578C100.762 133.422 100.84 133.234 100.84 133.016C100.84 132.789 100.762 132.641 100.606 132.57C100.45 132.5 100.262 132.465 100.043 132.465H96.7153C96.1606 132.465 95.6411 132.359 95.1567 132.148C94.6723 131.938 94.2505 131.652 93.8911 131.293C93.5317 130.926 93.2466 130.5 93.0356 130.016C92.8325 129.531 92.7309 129.012 92.7309 128.457C92.7309 127.902 92.8325 127.383 93.0356 126.898C93.2466 126.414 93.5317 125.992 93.8911 125.633C94.2505 125.273 94.6723 124.992 95.1567 124.789C95.6411 124.578 96.1606 124.473 96.7153 124.473H103.196V127.66H96.7153C96.4966 127.66 96.3091 127.738 96.1528 127.895C95.9966 128.051 95.9184 128.238 95.9184 128.457C95.9184 128.684 95.9966 128.879 96.1528 129.043C96.3091 129.199 96.4966 129.277 96.7153 129.277H100.043C100.59 129.277 101.106 129.371 101.59 129.559C102.075 129.738 102.497 129.992 102.856 130.32C103.215 130.648 103.5 131.043 103.711 131.504C103.922 131.965 104.028 132.469 104.028 133.016C104.028 133.57 103.922 134.09 103.711 134.574C103.5 135.051 103.215 135.473 102.856 135.84C102.497 136.199 102.075 136.484 101.59 136.695C101.106 136.898 100.59 137 100.043 137Z" fill="white"/>
<path d="M37.5414 149.234C37.5414 148.539 37.6742 147.887 37.9398 147.277C38.2055 146.668 38.5648 146.137 39.018 145.684C39.4789 145.223 40.0141 144.859 40.6234 144.594C41.2328 144.328 41.8852 144.195 42.5805 144.195H50.2914V147.559H42.5805C42.3461 147.559 42.1273 147.602 41.9242 147.688C41.7211 147.773 41.5414 147.895 41.3852 148.051C41.2367 148.199 41.1195 148.375 41.0336 148.578C40.9477 148.781 40.9047 149 40.9047 149.234C40.9047 149.469 40.9477 149.691 41.0336 149.902C41.1195 150.105 41.2367 150.285 41.3852 150.441C41.5414 150.59 41.7211 150.707 41.9242 150.793C42.1273 150.879 42.3461 150.922 42.5805 150.922H45.9437C46.6391 150.922 47.2914 151.055 47.9008 151.32C48.518 151.578 49.0531 151.938 49.5062 152.398C49.9672 152.852 50.3266 153.387 50.5844 154.004C50.85 154.613 50.9828 155.266 50.9828 155.961C50.9828 156.656 50.85 157.309 50.5844 157.918C50.3266 158.527 49.9672 159.062 49.5062 159.523C49.0531 159.977 48.518 160.336 47.9008 160.602C47.2914 160.867 46.6391 161 45.9437 161H38.4789V157.637H45.9437C46.1781 157.637 46.3969 157.594 46.6 157.508C46.8031 157.422 46.9789 157.305 47.1273 157.156C47.2836 157 47.4047 156.82 47.4906 156.617C47.5766 156.414 47.6195 156.195 47.6195 155.961C47.6195 155.727 47.5766 155.508 47.4906 155.305C47.4047 155.102 47.2836 154.926 47.1273 154.777C46.9789 154.621 46.8031 154.5 46.6 154.414C46.3969 154.328 46.1781 154.285 45.9437 154.285H42.5805C41.8852 154.285 41.2328 154.152 40.6234 153.887C40.0141 153.621 39.4789 153.262 39.018 152.809C38.5648 152.348 38.2055 151.812 37.9398 151.203C37.6742 150.586 37.5414 149.93 37.5414 149.234ZM59.4198 161C58.6464 161 57.9198 160.855 57.2402 160.566C56.5605 160.27 55.9628 159.867 55.4472 159.359C54.9394 158.844 54.537 158.246 54.2402 157.566C53.9511 156.887 53.8066 156.16 53.8066 155.387V151.66H52.248V148.473H53.8066V143.457H56.9941V148.473H61.8456V151.66H56.9941V155.387C56.9941 155.723 57.0566 156.039 57.1816 156.336C57.3066 156.625 57.4784 156.879 57.6972 157.098C57.9159 157.316 58.1738 157.492 58.4706 157.625C58.7675 157.75 59.0839 157.812 59.4198 157.812H61.8456V161H59.4198ZM73.353 159.535C73.0952 159.77 72.8178 159.992 72.5209 160.203C72.2319 160.406 71.9272 160.586 71.6069 160.742C71.2866 160.891 70.9545 161.008 70.6108 161.094C70.2748 161.188 69.9311 161.234 69.5795 161.234C68.8061 161.234 68.0795 161.098 67.3998 160.824C66.7202 160.551 66.1225 160.164 65.6069 159.664C65.0991 159.156 64.6967 158.543 64.3998 157.824C64.1108 157.098 63.9662 156.285 63.9662 155.387V148.449H67.1537V155.387C67.1537 155.809 67.2162 156.188 67.3412 156.523C67.4741 156.852 67.6498 157.129 67.8686 157.355C68.0873 157.582 68.3412 157.754 68.6303 157.871C68.9272 157.988 69.2436 158.047 69.5795 158.047C69.9077 158.047 70.2162 157.973 70.5053 157.824C70.8022 157.668 71.06 157.465 71.2787 157.215C71.4975 156.965 71.6694 156.684 71.7944 156.371C71.9194 156.051 71.9819 155.723 71.9819 155.387V148.449H75.1811V161H74.4077L73.353 159.535ZM90.2392 161H89.4658L88.2236 159.277C87.9189 159.551 87.5947 159.809 87.2509 160.051C86.915 160.285 86.5595 160.492 86.1845 160.672C85.8095 160.844 85.4228 160.98 85.0244 161.082C84.6337 161.184 84.2353 161.234 83.8291 161.234C82.9462 161.234 82.1142 161.07 81.333 160.742C80.5595 160.406 79.8798 159.945 79.2939 159.359C78.7158 158.766 78.2587 158.066 77.9228 157.262C77.5869 156.449 77.4189 155.566 77.4189 154.613C77.4189 153.668 77.5869 152.789 77.9228 151.977C78.2587 151.164 78.7158 150.461 79.2939 149.867C79.8798 149.273 80.5595 148.809 81.333 148.473C82.1142 148.137 82.9462 147.969 83.8291 147.969C84.1103 147.969 84.3994 147.992 84.6962 148.039C85.0009 148.086 85.2939 148.164 85.5751 148.273C85.8642 148.375 86.1337 148.512 86.3837 148.684C86.6337 148.855 86.8447 149.066 87.0166 149.316V143.457H90.2392V161ZM87.0166 154.613C87.0166 154.176 86.9306 153.754 86.7587 153.348C86.5947 152.934 86.3681 152.57 86.0791 152.258C85.79 151.938 85.4501 151.684 85.0595 151.496C84.6767 151.301 84.2666 151.203 83.8291 151.203C83.3916 151.203 82.9775 151.281 82.5869 151.438C82.2041 151.594 81.8681 151.82 81.5791 152.117C81.2978 152.406 81.0751 152.762 80.9111 153.184C80.747 153.605 80.665 154.082 80.665 154.613C80.665 155.074 80.747 155.512 80.9111 155.926C81.0751 156.34 81.2978 156.703 81.5791 157.016C81.8681 157.328 82.2041 157.574 82.5869 157.754C82.9775 157.934 83.3916 158.023 83.8291 158.023C84.2666 158.023 84.6767 157.93 85.0595 157.742C85.4501 157.547 85.79 157.293 86.0791 156.98C86.3681 156.66 86.5947 156.297 86.7587 155.891C86.9306 155.477 87.0166 155.051 87.0166 154.613ZM96.9419 145.039C96.9419 145.336 96.8833 145.613 96.7661 145.871C96.6567 146.129 96.5044 146.355 96.3091 146.551C96.1137 146.738 95.8833 146.891 95.6177 147.008C95.3598 147.117 95.0825 147.172 94.7856 147.172C94.4887 147.172 94.2075 147.117 93.9419 147.008C93.6841 146.891 93.4575 146.738 93.2622 146.551C93.0747 146.355 92.9223 146.129 92.8052 145.871C92.6958 145.613 92.6411 145.336 92.6411 145.039C92.6411 144.75 92.6958 144.477 92.8052 144.219C92.9223 143.953 93.0747 143.727 93.2622 143.539C93.4575 143.344 93.6841 143.191 93.9419 143.082C94.2075 142.965 94.4887 142.906 94.7856 142.906C95.0825 142.906 95.3598 142.965 95.6177 143.082C95.8833 143.191 96.1137 143.344 96.3091 143.539C96.5044 143.727 96.6567 143.953 96.7661 144.219C96.8833 144.477 96.9419 144.75 96.9419 145.039ZM96.3911 161H93.1684V148.449H96.3911V161ZM111.449 154.613C111.449 155.551 111.281 156.426 110.945 157.238C110.609 158.043 110.152 158.742 109.574 159.336C108.996 159.922 108.316 160.387 107.535 160.73C106.762 161.066 105.93 161.234 105.039 161.234C104.156 161.234 103.324 161.066 102.543 160.73C101.77 160.387 101.09 159.922 100.504 159.336C99.9258 158.742 99.4688 158.043 99.1328 157.238C98.7969 156.426 98.6289 155.551 98.6289 154.613C98.6289 153.66 98.7969 152.777 99.1328 151.965C99.4688 151.152 99.9258 150.453 100.504 149.867C101.09 149.273 101.77 148.809 102.543 148.473C103.324 148.137 104.156 147.969 105.039 147.969C105.93 147.969 106.762 148.129 107.535 148.449C108.316 148.762 108.996 149.211 109.574 149.797C110.152 150.375 110.609 151.074 110.945 151.895C111.281 152.707 111.449 153.613 111.449 154.613ZM108.227 154.613C108.227 154.098 108.141 153.633 107.969 153.219C107.805 152.797 107.578 152.438 107.289 152.141C107 151.836 106.66 151.605 106.27 151.449C105.887 151.285 105.477 151.203 105.039 151.203C104.602 151.203 104.188 151.285 103.797 151.449C103.414 151.605 103.078 151.836 102.789 152.141C102.508 152.438 102.285 152.797 102.121 153.219C101.957 153.633 101.875 154.098 101.875 154.613C101.875 155.098 101.957 155.547 102.121 155.961C102.285 156.375 102.508 156.734 102.789 157.039C103.078 157.344 103.414 157.586 103.797 157.766C104.188 157.938 104.602 158.023 105.039 158.023C105.477 158.023 105.887 157.941 106.27 157.777C106.66 157.613 107 157.383 107.289 157.086C107.578 156.789 107.805 156.43 107.969 156.008C108.141 155.586 108.227 155.121 108.227 154.613Z" fill="white"/>
<rect x="107" y="73" width="94" height="94" rx="47" fill="#E90000"/>
<path d="M149.916 139H122.816L137.758 110.997H122.816V103.99H149.916L135.023 131.993H149.916V139ZM156.961 114.488C156.961 113.04 157.238 111.681 157.791 110.411C158.344 109.142 159.093 108.035 160.037 107.091C160.997 106.131 162.112 105.374 163.382 104.82C164.651 104.267 166.01 103.99 167.459 103.99H183.523V110.997H167.459C166.971 110.997 166.515 111.087 166.092 111.266C165.669 111.445 165.294 111.697 164.969 112.022C164.66 112.332 164.415 112.698 164.236 113.121C164.057 113.544 163.968 114 163.968 114.488C163.968 114.977 164.057 115.44 164.236 115.88C164.415 116.303 164.66 116.677 164.969 117.003C165.294 117.312 165.669 117.556 166.092 117.735C166.515 117.914 166.971 118.004 167.459 118.004H174.466C175.914 118.004 177.273 118.281 178.543 118.834C179.829 119.371 180.944 120.12 181.888 121.08C182.848 122.024 183.597 123.139 184.134 124.425C184.687 125.694 184.964 127.053 184.964 128.502C184.964 129.951 184.687 131.31 184.134 132.579C183.597 133.849 182.848 134.964 181.888 135.924C180.944 136.868 179.829 137.617 178.543 138.17C177.273 138.723 175.914 139 174.466 139H158.914V131.993H174.466C174.954 131.993 175.41 131.904 175.833 131.725C176.256 131.546 176.622 131.301 176.932 130.992C177.257 130.667 177.509 130.292 177.688 129.869C177.868 129.446 177.957 128.99 177.957 128.502C177.957 128.014 177.868 127.558 177.688 127.135C177.509 126.712 177.257 126.345 176.932 126.036C176.622 125.711 176.256 125.458 175.833 125.279C175.41 125.1 174.954 125.011 174.466 125.011H167.459C166.01 125.011 164.651 124.734 163.382 124.181C162.112 123.627 160.997 122.879 160.037 121.935C159.093 120.974 158.344 119.859 157.791 118.59C157.238 117.304 156.961 115.937 156.961 114.488Z" fill="white"/>
<path d="M128.029 67.2143C121.143 69.8473 113.682 77.8195 110.813 81.4764C109.737 82.9392 106.736 85.9621 105.433 88.0589C102.205 93.2524 102.63 95.7385 101.129 100.127C100.35 102.403 100.531 104.276 99.5 108.5C99.4447 108.726 99.5 109 98.9766 110.806C98.4532 112.612 95.7485 113 95.7485 113C93.5965 111.903 93.9552 102.589 94.6725 95.7385C94.6725 84.7677 94.6725 81.4764 92.5205 80.3793C90.3684 79.2822 89.2924 83.6706 84.9883 97.9327C80.6842 112.195 79.6082 108.904 79.6082 108.904C79.6082 108.904 77.4561 104.223 77.4561 97.9327C77.4561 91.2594 79.6082 79.2822 81.7602 75.9911C83.9123 72.7 81.7602 72.6999 76.3801 70.5054C71 68.311 71 63.923 71 61.7287C71 59.5344 74.2281 56.2433 78.5322 60.6319C82.8363 65.0205 82.8363 66.1172 88.2164 61.7287C92.5205 57.3402 104.062 48.0751 110.813 44.1754C115.117 41.6893 121.606 40.2066 126.5 39C130.949 37.9029 143.141 37.8908 149.55 38.69C156.006 39.4951 159.234 40.8842 161.386 41.9813C163.108 42.8589 168.918 43.0784 164.614 39.7871C160.31 36.4958 162.892 38.2512 160.31 36.4958C157.082 34.3017 150.626 34.3017 148.474 34.3017C146.322 34.3017 136.637 33.2046 130.181 32.1075C123.725 31.0104 120.497 32.1075 116.193 28.8162C111.889 25.525 114.041 24.4279 116.193 22.2337C118.345 20.0395 123.725 20.0395 128.029 20.0395C132.333 20.0395 137.713 22.2337 143.094 23.3308C148.474 24.4279 162.981 29.629 165.69 31.0103L172.146 34.3017C174.298 35.3987 175.374 33.2046 173.222 31.0103C171.07 28.8159 168.918 27.7191 165.69 26.622C162.462 25.525 151.702 20.0395 145.246 18.9424C138.789 17.8453 122.649 11.2628 119.421 10.1657C116.193 9.06865 115.117 4.6803 116.193 3.58307C117.269 2.48585 118.345 1.3889 123.725 0.29181C129.105 -0.805277 133.409 1.3889 140.942 3.58307C148.474 5.77725 161.386 11.2625 169.994 16.7481C178.602 22.2337 178.602 23.3306 189.363 31.0103C200.123 38.6899 200.123 43.0782 201.199 45.2724C202.275 47.4666 203.351 49.6609 202.275 51.8549C200.912 54.6334 197.971 56.2433 196.895 56.2433C195.819 56.2433 193.667 56.2433 191.515 57.3404C189.363 58.4374 191.515 60.6319 194.743 61.7287C197.971 62.8255 200.123 65.02 205.503 68.3112C210.883 71.6025 208.731 72.6997 207.655 72.6999C206.579 72.7 204.427 71.6025 201.199 70.5054C197.971 69.4083 186.134 62.8259 182.906 60.6319C179.678 58.4379 178.602 60.6319 177.526 62.8259C176.45 65.02 188.287 69.4087 191.515 72.6999C194.743 75.991 190.439 75.9911 190.439 75.9911C190.439 75.9911 183.265 74.1626 180.754 72.6999C176.45 69.7742 165.26 63.7036 154.93 62.8259C142.018 61.7288 136.637 63.923 128.029 67.2143Z" fill="white"/>
</svg>
