<svg width="444" height="167" viewBox="0 0 444 167" fill="none" xmlns="http://www.w3.org/2000/svg">
<path d="M342 120C342 94.0426 363.043 73 389 73C414.957 73 436 94.0426 436 120C436 145.957 414.957 167 389 167C363.043 167 342 145.957 342 120Z" fill="#E90000"/>
<path d="M384.916 139H357.816L372.758 110.997H357.816V103.99H384.916L370.023 131.993H384.916V139Z" fill="white"/>
<path d="M391.961 114.488C391.961 113.04 392.238 111.681 392.791 110.411C393.344 109.142 394.093 108.035 395.037 107.091C395.997 106.131 397.112 105.374 398.382 104.82C399.651 104.267 401.01 103.99 402.459 103.99H418.523V110.997H402.459C401.971 110.997 401.515 111.087 401.092 111.266C400.669 111.445 400.294 111.697 399.969 112.022C399.66 112.332 399.415 112.698 399.236 113.121C399.057 113.544 398.968 114 398.968 114.488C398.968 114.977 399.057 115.44 399.236 115.88C399.415 116.303 399.66 116.677 399.969 117.003C400.294 117.312 400.669 117.556 401.092 117.735C401.515 117.914 401.971 118.004 402.459 118.004H409.466C410.914 118.004 412.273 118.281 413.543 118.834C414.829 119.371 415.944 120.12 416.888 121.08C417.848 122.024 418.597 123.139 419.134 124.425C419.687 125.694 419.964 127.053 419.964 128.502C419.964 129.951 419.687 131.31 419.134 132.579C418.597 133.849 417.848 134.964 416.888 135.924C415.944 136.868 414.829 137.617 413.543 138.17C412.273 138.723 410.914 139 409.466 139H393.914V131.993H409.466C409.954 131.993 410.41 131.904 410.833 131.725C411.256 131.546 411.622 131.301 411.932 130.992C412.257 130.667 412.509 130.292 412.688 129.869C412.868 129.446 412.957 128.99 412.957 128.502C412.957 128.014 412.868 127.558 412.688 127.135C412.509 126.712 412.257 126.345 411.932 126.036C411.622 125.711 411.256 125.458 410.833 125.279C410.41 125.1 409.954 125.011 409.466 125.011H402.459C401.01 125.011 399.651 124.734 398.382 124.181C397.112 123.627 395.997 122.879 395.037 121.935C394.093 120.974 393.344 119.859 392.791 118.59C392.238 117.304 391.961 115.937 391.961 114.488Z" fill="white"/>
<path d="M363.029 67.2143C356.143 69.8473 348.682 77.8195 345.813 81.4764C344.737 82.9392 341.736 85.9621 340.433 88.0589C337.205 93.2524 337.63 95.7385 336.129 100.127C335.35 102.403 335.531 104.276 334.5 108.5C334.445 108.726 334.5 109 333.977 110.806C333.453 112.612 330.749 113 330.749 113C328.596 111.903 328.955 102.589 329.673 95.7385C329.673 84.7677 329.673 81.4764 327.52 80.3793C325.368 79.2822 324.292 83.6706 319.988 97.9327C315.684 112.195 314.608 108.904 314.608 108.904C314.608 108.904 312.456 104.223 312.456 97.9327C312.456 91.2594 314.608 79.2822 316.76 75.9911C318.912 72.7 316.76 72.6999 311.38 70.5054C306 68.311 306 63.923 306 61.7287C306 59.5344 309.228 56.2433 313.532 60.6319C317.836 65.0205 317.836 66.1172 323.216 61.7287C327.52 57.3402 339.062 48.0751 345.813 44.1754C350.117 41.6893 356.606 40.2066 361.5 39C365.949 37.9029 378.141 37.8908 384.55 38.69C391.006 39.4951 394.234 40.8842 396.386 41.9813C398.108 42.8589 403.918 43.0784 399.614 39.7871C395.31 36.4958 397.892 38.2512 395.31 36.4958C392.082 34.3017 385.626 34.3017 383.474 34.3017C381.322 34.3017 371.637 33.2046 365.181 32.1075C358.725 31.0104 355.497 32.1075 351.193 28.8162C346.889 25.525 349.041 24.4279 351.193 22.2337C353.345 20.0395 358.725 20.0395 363.029 20.0395C367.333 20.0395 372.713 22.2337 378.094 23.3308C383.474 24.4279 397.981 29.629 400.69 31.0103L407.146 34.3017C409.298 35.3987 410.374 33.2046 408.222 31.0103C406.07 28.8159 403.918 27.7191 400.69 26.622C397.462 25.525 386.702 20.0395 380.246 18.9424C373.789 17.8453 357.649 11.2628 354.421 10.1657C351.193 9.06865 350.117 4.6803 351.193 3.58307C352.269 2.48585 353.345 1.3889 358.725 0.29181C364.105 -0.805277 368.409 1.3889 375.942 3.58307C383.474 5.77725 396.386 11.2625 404.994 16.7481C413.602 22.2337 413.602 23.3306 424.363 31.0103C435.123 38.6899 435.123 43.0782 436.199 45.2724C437.275 47.4666 438.351 49.6609 437.275 51.8549C435.912 54.6334 432.971 56.2433 431.895 56.2433C430.819 56.2433 428.667 56.2433 426.515 57.3404C424.363 58.4374 426.515 60.6319 429.743 61.7287C432.971 62.8255 435.123 65.02 440.503 68.3112C445.883 71.6025 443.731 72.6997 442.655 72.6999C441.579 72.7 439.427 71.6025 436.199 70.5054C432.971 69.4083 421.134 62.8259 417.906 60.6319C414.678 58.4379 413.602 60.6319 412.526 62.8259C411.45 65.02 423.287 69.4087 426.515 72.6999C429.743 75.991 425.439 75.9911 425.439 75.9911C425.439 75.9911 418.265 74.1626 415.754 72.6999C411.45 69.7742 400.26 63.7036 389.93 62.8259C377.018 61.7288 371.637 63.923 363.029 67.2143Z" fill="white"/>
<path d="M51.8266 76.272L55.5466 75.504C55.6426 76.416 56.0746 77.168 56.8426 77.76C57.6266 78.336 58.6666 78.624 59.9626 78.624C61.2746 78.624 62.2666 78.4 62.9386 77.952C63.6266 77.488 63.9706 76.904 63.9706 76.2C63.9706 74.632 62.7146 73.848 60.2026 73.848H58.0906V71.496H60.2026C61.2746 71.496 62.0986 71.304 62.6746 70.92C63.2666 70.536 63.5626 70 63.5626 69.312C63.5626 68.608 63.2426 68.048 62.6026 67.632C61.9626 67.216 61.0586 67.008 59.8906 67.008C58.5626 67.008 57.5386 67.256 56.8186 67.752C56.0986 68.232 55.6346 69 55.4266 70.056L51.9226 69.36C52.0186 67.68 52.7866 66.4 54.2266 65.52C55.6826 64.624 57.5786 64.176 59.9146 64.176C62.4106 64.176 64.3626 64.592 65.7706 65.424C67.1786 66.24 67.8826 67.4 67.8826 68.904C67.8826 69.848 67.5546 70.624 66.8986 71.232C66.2426 71.824 65.3386 72.24 64.1866 72.48C65.5466 72.608 66.5786 73.032 67.2826 73.752C68.0026 74.456 68.3626 75.376 68.3626 76.512C68.3626 78.064 67.6026 79.272 66.0826 80.136C64.5786 81 62.5306 81.432 59.9386 81.432C57.4106 81.432 55.4266 80.968 53.9866 80.04C52.5466 79.112 51.8266 77.856 51.8266 76.272ZM70.7669 77.688C70.7669 76.248 71.6309 75.24 73.3589 74.664C75.0869 74.088 77.4709 73.8 80.5109 73.8C81.1669 73.8 81.7589 73.808 82.2869 73.824V73.632C82.2869 72.896 81.9829 72.312 81.3749 71.88C80.7829 71.448 79.8869 71.232 78.6869 71.232C77.7909 71.232 76.9909 71.384 76.2869 71.688C75.5829 71.992 75.0949 72.432 74.8229 73.008L71.6309 71.904C72.9429 69.664 75.4469 68.544 79.1429 68.544C81.6549 68.544 83.5029 69.04 84.6869 70.032C85.8869 71.008 86.4869 72.536 86.4869 74.616V77.952C86.4869 78.688 86.7589 79.056 87.3029 79.056C87.7669 79.056 88.1269 78.992 88.3829 78.864V80.784C87.6309 81.2 86.7589 81.408 85.7669 81.408C84.7749 81.408 84.0309 81.216 83.5349 80.832C83.0549 80.448 82.8149 79.84 82.8149 79.008C82.8149 78.528 82.9029 77.792 83.0789 76.8C82.7429 78.368 81.9429 79.528 80.6789 80.28C79.4309 81.032 77.9349 81.408 76.1909 81.408C74.4469 81.408 73.1029 81.088 72.1589 80.448C71.2309 79.792 70.7669 78.872 70.7669 77.688ZM82.2869 75.696L81.2789 75.672C79.1829 75.672 77.6309 75.808 76.6229 76.08C75.6309 76.352 75.1349 76.864 75.1349 77.616C75.1349 78.08 75.3349 78.448 75.7349 78.72C76.1349 78.992 76.7429 79.128 77.5589 79.128C78.7589 79.128 79.8469 78.76 80.8229 78.024C81.7989 77.288 82.2869 76.512 82.2869 75.696ZM108.631 77.928H111.031V83.184H107.239V81H94.9266V83.184H91.1346V77.928H92.5746C93.3586 77.928 93.9106 77.8 94.2306 77.544C94.5506 77.304 94.7666 76.856 94.8786 76.2C94.9906 75.528 95.0466 74.416 95.0466 72.864V68.976H108.631V77.928ZM98.1186 77.928H104.455V72.048H99.2466V72.912C99.2466 75.136 98.8706 76.808 98.1186 77.928ZM113.794 81V68.976H117.874V75.672L117.826 76.872L118.69 76.056L125.41 68.976H129.778V81H125.698V74.304L125.746 73.104L124.858 73.92L118.066 81H113.794ZM133.111 77.4L136.447 76.608C136.543 77.232 136.887 77.728 137.479 78.096C138.087 78.448 138.895 78.624 139.903 78.624C140.815 78.624 141.495 78.488 141.943 78.216C142.391 77.944 142.615 77.632 142.615 77.28C142.615 76.416 141.799 75.984 140.167 75.984H138.391V73.92H140.143C141.535 73.92 142.231 73.536 142.231 72.768C142.231 72.32 142.007 71.968 141.559 71.712C141.127 71.44 140.487 71.304 139.639 71.304C137.767 71.304 136.695 71.936 136.423 73.2L133.183 72.504C133.215 71.192 133.823 70.208 135.007 69.552C136.191 68.88 137.815 68.544 139.879 68.544C141.863 68.544 143.471 68.904 144.703 69.624C145.935 70.328 146.551 71.2 146.551 72.24C146.551 73.696 145.583 74.592 143.647 74.928C144.719 74.992 145.535 75.272 146.095 75.768C146.655 76.264 146.935 76.912 146.935 77.712C146.935 78.848 146.303 79.736 145.039 80.376C143.791 81 142.063 81.312 139.855 81.312C137.743 81.312 136.087 80.96 134.887 80.256C133.703 79.536 133.111 78.584 133.111 77.4ZM148.871 77.688C148.871 76.248 149.735 75.24 151.463 74.664C153.191 74.088 155.575 73.8 158.615 73.8C159.271 73.8 159.863 73.808 160.391 73.824V73.632C160.391 72.896 160.087 72.312 159.479 71.88C158.887 71.448 157.991 71.232 156.791 71.232C155.895 71.232 155.095 71.384 154.391 71.688C153.687 71.992 153.199 72.432 152.927 73.008L149.735 71.904C151.047 69.664 153.551 68.544 157.247 68.544C159.759 68.544 161.607 69.04 162.791 70.032C163.991 71.008 164.591 72.536 164.591 74.616V77.952C164.591 78.688 164.863 79.056 165.407 79.056C165.871 79.056 166.231 78.992 166.487 78.864V80.784C165.735 81.2 164.863 81.408 163.871 81.408C162.879 81.408 162.135 81.216 161.639 80.832C161.159 80.448 160.919 79.84 160.919 79.008C160.919 78.528 161.007 77.792 161.183 76.8C160.847 78.368 160.047 79.528 158.783 80.28C157.535 81.032 156.039 81.408 154.295 81.408C152.551 81.408 151.207 81.088 150.263 80.448C149.335 79.792 148.871 78.872 148.871 77.688ZM160.391 75.696L159.383 75.672C157.287 75.672 155.735 75.808 154.727 76.08C153.735 76.352 153.239 76.864 153.239 77.616C153.239 78.08 153.439 78.448 153.839 78.72C154.239 78.992 154.847 79.128 155.663 79.128C156.863 79.128 157.951 78.76 158.927 78.024C159.903 77.288 160.391 76.512 160.391 75.696ZM172.626 63.528L175.122 63.048C175.202 64.328 175.946 64.968 177.354 64.968C178.842 64.968 179.626 64.328 179.706 63.048L182.202 63.528C182.106 65.912 180.49 67.104 177.354 67.104C174.378 67.104 172.802 65.912 172.626 63.528ZM169.554 81V68.976H173.634V75.672L173.586 76.872L174.45 76.056L181.17 68.976H185.538V81H181.458V74.304L181.506 73.104L180.618 73.92L173.826 81H169.554ZM190.046 81V68.976H194.246V73.344H201.854V68.976H206.03V81H201.854V76.416H194.246V81H190.046ZM208.932 75.024C208.932 73.072 209.684 71.504 211.188 70.32C212.708 69.136 214.756 68.544 217.332 68.544C219.668 68.544 221.556 69.208 222.996 70.536C224.452 71.864 225.18 73.52 225.18 75.504V75.888H212.748C212.844 76.752 213.34 77.448 214.236 77.976C215.148 78.488 216.3 78.744 217.692 78.744C219.74 78.744 221.172 78.096 221.988 76.8H222.132L224.892 78.168C223.164 80.328 220.78 81.408 217.74 81.408C215.02 81.408 212.868 80.84 211.284 79.704C209.716 78.568 208.932 77.008 208.932 75.024ZM212.82 73.632H221.196C221.116 72.88 220.732 72.264 220.044 71.784C219.356 71.304 218.412 71.064 217.212 71.064C215.98 71.064 214.964 71.304 214.164 71.784C213.364 72.248 212.916 72.864 212.82 73.632ZM228.243 81V68.976H232.443V73.344H240.051V68.976H244.227V81H240.051V76.416H232.443V81H228.243ZM247.129 74.976C247.097 73.632 247.505 72.464 248.353 71.472C249.201 70.464 250.273 69.72 251.569 69.24C252.881 68.76 254.297 68.528 255.817 68.544C257.353 68.528 258.777 68.76 260.089 69.24C261.401 69.72 262.473 70.464 263.305 71.472C264.137 72.464 264.537 73.624 264.505 74.952C264.537 76.952 263.697 78.536 261.985 79.704C260.273 80.872 258.217 81.44 255.817 81.408C254.281 81.424 252.857 81.2 251.545 80.736C250.249 80.256 249.185 79.512 248.353 78.504C247.521 77.496 247.113 76.32 247.129 74.976ZM260.161 74.976C260.161 73.92 259.753 73.088 258.937 72.48C258.121 71.872 257.081 71.568 255.817 71.568C254.569 71.568 253.529 71.88 252.697 72.504C251.881 73.128 251.473 73.952 251.473 74.976C251.473 76 251.881 76.824 252.697 77.448C253.529 78.072 254.569 78.384 255.817 78.384C257.081 78.384 258.121 78.08 258.937 77.472C259.753 76.848 260.161 76.016 260.161 74.976ZM88.4881 110V97.976H92.5681V104.672L92.5201 105.872L93.3841 105.056L100.104 97.976H104.472V110H100.392V103.304L100.44 102.104L99.5521 102.92L92.7601 110H88.4881ZM116.509 106.4L119.845 105.608C119.941 106.232 120.285 106.728 120.877 107.096C121.485 107.448 122.293 107.624 123.301 107.624C124.213 107.624 124.893 107.488 125.341 107.216C125.789 106.944 126.013 106.632 126.013 106.28C126.013 105.416 125.197 104.984 123.565 104.984H121.789V102.92H123.541C124.933 102.92 125.629 102.536 125.629 101.768C125.629 101.32 125.405 100.968 124.957 100.712C124.525 100.44 123.885 100.304 123.037 100.304C121.165 100.304 120.093 100.936 119.821 102.2L116.581 101.504C116.613 100.192 117.221 99.208 118.405 98.552C119.589 97.88 121.213 97.544 123.277 97.544C125.261 97.544 126.869 97.904 128.101 98.624C129.333 99.328 129.949 100.2 129.949 101.24C129.949 102.696 128.981 103.592 127.045 103.928C128.117 103.992 128.933 104.272 129.493 104.768C130.053 105.264 130.333 105.912 130.333 106.712C130.333 107.848 129.701 108.736 128.437 109.376C127.189 110 125.461 110.312 123.253 110.312C121.141 110.312 119.485 109.96 118.285 109.256C117.101 108.536 116.509 107.584 116.509 106.4ZM132.269 106.688C132.269 105.248 133.133 104.24 134.861 103.664C136.589 103.088 138.973 102.8 142.013 102.8C142.669 102.8 143.261 102.808 143.789 102.824V102.632C143.789 101.896 143.485 101.312 142.877 100.88C142.285 100.448 141.389 100.232 140.189 100.232C139.293 100.232 138.493 100.384 137.789 100.688C137.085 100.992 136.597 101.432 136.325 102.008L133.133 100.904C134.445 98.664 136.949 97.544 140.645 97.544C143.157 97.544 145.005 98.04 146.189 99.032C147.389 100.008 147.989 101.536 147.989 103.616V106.952C147.989 107.688 148.261 108.056 148.805 108.056C149.269 108.056 149.629 107.992 149.885 107.864V109.784C149.133 110.2 148.261 110.408 147.269 110.408C146.277 110.408 145.533 110.216 145.037 109.832C144.557 109.448 144.317 108.84 144.317 108.008C144.317 107.528 144.405 106.792 144.581 105.8C144.245 107.368 143.445 108.528 142.181 109.28C140.933 110.032 139.437 110.408 137.693 110.408C135.949 110.408 134.605 110.088 133.661 109.448C132.733 108.792 132.269 107.872 132.269 106.688ZM143.789 104.696L142.781 104.672C140.685 104.672 139.133 104.808 138.125 105.08C137.133 105.352 136.637 105.864 136.637 106.616C136.637 107.08 136.837 107.448 137.237 107.72C137.637 107.992 138.245 108.128 139.061 108.128C140.261 108.128 141.349 107.76 142.325 107.024C143.301 106.288 143.789 105.512 143.789 104.696ZM163.799 103.976L164.831 105.512L167.543 110H163.583L161.399 106.64L160.703 105.512H157.151V110H152.951V97.976H157.151V102.464H160.703L161.375 101.312L163.487 97.976H167.543L164.831 102.488L163.799 103.976ZM168.978 103.976C168.946 102.632 169.354 101.464 170.202 100.472C171.05 99.464 172.122 98.72 173.418 98.24C174.73 97.76 176.146 97.528 177.666 97.544C179.202 97.528 180.626 97.76 181.938 98.24C183.25 98.72 184.322 99.464 185.154 100.472C185.986 101.464 186.386 102.624 186.354 103.952C186.386 105.952 185.546 107.536 183.834 108.704C182.122 109.872 180.066 110.44 177.666 110.408C176.13 110.424 174.706 110.2 173.394 109.736C172.098 109.256 171.034 108.512 170.202 107.504C169.37 106.496 168.962 105.32 168.978 103.976ZM182.01 103.976C182.01 102.92 181.602 102.088 180.786 101.48C179.97 100.872 178.93 100.568 177.666 100.568C176.418 100.568 175.378 100.88 174.546 101.504C173.73 102.128 173.322 102.952 173.322 103.976C173.322 105 173.73 105.824 174.546 106.448C175.378 107.072 176.418 107.384 177.666 107.384C178.93 107.384 179.97 107.08 180.786 106.472C181.602 105.848 182.01 105.016 182.01 103.976ZM205.329 106.928H207.729V112.184H203.937V110H191.625V112.184H187.833V106.928H189.273C190.057 106.928 190.609 106.8 190.929 106.544C191.249 106.304 191.465 105.856 191.577 105.2C191.689 104.528 191.745 103.416 191.745 101.864V97.976H205.329V106.928ZM194.817 106.928H201.153V101.048H195.945V101.912C195.945 104.136 195.569 105.808 194.817 106.928ZM208.932 104.024C208.932 102.072 209.684 100.504 211.188 99.32C212.708 98.136 214.756 97.544 217.332 97.544C219.668 97.544 221.556 98.208 222.996 99.536C224.452 100.864 225.18 102.52 225.18 104.504V104.888H212.748C212.844 105.752 213.34 106.448 214.236 106.976C215.148 107.488 216.3 107.744 217.692 107.744C219.74 107.744 221.172 107.096 221.988 105.8H222.132L224.892 107.168C223.164 109.328 220.78 110.408 217.74 110.408C215.02 110.408 212.868 109.84 211.284 108.704C209.716 107.568 208.932 106.008 208.932 104.024ZM212.82 102.632H221.196C221.116 101.88 220.732 101.264 220.044 100.784C219.356 100.304 218.412 100.064 217.212 100.064C215.98 100.064 214.964 100.304 214.164 100.784C213.364 101.248 212.916 101.864 212.82 102.632ZM228.243 110V97.976H232.443V102.344H240.051V97.976H244.227V110H240.051V105.416H232.443V110H228.243ZM247.129 103.976C247.097 102.632 247.505 101.464 248.353 100.472C249.201 99.464 250.273 98.72 251.569 98.24C252.881 97.76 254.297 97.528 255.817 97.544C257.353 97.528 258.777 97.76 260.089 98.24C261.401 98.72 262.473 99.464 263.305 100.472C264.137 101.464 264.537 102.624 264.505 103.952C264.537 105.952 263.697 107.536 261.985 108.704C260.273 109.872 258.217 110.44 255.817 110.408C254.281 110.424 252.857 110.2 251.545 109.736C250.249 109.256 249.185 108.512 248.353 107.504C247.521 106.496 247.113 105.32 247.129 103.976ZM260.161 103.976C260.161 102.92 259.753 102.088 258.937 101.48C258.121 100.872 257.081 100.568 255.817 100.568C254.569 100.568 253.529 100.88 252.697 101.504C251.881 102.128 251.473 102.952 251.473 103.976C251.473 105 251.881 105.824 252.697 106.448C253.529 107.072 254.569 107.384 255.817 107.384C257.081 107.384 258.121 107.08 258.937 106.472C259.753 105.848 260.161 105.016 260.161 103.976ZM14.4927 139V126.976H23.8047C25.6127 126.976 26.9647 127.216 27.8607 127.696C28.7727 128.176 29.2287 128.96 29.2287 130.048C29.1807 130.944 28.8847 131.568 28.3407 131.92C27.7967 132.256 26.9087 132.52 25.6767 132.712C26.9407 132.824 27.9167 133.088 28.6047 133.504C29.3087 133.904 29.6607 134.568 29.6607 135.496C29.6607 136.552 29.1727 137.4 28.1967 138.04C27.2207 138.68 25.7887 139 23.9007 139H14.4927ZM18.5487 131.992H23.1807C24.3967 131.992 25.0047 131.576 25.0047 130.744C25.0047 129.928 24.3647 129.52 23.0847 129.52H18.5487V131.992ZM18.5487 136.432H23.1327C23.9487 136.432 24.5327 136.352 24.8847 136.192C25.2367 136.016 25.4127 135.664 25.4127 135.136C25.4127 134.64 25.2367 134.296 24.8847 134.104C24.5487 133.912 24.0207 133.816 23.3007 133.816H18.5487V136.432Z" fill="white"/>
<path d="M40.5256 139V136.072L52.3336 125.584H40.8136V122.224H58.2136V125.152L46.4296 135.64H58.4296V139H40.5256ZM60.8744 135.688C60.8744 134.248 61.7384 133.24 63.4664 132.664C65.1944 132.088 67.5784 131.8 70.6184 131.8C71.2744 131.8 71.8664 131.808 72.3944 131.824V131.632C72.3944 130.896 72.0904 130.312 71.4824 129.88C70.8904 129.448 69.9944 129.232 68.7944 129.232C67.8984 129.232 67.0984 129.384 66.3944 129.688C65.6904 129.992 65.2024 130.432 64.9304 131.008L61.7384 129.904C63.0504 127.664 65.5544 126.544 69.2504 126.544C71.7624 126.544 73.6104 127.04 74.7944 128.032C75.9944 129.008 76.5944 130.536 76.5944 132.616V135.952C76.5944 136.688 76.8664 137.056 77.4104 137.056C77.8744 137.056 78.2344 136.992 78.4904 136.864V138.784C77.7384 139.2 76.8664 139.408 75.8744 139.408C74.8824 139.408 74.1384 139.216 73.6424 138.832C73.1624 138.448 72.9224 137.84 72.9224 137.008C72.9224 136.528 73.0104 135.792 73.1864 134.8C72.8504 136.368 72.0504 137.528 70.7864 138.28C69.5384 139.032 68.0424 139.408 66.2984 139.408C64.5544 139.408 63.2104 139.088 62.2664 138.448C61.3384 137.792 60.8744 136.872 60.8744 135.688ZM72.3944 133.696L71.3864 133.672C69.2904 133.672 67.7384 133.808 66.7304 134.08C65.7384 134.352 65.2424 134.864 65.2424 135.616C65.2424 136.08 65.4424 136.448 65.8424 136.72C66.2424 136.992 66.8504 137.128 67.6664 137.128C68.8664 137.128 69.9544 136.76 70.9304 136.024C71.9064 135.288 72.3944 134.512 72.3944 133.696ZM81.5091 125.584V122.224H85.8291V125.584H81.5091ZM81.5571 139V126.976H85.7811V139H81.5571ZM90.8843 133.696V129.064H88.0523V126.976H90.2363C90.7643 126.976 91.1403 126.856 91.3643 126.616C91.5883 126.376 91.7003 125.992 91.7003 125.464V123.184H95.0843V126.976H100.124V129.064H95.0843V133.888C95.0843 134.784 95.2523 135.432 95.5883 135.832C95.9243 136.216 96.4443 136.408 97.1483 136.408C97.7243 136.408 98.1963 136.184 98.5643 135.736C98.9323 135.272 99.1643 134.672 99.2603 133.936L101.996 134.8C101.788 136.096 101.228 137.192 100.316 138.088C99.4203 138.968 98.1083 139.408 96.3803 139.408C94.4923 139.408 93.1003 138.944 92.2043 138.016C91.3243 137.072 90.8843 135.632 90.8843 133.696ZM103.479 136.168L106.719 135.064C107.503 136.168 108.903 136.72 110.919 136.72C112.119 136.72 112.967 136.624 113.463 136.432C113.975 136.224 114.231 135.904 114.231 135.472C114.183 135.104 113.911 134.848 113.415 134.704C112.919 134.544 111.863 134.368 110.247 134.176L109.959 134.128C108.791 134 107.815 133.848 107.031 133.672C106.231 133.48 105.503 133.12 104.847 132.592C104.223 132.032 103.911 131.272 103.911 130.312C103.911 129.096 104.479 128.168 105.615 127.528C106.751 126.872 108.439 126.544 110.679 126.544C112.407 126.544 113.855 126.776 115.023 127.24C116.191 127.688 117.199 128.496 118.047 129.664L114.711 130.648C114.231 130.104 113.703 129.72 113.127 129.496C112.567 129.272 111.751 129.16 110.679 129.16C108.823 129.16 107.895 129.544 107.895 130.312C107.959 130.696 108.167 130.952 108.519 131.08C108.887 131.192 109.703 131.32 110.967 131.464L111.687 131.512C114.103 131.8 115.807 132.216 116.799 132.76C117.807 133.288 118.311 134.136 118.311 135.304C118.311 138.04 115.879 139.408 111.015 139.408C109.143 139.408 107.551 139.136 106.239 138.592C104.927 138.048 104.007 137.24 103.479 136.168ZM120.147 133.024C120.147 131.072 120.899 129.504 122.403 128.32C123.923 127.136 125.971 126.544 128.547 126.544C130.883 126.544 132.771 127.208 134.211 128.536C135.667 129.864 136.395 131.52 136.395 133.504V133.888H123.963C124.059 134.752 124.555 135.448 125.451 135.976C126.363 136.488 127.515 136.744 128.907 136.744C130.955 136.744 132.387 136.096 133.203 134.8H133.347L136.107 136.168C134.379 138.328 131.995 139.408 128.955 139.408C126.235 139.408 124.083 138.84 122.499 137.704C120.931 136.568 120.147 135.008 120.147 133.024ZM124.035 131.632H132.411C132.331 130.88 131.947 130.264 131.259 129.784C130.571 129.304 129.627 129.064 128.427 129.064C127.195 129.064 126.179 129.304 125.379 129.784C124.579 130.248 124.131 130.864 124.035 131.632ZM143.473 139L136.873 126.976H141.577L145.369 134.728L145.969 136.168L146.593 134.728L150.409 126.976H154.585L148.009 139H143.473ZM164.05 134.848L166.93 133.24H167.002C167.482 134.168 168.266 134.896 169.354 135.424C170.442 135.952 171.714 136.216 173.17 136.216C174.498 136.216 175.474 136.032 176.098 135.664C176.722 135.296 177.034 134.84 177.034 134.296C176.986 133.752 176.77 133.376 176.386 133.168C176.002 132.96 175.178 132.728 173.914 132.472L170.362 131.704C168.49 131.288 167.106 130.664 166.21 129.832C165.314 129 164.866 127.912 164.866 126.568C164.866 125.016 165.538 123.824 166.882 122.992C168.242 122.144 170.17 121.72 172.666 121.72C176.65 121.72 179.426 123.088 180.994 125.824L177.85 127.24H177.73C177.298 126.36 176.61 125.76 175.666 125.44C174.738 125.104 173.746 124.936 172.69 124.936C170.178 124.936 168.922 125.48 168.922 126.568C168.922 127.08 169.122 127.456 169.522 127.696C169.938 127.936 170.578 128.144 171.442 128.32L175.738 129.304C177.642 129.672 179.05 130.224 179.962 130.96C180.89 131.696 181.354 132.744 181.354 134.104C181.354 135.704 180.626 137.008 179.17 138.016C177.714 139.008 175.762 139.504 173.314 139.504C171.17 139.504 169.234 139.088 167.506 138.256C165.794 137.424 164.642 136.288 164.05 134.848ZM185.201 133.696V129.064H182.369V126.976H184.553C185.081 126.976 185.457 126.856 185.681 126.616C185.905 126.376 186.017 125.992 186.017 125.464V123.184H189.401V126.976H194.441V129.064H189.401V133.888C189.401 134.784 189.569 135.432 189.905 135.832C190.241 136.216 190.761 136.408 191.465 136.408C192.041 136.408 192.513 136.184 192.881 135.736C193.249 135.272 193.481 134.672 193.577 133.936L196.313 134.8C196.105 136.096 195.545 137.192 194.633 138.088C193.737 138.968 192.425 139.408 190.697 139.408C188.809 139.408 187.417 138.944 186.521 138.016C185.641 137.072 185.201 135.632 185.201 133.696ZM199.187 132.424V126.976H203.387V132.016C203.387 134.912 204.523 136.36 206.795 136.36C207.915 136.36 208.915 135.928 209.795 135.064C210.675 134.184 211.115 133.04 211.115 131.632V126.976H215.315V139H212.435L211.811 135.52C211.267 136.72 210.379 137.672 209.147 138.376C207.931 139.08 206.635 139.432 205.259 139.432C201.211 139.432 199.187 137.096 199.187 132.424ZM218.167 132.976C218.167 131.104 218.855 129.568 220.231 128.368C221.623 127.152 223.367 126.544 225.463 126.544C226.807 126.544 227.983 126.8 228.991 127.312C229.999 127.824 230.719 128.472 231.151 129.256V122.056H235.351V139H232.111L231.535 136.36C231.007 137.288 230.199 138.032 229.111 138.592C228.023 139.136 226.743 139.408 225.271 139.408C223.287 139.408 221.607 138.8 220.231 137.584C218.855 136.352 218.167 134.816 218.167 132.976ZM231.151 133C231.151 131.992 230.735 131.168 229.903 130.528C229.087 129.888 228.071 129.568 226.855 129.568C225.591 129.568 224.551 129.88 223.735 130.504C222.919 131.128 222.511 131.952 222.511 132.976C222.511 134.032 222.911 134.864 223.711 135.472C224.527 136.08 225.567 136.384 226.831 136.384C228.095 136.384 229.127 136.072 229.927 135.448C230.743 134.808 231.151 133.992 231.151 133ZM239.914 125.584V122.224H244.234V125.584H239.914ZM239.962 139V126.976H244.186V139H239.962ZM247.129 132.976C247.097 131.632 247.505 130.464 248.353 129.472C249.201 128.464 250.273 127.72 251.569 127.24C252.881 126.76 254.297 126.528 255.817 126.544C257.353 126.528 258.777 126.76 260.089 127.24C261.401 127.72 262.473 128.464 263.305 129.472C264.137 130.464 264.537 131.624 264.505 132.952C264.537 134.952 263.697 136.536 261.985 137.704C260.273 138.872 258.217 139.44 255.817 139.408C254.281 139.424 252.857 139.2 251.545 138.736C250.249 138.256 249.185 137.512 248.353 136.504C247.521 135.496 247.113 134.32 247.129 132.976ZM260.161 132.976C260.161 131.92 259.753 131.088 258.937 130.48C258.121 129.872 257.081 129.568 255.817 129.568C254.569 129.568 253.529 129.88 252.697 130.504C251.881 131.128 251.473 131.952 251.473 132.976C251.473 134 251.881 134.824 252.697 135.448C253.529 136.072 254.569 136.384 255.817 136.384C257.081 136.384 258.121 136.08 258.937 135.472C259.753 134.848 260.161 134.016 260.161 132.976Z" fill="#E90000"/>
</svg>
