<svg width="392" height="124" viewBox="0 0 392 124" fill="none" xmlns="http://www.w3.org/2000/svg">
<path fill-rule="evenodd" clip-rule="evenodd" d="M351.348 53.739C332.162 53.739 316.609 69.2923 316.609 88.4781C316.609 107.664 332.162 123.217 351.348 123.217C370.534 123.217 386.087 107.664 386.087 88.4781C386.087 69.2923 370.534 53.739 351.348 53.739ZM328.299 102.522H348.329V97.3427H337.322L348.329 76.6448H328.299V81.8238H339.343L328.299 102.522ZM354.15 81.3907C353.741 82.3291 353.536 83.3336 353.536 84.4043C353.536 85.4749 353.741 86.4855 354.15 87.4359C354.559 88.3742 355.112 89.1983 355.81 89.908C356.52 90.6058 357.344 91.1592 358.282 91.5682C359.221 91.9772 360.225 92.1817 361.296 92.1817H366.475C366.836 92.1817 367.172 92.2479 367.485 92.3802C367.798 92.5126 368.069 92.699 368.297 92.9396C368.538 93.1682 368.724 93.4389 368.857 93.7517C368.989 94.0645 369.055 94.4013 369.055 94.7622C369.055 95.1231 368.989 95.4599 368.857 95.7727C368.724 96.0855 368.538 96.3622 368.297 96.6028C368.069 96.8314 367.798 97.0118 367.485 97.1442C367.172 97.2765 366.836 97.3427 366.475 97.3427H354.98V102.522H366.475C367.545 102.522 368.55 102.317 369.488 101.908C370.439 101.499 371.263 100.946 371.96 100.248C372.67 99.5382 373.224 98.7141 373.621 97.7757C374.03 96.8374 374.234 95.8329 374.234 94.7622C374.234 93.6915 374.03 92.687 373.621 91.7487C373.224 90.7983 372.67 89.9742 371.96 89.2765C371.263 88.5667 370.439 88.0133 369.488 87.6163C368.55 87.2073 367.545 87.0028 366.475 87.0028H361.296C360.935 87.0028 360.598 86.9366 360.285 86.8043C359.972 86.6719 359.696 86.4915 359.455 86.2629C359.227 86.0223 359.046 85.7456 358.914 85.4328C358.781 85.108 358.715 84.7652 358.715 84.4043C358.715 84.0434 358.781 83.7065 358.914 83.3937C359.046 83.081 359.227 82.8103 359.455 82.5817C359.696 82.3411 359.972 82.1546 360.285 82.0223C360.598 81.89 360.935 81.8238 361.296 81.8238H373.169V76.6448H361.296C360.225 76.6448 359.221 76.8494 358.282 77.2584C357.344 77.6674 356.52 78.2268 355.81 78.9366C355.112 79.6343 354.559 80.4524 354.15 81.3907Z" fill="white"/>
<path d="M332.152 49.3698C327.062 51.3038 321.548 57.1594 319.427 59.8455C318.632 60.9199 316.414 63.1403 315.45 64.6805C313.064 68.4951 313.379 70.3212 312.269 73.5445C311.693 75.2164 311.827 76.5919 311.065 79.6947C311.024 79.8606 311.065 80.0619 310.678 81.3883C310.292 82.7148 308.292 83 308.292 83C306.702 82.1942 306.967 75.3533 307.497 70.3212C307.497 62.263 307.497 59.8455 305.906 59.0397C304.316 58.2339 303.52 61.4572 300.339 71.9329C297.158 82.4086 296.363 79.9911 296.363 79.9911C296.363 79.9911 294.772 76.5534 294.772 71.9329C294.772 67.0312 296.363 58.2339 297.953 55.8165C299.544 53.3991 297.953 53.399 293.977 51.7872C290 50.1753 290 46.9523 290 45.3406C290 43.7288 292.386 41.3114 295.567 44.5349C298.749 47.7584 298.749 48.564 302.725 45.3406C305.906 42.1172 314.437 35.3118 319.427 32.4475C322.608 30.6214 327.405 29.5323 331.022 28.646C334.31 27.8402 343.322 27.8313 348.058 28.4183C352.83 29.0097 355.216 30.03 356.807 30.8358C358.08 31.4805 362.374 31.6416 359.193 29.2241C356.012 26.8067 357.92 28.096 356.012 26.8067C353.626 25.195 348.854 25.195 347.263 25.195C345.673 25.195 338.515 24.3892 333.743 23.5834C328.971 22.7775 326.585 23.5834 323.404 21.1659C320.222 18.7484 321.813 17.9426 323.404 16.3309C324.994 14.7193 328.971 14.7193 332.152 14.7193C335.333 14.7193 339.31 16.3309 343.287 17.1368C347.263 17.9426 357.986 21.7629 359.988 22.7774L364.76 25.195C366.351 26.0008 367.146 24.3892 365.556 22.7774C363.965 21.1657 362.374 20.3601 359.988 19.5542C357.602 18.7484 349.649 14.7193 344.877 13.9135C340.105 13.1076 328.175 8.27269 325.789 7.46687C323.404 6.66104 322.608 3.43774 323.404 2.63181C324.199 1.82589 324.994 1.02016 328.971 0.214339C332.947 -0.591487 336.129 1.02016 341.696 2.63181C347.263 4.24346 356.807 8.27249 363.17 12.3017C369.532 16.3309 369.532 17.1367 377.485 22.7774C385.439 28.4182 385.439 31.6415 386.234 33.2532C387.029 34.8648 387.825 36.4766 387.029 38.0881C386.022 40.1289 383.848 41.3114 383.053 41.3114C382.257 41.3114 380.667 41.3114 379.076 42.1173C377.485 42.9231 379.076 44.5349 381.462 45.3406C383.848 46.1462 385.439 47.758 389.415 50.1755C393.392 52.593 391.801 53.3989 391.006 53.399C390.211 53.3991 388.62 52.593 386.234 51.7872C383.848 50.9813 375.099 46.1465 372.713 44.5349C370.327 42.9234 369.532 44.5349 368.737 46.1465C367.942 47.758 376.69 50.9816 379.076 53.399C381.462 55.8164 378.281 55.8165 378.281 55.8165C378.281 55.8165 372.979 54.4734 371.123 53.399C367.942 51.2501 359.67 46.7911 352.035 46.1465C342.491 45.3407 338.515 46.9523 332.152 49.3698Z" fill="white"/>
<path d="M51.8266 49.272L55.5466 48.504C55.6426 49.416 56.0746 50.168 56.8426 50.76C57.6266 51.336 58.6666 51.624 59.9626 51.624C61.2746 51.624 62.2666 51.4 62.9386 50.952C63.6266 50.488 63.9706 49.904 63.9706 49.2C63.9706 47.632 62.7146 46.848 60.2026 46.848H58.0906V44.496H60.2026C61.2746 44.496 62.0986 44.304 62.6746 43.92C63.2666 43.536 63.5626 43 63.5626 42.312C63.5626 41.608 63.2426 41.048 62.6026 40.632C61.9626 40.216 61.0586 40.008 59.8906 40.008C58.5626 40.008 57.5386 40.256 56.8186 40.752C56.0986 41.232 55.6346 42 55.4266 43.056L51.9226 42.36C52.0186 40.68 52.7866 39.4 54.2266 38.52C55.6826 37.624 57.5786 37.176 59.9146 37.176C62.4106 37.176 64.3626 37.592 65.7706 38.424C67.1786 39.24 67.8826 40.4 67.8826 41.904C67.8826 42.848 67.5546 43.624 66.8986 44.232C66.2426 44.824 65.3386 45.24 64.1866 45.48C65.5466 45.608 66.5786 46.032 67.2826 46.752C68.0026 47.456 68.3626 48.376 68.3626 49.512C68.3626 51.064 67.6026 52.272 66.0826 53.136C64.5786 54 62.5306 54.432 59.9386 54.432C57.4106 54.432 55.4266 53.968 53.9866 53.04C52.5466 52.112 51.8266 50.856 51.8266 49.272ZM70.7669 50.688C70.7669 49.248 71.6309 48.24 73.3589 47.664C75.0869 47.088 77.4709 46.8 80.5109 46.8C81.1669 46.8 81.7589 46.808 82.2869 46.824V46.632C82.2869 45.896 81.9829 45.312 81.3749 44.88C80.7829 44.448 79.8869 44.232 78.6869 44.232C77.7909 44.232 76.9909 44.384 76.2869 44.688C75.5829 44.992 75.0949 45.432 74.8229 46.008L71.6309 44.904C72.9429 42.664 75.4469 41.544 79.1429 41.544C81.6549 41.544 83.5029 42.04 84.6869 43.032C85.8869 44.008 86.4869 45.536 86.4869 47.616V50.952C86.4869 51.688 86.7589 52.056 87.3029 52.056C87.7669 52.056 88.1269 51.992 88.3829 51.864V53.784C87.6309 54.2 86.7589 54.408 85.7669 54.408C84.7749 54.408 84.0309 54.216 83.5349 53.832C83.0549 53.448 82.8149 52.84 82.8149 52.008C82.8149 51.528 82.9029 50.792 83.0789 49.8C82.7429 51.368 81.9429 52.528 80.6789 53.28C79.4309 54.032 77.9349 54.408 76.1909 54.408C74.4469 54.408 73.1029 54.088 72.1589 53.448C71.2309 52.792 70.7669 51.872 70.7669 50.688ZM82.2869 48.696L81.2789 48.672C79.1829 48.672 77.6309 48.808 76.6229 49.08C75.6309 49.352 75.1349 49.864 75.1349 50.616C75.1349 51.08 75.3349 51.448 75.7349 51.72C76.1349 51.992 76.7429 52.128 77.5589 52.128C78.7589 52.128 79.8469 51.76 80.8229 51.024C81.7989 50.288 82.2869 49.512 82.2869 48.696ZM108.631 50.928H111.031V56.184H107.239V54H94.9266V56.184H91.1346V50.928H92.5746C93.3586 50.928 93.9106 50.8 94.2306 50.544C94.5506 50.304 94.7666 49.856 94.8786 49.2C94.9906 48.528 95.0466 47.416 95.0466 45.864V41.976H108.631V50.928ZM98.1186 50.928H104.455V45.048H99.2466V45.912C99.2466 48.136 98.8706 49.808 98.1186 50.928ZM113.794 54V41.976H117.874V48.672L117.826 49.872L118.69 49.056L125.41 41.976H129.778V54H125.698V47.304L125.746 46.104L124.858 46.92L118.066 54H113.794ZM133.111 50.4L136.447 49.608C136.543 50.232 136.887 50.728 137.479 51.096C138.087 51.448 138.895 51.624 139.903 51.624C140.815 51.624 141.495 51.488 141.943 51.216C142.391 50.944 142.615 50.632 142.615 50.28C142.615 49.416 141.799 48.984 140.167 48.984H138.391V46.92H140.143C141.535 46.92 142.231 46.536 142.231 45.768C142.231 45.32 142.007 44.968 141.559 44.712C141.127 44.44 140.487 44.304 139.639 44.304C137.767 44.304 136.695 44.936 136.423 46.2L133.183 45.504C133.215 44.192 133.823 43.208 135.007 42.552C136.191 41.88 137.815 41.544 139.879 41.544C141.863 41.544 143.471 41.904 144.703 42.624C145.935 43.328 146.551 44.2 146.551 45.24C146.551 46.696 145.583 47.592 143.647 47.928C144.719 47.992 145.535 48.272 146.095 48.768C146.655 49.264 146.935 49.912 146.935 50.712C146.935 51.848 146.303 52.736 145.039 53.376C143.791 54 142.063 54.312 139.855 54.312C137.743 54.312 136.087 53.96 134.887 53.256C133.703 52.536 133.111 51.584 133.111 50.4ZM148.871 50.688C148.871 49.248 149.735 48.24 151.463 47.664C153.191 47.088 155.575 46.8 158.615 46.8C159.271 46.8 159.863 46.808 160.391 46.824V46.632C160.391 45.896 160.087 45.312 159.479 44.88C158.887 44.448 157.991 44.232 156.791 44.232C155.895 44.232 155.095 44.384 154.391 44.688C153.687 44.992 153.199 45.432 152.927 46.008L149.735 44.904C151.047 42.664 153.551 41.544 157.247 41.544C159.759 41.544 161.607 42.04 162.791 43.032C163.991 44.008 164.591 45.536 164.591 47.616V50.952C164.591 51.688 164.863 52.056 165.407 52.056C165.871 52.056 166.231 51.992 166.487 51.864V53.784C165.735 54.2 164.863 54.408 163.871 54.408C162.879 54.408 162.135 54.216 161.639 53.832C161.159 53.448 160.919 52.84 160.919 52.008C160.919 51.528 161.007 50.792 161.183 49.8C160.847 51.368 160.047 52.528 158.783 53.28C157.535 54.032 156.039 54.408 154.295 54.408C152.551 54.408 151.207 54.088 150.263 53.448C149.335 52.792 148.871 51.872 148.871 50.688ZM160.391 48.696L159.383 48.672C157.287 48.672 155.735 48.808 154.727 49.08C153.735 49.352 153.239 49.864 153.239 50.616C153.239 51.08 153.439 51.448 153.839 51.72C154.239 51.992 154.847 52.128 155.663 52.128C156.863 52.128 157.951 51.76 158.927 51.024C159.903 50.288 160.391 49.512 160.391 48.696ZM172.626 36.528L175.122 36.048C175.202 37.328 175.946 37.968 177.354 37.968C178.842 37.968 179.626 37.328 179.706 36.048L182.202 36.528C182.106 38.912 180.49 40.104 177.354 40.104C174.378 40.104 172.802 38.912 172.626 36.528ZM169.554 54V41.976H173.634V48.672L173.586 49.872L174.45 49.056L181.17 41.976H185.538V54H181.458V47.304L181.506 46.104L180.618 46.92L173.826 54H169.554ZM190.046 54V41.976H194.246V46.344H201.854V41.976H206.03V54H201.854V49.416H194.246V54H190.046ZM208.932 48.024C208.932 46.072 209.684 44.504 211.188 43.32C212.708 42.136 214.756 41.544 217.332 41.544C219.668 41.544 221.556 42.208 222.996 43.536C224.452 44.864 225.18 46.52 225.18 48.504V48.888H212.748C212.844 49.752 213.34 50.448 214.236 50.976C215.148 51.488 216.3 51.744 217.692 51.744C219.74 51.744 221.172 51.096 221.988 49.8H222.132L224.892 51.168C223.164 53.328 220.78 54.408 217.74 54.408C215.02 54.408 212.868 53.84 211.284 52.704C209.716 51.568 208.932 50.008 208.932 48.024ZM212.82 46.632H221.196C221.116 45.88 220.732 45.264 220.044 44.784C219.356 44.304 218.412 44.064 217.212 44.064C215.98 44.064 214.964 44.304 214.164 44.784C213.364 45.248 212.916 45.864 212.82 46.632ZM228.243 54V41.976H232.443V46.344H240.051V41.976H244.227V54H240.051V49.416H232.443V54H228.243ZM247.129 47.976C247.097 46.632 247.505 45.464 248.353 44.472C249.201 43.464 250.273 42.72 251.569 42.24C252.881 41.76 254.297 41.528 255.817 41.544C257.353 41.528 258.777 41.76 260.089 42.24C261.401 42.72 262.473 43.464 263.305 44.472C264.137 45.464 264.537 46.624 264.505 47.952C264.537 49.952 263.697 51.536 261.985 52.704C260.273 53.872 258.217 54.44 255.817 54.408C254.281 54.424 252.857 54.2 251.545 53.736C250.249 53.256 249.185 52.512 248.353 51.504C247.521 50.496 247.113 49.32 247.129 47.976ZM260.161 47.976C260.161 46.92 259.753 46.088 258.937 45.48C258.121 44.872 257.081 44.568 255.817 44.568C254.569 44.568 253.529 44.88 252.697 45.504C251.881 46.128 251.473 46.952 251.473 47.976C251.473 49 251.881 49.824 252.697 50.448C253.529 51.072 254.569 51.384 255.817 51.384C257.081 51.384 258.121 51.08 258.937 50.472C259.753 49.848 260.161 49.016 260.161 47.976ZM88.4881 79V66.976H92.5681V73.672L92.5201 74.872L93.3841 74.056L100.104 66.976H104.472V79H100.392V72.304L100.44 71.104L99.5521 71.92L92.7601 79H88.4881ZM116.509 75.4L119.845 74.608C119.941 75.232 120.285 75.728 120.877 76.096C121.485 76.448 122.293 76.624 123.301 76.624C124.213 76.624 124.893 76.488 125.341 76.216C125.789 75.944 126.013 75.632 126.013 75.28C126.013 74.416 125.197 73.984 123.565 73.984H121.789V71.92H123.541C124.933 71.92 125.629 71.536 125.629 70.768C125.629 70.32 125.405 69.968 124.957 69.712C124.525 69.44 123.885 69.304 123.037 69.304C121.165 69.304 120.093 69.936 119.821 71.2L116.581 70.504C116.613 69.192 117.221 68.208 118.405 67.552C119.589 66.88 121.213 66.544 123.277 66.544C125.261 66.544 126.869 66.904 128.101 67.624C129.333 68.328 129.949 69.2 129.949 70.24C129.949 71.696 128.981 72.592 127.045 72.928C128.117 72.992 128.933 73.272 129.493 73.768C130.053 74.264 130.333 74.912 130.333 75.712C130.333 76.848 129.701 77.736 128.437 78.376C127.189 79 125.461 79.312 123.253 79.312C121.141 79.312 119.485 78.96 118.285 78.256C117.101 77.536 116.509 76.584 116.509 75.4ZM132.269 75.688C132.269 74.248 133.133 73.24 134.861 72.664C136.589 72.088 138.973 71.8 142.013 71.8C142.669 71.8 143.261 71.808 143.789 71.824V71.632C143.789 70.896 143.485 70.312 142.877 69.88C142.285 69.448 141.389 69.232 140.189 69.232C139.293 69.232 138.493 69.384 137.789 69.688C137.085 69.992 136.597 70.432 136.325 71.008L133.133 69.904C134.445 67.664 136.949 66.544 140.645 66.544C143.157 66.544 145.005 67.04 146.189 68.032C147.389 69.008 147.989 70.536 147.989 72.616V75.952C147.989 76.688 148.261 77.056 148.805 77.056C149.269 77.056 149.629 76.992 149.885 76.864V78.784C149.133 79.2 148.261 79.408 147.269 79.408C146.277 79.408 145.533 79.216 145.037 78.832C144.557 78.448 144.317 77.84 144.317 77.008C144.317 76.528 144.405 75.792 144.581 74.8C144.245 76.368 143.445 77.528 142.181 78.28C140.933 79.032 139.437 79.408 137.693 79.408C135.949 79.408 134.605 79.088 133.661 78.448C132.733 77.792 132.269 76.872 132.269 75.688ZM143.789 73.696L142.781 73.672C140.685 73.672 139.133 73.808 138.125 74.08C137.133 74.352 136.637 74.864 136.637 75.616C136.637 76.08 136.837 76.448 137.237 76.72C137.637 76.992 138.245 77.128 139.061 77.128C140.261 77.128 141.349 76.76 142.325 76.024C143.301 75.288 143.789 74.512 143.789 73.696ZM163.799 72.976L164.831 74.512L167.543 79H163.583L161.399 75.64L160.703 74.512H157.151V79H152.951V66.976H157.151V71.464H160.703L161.375 70.312L163.487 66.976H167.543L164.831 71.488L163.799 72.976ZM168.978 72.976C168.946 71.632 169.354 70.464 170.202 69.472C171.05 68.464 172.122 67.72 173.418 67.24C174.73 66.76 176.146 66.528 177.666 66.544C179.202 66.528 180.626 66.76 181.938 67.24C183.25 67.72 184.322 68.464 185.154 69.472C185.986 70.464 186.386 71.624 186.354 72.952C186.386 74.952 185.546 76.536 183.834 77.704C182.122 78.872 180.066 79.44 177.666 79.408C176.13 79.424 174.706 79.2 173.394 78.736C172.098 78.256 171.034 77.512 170.202 76.504C169.37 75.496 168.962 74.32 168.978 72.976ZM182.01 72.976C182.01 71.92 181.602 71.088 180.786 70.48C179.97 69.872 178.93 69.568 177.666 69.568C176.418 69.568 175.378 69.88 174.546 70.504C173.73 71.128 173.322 71.952 173.322 72.976C173.322 74 173.73 74.824 174.546 75.448C175.378 76.072 176.418 76.384 177.666 76.384C178.93 76.384 179.97 76.08 180.786 75.472C181.602 74.848 182.01 74.016 182.01 72.976ZM205.329 75.928H207.729V81.184H203.937V79H191.625V81.184H187.833V75.928H189.273C190.057 75.928 190.609 75.8 190.929 75.544C191.249 75.304 191.465 74.856 191.577 74.2C191.689 73.528 191.745 72.416 191.745 70.864V66.976H205.329V75.928ZM194.817 75.928H201.153V70.048H195.945V70.912C195.945 73.136 195.569 74.808 194.817 75.928ZM208.932 73.024C208.932 71.072 209.684 69.504 211.188 68.32C212.708 67.136 214.756 66.544 217.332 66.544C219.668 66.544 221.556 67.208 222.996 68.536C224.452 69.864 225.18 71.52 225.18 73.504V73.888H212.748C212.844 74.752 213.34 75.448 214.236 75.976C215.148 76.488 216.3 76.744 217.692 76.744C219.74 76.744 221.172 76.096 221.988 74.8H222.132L224.892 76.168C223.164 78.328 220.78 79.408 217.74 79.408C215.02 79.408 212.868 78.84 211.284 77.704C209.716 76.568 208.932 75.008 208.932 73.024ZM212.82 71.632H221.196C221.116 70.88 220.732 70.264 220.044 69.784C219.356 69.304 218.412 69.064 217.212 69.064C215.98 69.064 214.964 69.304 214.164 69.784C213.364 70.248 212.916 70.864 212.82 71.632ZM228.243 79V66.976H232.443V71.344H240.051V66.976H244.227V79H240.051V74.416H232.443V79H228.243ZM247.129 72.976C247.097 71.632 247.505 70.464 248.353 69.472C249.201 68.464 250.273 67.72 251.569 67.24C252.881 66.76 254.297 66.528 255.817 66.544C257.353 66.528 258.777 66.76 260.089 67.24C261.401 67.72 262.473 68.464 263.305 69.472C264.137 70.464 264.537 71.624 264.505 72.952C264.537 74.952 263.697 76.536 261.985 77.704C260.273 78.872 258.217 79.44 255.817 79.408C254.281 79.424 252.857 79.2 251.545 78.736C250.249 78.256 249.185 77.512 248.353 76.504C247.521 75.496 247.113 74.32 247.129 72.976ZM260.161 72.976C260.161 71.92 259.753 71.088 258.937 70.48C258.121 69.872 257.081 69.568 255.817 69.568C254.569 69.568 253.529 69.88 252.697 70.504C251.881 71.128 251.473 71.952 251.473 72.976C251.473 74 251.881 74.824 252.697 75.448C253.529 76.072 254.569 76.384 255.817 76.384C257.081 76.384 258.121 76.08 258.937 75.472C259.753 74.848 260.161 74.016 260.161 72.976ZM14.4927 104V91.976H23.8047C25.6127 91.976 26.9647 92.216 27.8607 92.696C28.7727 93.176 29.2287 93.96 29.2287 95.048C29.1807 95.944 28.8847 96.568 28.3407 96.92C27.7967 97.256 26.9087 97.52 25.6767 97.712C26.9407 97.824 27.9167 98.088 28.6047 98.504C29.3087 98.904 29.6607 99.568 29.6607 100.496C29.6607 101.552 29.1727 102.4 28.1967 103.04C27.2207 103.68 25.7887 104 23.9007 104H14.4927ZM18.5487 96.992H23.1807C24.3967 96.992 25.0047 96.576 25.0047 95.744C25.0047 94.928 24.3647 94.52 23.0847 94.52H18.5487V96.992ZM18.5487 101.432H23.1327C23.9487 101.432 24.5327 101.352 24.8847 101.192C25.2367 101.016 25.4127 100.664 25.4127 100.136C25.4127 99.64 25.2367 99.296 24.8847 99.104C24.5487 98.912 24.0207 98.816 23.3007 98.816H18.5487V101.432ZM40.5256 104V101.072L52.3336 90.584H40.8136V87.224H58.2136V90.152L46.4296 100.64H58.4296V104H40.5256ZM60.8744 100.688C60.8744 99.248 61.7384 98.24 63.4664 97.664C65.1944 97.088 67.5784 96.8 70.6184 96.8C71.2744 96.8 71.8664 96.808 72.3944 96.824V96.632C72.3944 95.896 72.0904 95.312 71.4824 94.88C70.8904 94.448 69.9944 94.232 68.7944 94.232C67.8984 94.232 67.0984 94.384 66.3944 94.688C65.6904 94.992 65.2024 95.432 64.9304 96.008L61.7384 94.904C63.0504 92.664 65.5544 91.544 69.2504 91.544C71.7624 91.544 73.6104 92.04 74.7944 93.032C75.9944 94.008 76.5944 95.536 76.5944 97.616V100.952C76.5944 101.688 76.8664 102.056 77.4104 102.056C77.8744 102.056 78.2344 101.992 78.4904 101.864V103.784C77.7384 104.2 76.8664 104.408 75.8744 104.408C74.8824 104.408 74.1384 104.216 73.6424 103.832C73.1624 103.448 72.9224 102.84 72.9224 102.008C72.9224 101.528 73.0104 100.792 73.1864 99.8C72.8504 101.368 72.0504 102.528 70.7864 103.28C69.5384 104.032 68.0424 104.408 66.2984 104.408C64.5544 104.408 63.2104 104.088 62.2664 103.448C61.3384 102.792 60.8744 101.872 60.8744 100.688ZM72.3944 98.696L71.3864 98.672C69.2904 98.672 67.7384 98.808 66.7304 99.08C65.7384 99.352 65.2424 99.864 65.2424 100.616C65.2424 101.08 65.4424 101.448 65.8424 101.72C66.2424 101.992 66.8504 102.128 67.6664 102.128C68.8664 102.128 69.9544 101.76 70.9304 101.024C71.9064 100.288 72.3944 99.512 72.3944 98.696ZM81.5091 90.584V87.224H85.8291V90.584H81.5091ZM81.5571 104V91.976H85.7811V104H81.5571ZM90.8843 98.696V94.064H88.0523V91.976H90.2363C90.7643 91.976 91.1403 91.856 91.3643 91.616C91.5883 91.376 91.7003 90.992 91.7003 90.464V88.184H95.0843V91.976H100.124V94.064H95.0843V98.888C95.0843 99.784 95.2523 100.432 95.5883 100.832C95.9243 101.216 96.4443 101.408 97.1483 101.408C97.7243 101.408 98.1963 101.184 98.5643 100.736C98.9323 100.272 99.1643 99.672 99.2603 98.936L101.996 99.8C101.788 101.096 101.228 102.192 100.316 103.088C99.4203 103.968 98.1083 104.408 96.3803 104.408C94.4923 104.408 93.1003 103.944 92.2043 103.016C91.3243 102.072 90.8843 100.632 90.8843 98.696ZM103.479 101.168L106.719 100.064C107.503 101.168 108.903 101.72 110.919 101.72C112.119 101.72 112.967 101.624 113.463 101.432C113.975 101.224 114.231 100.904 114.231 100.472C114.183 100.104 113.911 99.848 113.415 99.704C112.919 99.544 111.863 99.368 110.247 99.176L109.959 99.128C108.791 99 107.815 98.848 107.031 98.672C106.231 98.48 105.503 98.12 104.847 97.592C104.223 97.032 103.911 96.272 103.911 95.312C103.911 94.096 104.479 93.168 105.615 92.528C106.751 91.872 108.439 91.544 110.679 91.544C112.407 91.544 113.855 91.776 115.023 92.24C116.191 92.688 117.199 93.496 118.047 94.664L114.711 95.648C114.231 95.104 113.703 94.72 113.127 94.496C112.567 94.272 111.751 94.16 110.679 94.16C108.823 94.16 107.895 94.544 107.895 95.312C107.959 95.696 108.167 95.952 108.519 96.08C108.887 96.192 109.703 96.32 110.967 96.464L111.687 96.512C114.103 96.8 115.807 97.216 116.799 97.76C117.807 98.288 118.311 99.136 118.311 100.304C118.311 103.04 115.879 104.408 111.015 104.408C109.143 104.408 107.551 104.136 106.239 103.592C104.927 103.048 104.007 102.24 103.479 101.168ZM120.147 98.024C120.147 96.072 120.899 94.504 122.403 93.32C123.923 92.136 125.971 91.544 128.547 91.544C130.883 91.544 132.771 92.208 134.211 93.536C135.667 94.864 136.395 96.52 136.395 98.504V98.888H123.963C124.059 99.752 124.555 100.448 125.451 100.976C126.363 101.488 127.515 101.744 128.907 101.744C130.955 101.744 132.387 101.096 133.203 99.8H133.347L136.107 101.168C134.379 103.328 131.995 104.408 128.955 104.408C126.235 104.408 124.083 103.84 122.499 102.704C120.931 101.568 120.147 100.008 120.147 98.024ZM124.035 96.632H132.411C132.331 95.88 131.947 95.264 131.259 94.784C130.571 94.304 129.627 94.064 128.427 94.064C127.195 94.064 126.179 94.304 125.379 94.784C124.579 95.248 124.131 95.864 124.035 96.632ZM143.473 104L136.873 91.976H141.577L145.369 99.728L145.969 101.168L146.593 99.728L150.409 91.976H154.585L148.009 104H143.473ZM164.05 99.848L166.93 98.24H167.002C167.482 99.168 168.266 99.896 169.354 100.424C170.442 100.952 171.714 101.216 173.17 101.216C174.498 101.216 175.474 101.032 176.098 100.664C176.722 100.296 177.034 99.84 177.034 99.296C176.986 98.752 176.77 98.376 176.386 98.168C176.002 97.96 175.178 97.728 173.914 97.472L170.362 96.704C168.49 96.288 167.106 95.664 166.21 94.832C165.314 94 164.866 92.912 164.866 91.568C164.866 90.016 165.538 88.824 166.882 87.992C168.242 87.144 170.17 86.72 172.666 86.72C176.65 86.72 179.426 88.088 180.994 90.824L177.85 92.24H177.73C177.298 91.36 176.61 90.76 175.666 90.44C174.738 90.104 173.746 89.936 172.69 89.936C170.178 89.936 168.922 90.48 168.922 91.568C168.922 92.08 169.122 92.456 169.522 92.696C169.938 92.936 170.578 93.144 171.442 93.32L175.738 94.304C177.642 94.672 179.05 95.224 179.962 95.96C180.89 96.696 181.354 97.744 181.354 99.104C181.354 100.704 180.626 102.008 179.17 103.016C177.714 104.008 175.762 104.504 173.314 104.504C171.17 104.504 169.234 104.088 167.506 103.256C165.794 102.424 164.642 101.288 164.05 99.848ZM185.201 98.696V94.064H182.369V91.976H184.553C185.081 91.976 185.457 91.856 185.681 91.616C185.905 91.376 186.017 90.992 186.017 90.464V88.184H189.401V91.976H194.441V94.064H189.401V98.888C189.401 99.784 189.569 100.432 189.905 100.832C190.241 101.216 190.761 101.408 191.465 101.408C192.041 101.408 192.513 101.184 192.881 100.736C193.249 100.272 193.481 99.672 193.577 98.936L196.313 99.8C196.105 101.096 195.545 102.192 194.633 103.088C193.737 103.968 192.425 104.408 190.697 104.408C188.809 104.408 187.417 103.944 186.521 103.016C185.641 102.072 185.201 100.632 185.201 98.696ZM199.187 97.424V91.976H203.387V97.016C203.387 99.912 204.523 101.36 206.795 101.36C207.915 101.36 208.915 100.928 209.795 100.064C210.675 99.184 211.115 98.04 211.115 96.632V91.976H215.315V104H212.435L211.811 100.52C211.267 101.72 210.379 102.672 209.147 103.376C207.931 104.08 206.635 104.432 205.259 104.432C201.211 104.432 199.187 102.096 199.187 97.424ZM218.167 97.976C218.167 96.104 218.855 94.568 220.231 93.368C221.623 92.152 223.367 91.544 225.463 91.544C226.807 91.544 227.983 91.8 228.991 92.312C229.999 92.824 230.719 93.472 231.151 94.256V87.056H235.351V104H232.111L231.535 101.36C231.007 102.288 230.199 103.032 229.111 103.592C228.023 104.136 226.743 104.408 225.271 104.408C223.287 104.408 221.607 103.8 220.231 102.584C218.855 101.352 218.167 99.816 218.167 97.976ZM231.151 98C231.151 96.992 230.735 96.168 229.903 95.528C229.087 94.888 228.071 94.568 226.855 94.568C225.591 94.568 224.551 94.88 223.735 95.504C222.919 96.128 222.511 96.952 222.511 97.976C222.511 99.032 222.911 99.864 223.711 100.472C224.527 101.08 225.567 101.384 226.831 101.384C228.095 101.384 229.127 101.072 229.927 100.448C230.743 99.808 231.151 98.992 231.151 98ZM239.914 90.584V87.224H244.234V90.584H239.914ZM239.962 104V91.976H244.186V104H239.962ZM247.129 97.976C247.097 96.632 247.505 95.464 248.353 94.472C249.201 93.464 250.273 92.72 251.569 92.24C252.881 91.76 254.297 91.528 255.817 91.544C257.353 91.528 258.777 91.76 260.089 92.24C261.401 92.72 262.473 93.464 263.305 94.472C264.137 95.464 264.537 96.624 264.505 97.952C264.537 99.952 263.697 101.536 261.985 102.704C260.273 103.872 258.217 104.44 255.817 104.408C254.281 104.424 252.857 104.2 251.545 103.736C250.249 103.256 249.185 102.512 248.353 101.504C247.521 100.496 247.113 99.32 247.129 97.976ZM260.161 97.976C260.161 96.92 259.753 96.088 258.937 95.48C258.121 94.872 257.081 94.568 255.817 94.568C254.569 94.568 253.529 94.88 252.697 95.504C251.881 96.128 251.473 96.952 251.473 97.976C251.473 99 251.881 99.824 252.697 100.448C253.529 101.072 254.569 101.384 255.817 101.384C257.081 101.384 258.121 101.08 258.937 100.472C259.753 99.848 260.161 99.016 260.161 97.976Z" fill="white"/>
</svg>
