<svg xmlns="http://www.w3.org/2000/svg" viewBox="0 0 28 28"><g id="Слой_2" data-name="Слой 2"><g id="Layer_1" data-name="Layer 1"><path d="M20.72,16.09c-.06,0-2.1-1-2.46-1.16a1.3,1.3,0,0,0-.48-.11.81.81,0,0,0-.68.41c-.21.3-.82,1-1,1.24,0,0-.06.06-.08.06l-.43-.17a10.71,10.71,0,0,1-4.08-3.62c0-.06,0-.08,0-.08a.71.71,0,0,1,.12-.15c.11-.11.23-.25.35-.39l.16-.2a2.3,2.3,0,0,0,.34-.52l0-.1a.91.91,0,0,0,0-.89l-1-2.4c-.22-.52-.51-.77-.91-.77h-.16a4.93,4.93,0,0,0-1.7.43,3.57,3.57,0,0,0-1.32,3,6.47,6.47,0,0,0,1.42,3.58l.05.09a13.32,13.32,0,0,0,5.71,4.95,9.22,9.22,0,0,0,3.44.88h0c.23,0,.41,0,.56,0h.1a3.61,3.61,0,0,0,2.53-1.79,2.81,2.81,0,0,0,.16-1.86A1.28,1.28,0,0,0,20.72,16.09Z"/><path d="M14.25,0A13.71,13.71,0,0,0,.5,13.65a13.57,13.57,0,0,0,1.88,6.9L0,27.52a.38.38,0,0,0,.08.37A.38.38,0,0,0,.36,28l.11,0,7.27-2.31A13.76,13.76,0,0,0,28,13.65,13.71,13.71,0,0,0,14.25,0Zm0,24.45a10.92,10.92,0,0,1-6-1.78.36.36,0,0,0-.2-.06H7.94L4.31,23.78l1.17-3.46A.37.37,0,0,0,5.43,20a10.61,10.61,0,0,1-2.07-6.33,10.89,10.89,0,1,1,10.89,10.8Z"/></g></g></svg>